<mxfile host="app.diagrams.net" modified="2022-08-11T15:24:29.911Z" agent="5.0 (Windows NT 10.0; Win64; x64) AppleWebKit/537.36 (KHTML, like Gecko) Chrome/104.0.0.0 Safari/537.36" etag="zgmNAp3zksIpslbGM0kb" version="20.2.3" type="github" pages="2">
  <diagram id="kgpKYQtTHZ0yAKxKKP6v" name="precificacao_nova_arquitetura">
    <mxGraphModel dx="3176" dy="962" grid="0" gridSize="10" guides="1" tooltips="1" connect="1" arrows="1" fold="1" page="1" pageScale="1" pageWidth="1100" pageHeight="850" background="none" math="0" shadow="1">
      <root>
        <mxCell id="0" />
        <mxCell id="1" parent="0" />
        <mxCell id="3nuBFxr9cyL0pnOWT2aG-1" value="mortgage-origpf-graphql.app" style="shape=umlLifeline;perimeter=lifelinePerimeter;container=0;collapsible=0;recursiveResize=0;rounded=0;shadow=0;strokeWidth=1;labelBackgroundColor=none;fillColor=#f8cecc;strokeColor=#b85450;fontStyle=1;fontColor=#660000;size=50;" parent="1" vertex="1">
          <mxGeometry x="-6" y="47" width="180" height="590" as="geometry" />
        </mxCell>
        <mxCell id="3nuBFxr9cyL0pnOWT2aG-5" value="Simulação&#xa;mortgage-origpf-simulacao.app" style="shape=umlLifeline;perimeter=lifelinePerimeter;container=1;collapsible=0;recursiveResize=0;rounded=0;shadow=0;strokeWidth=1;whiteSpace=wrap;labelBackgroundColor=none;fillColor=#f8cecc;strokeColor=#b85450;fontStyle=1;fontColor=#660000;size=50;" parent="1" vertex="1">
          <mxGeometry x="320" y="50" width="190" height="590" as="geometry" />
        </mxCell>
        <mxCell id="3nuBFxr9cyL0pnOWT2aG-6" value="" style="points=[];perimeter=orthogonalPerimeter;rounded=0;shadow=0;strokeWidth=1;labelBackgroundColor=none;fillColor=#f8cecc;strokeColor=#b85450;fontStyle=1;fontColor=#660000;" parent="3nuBFxr9cyL0pnOWT2aG-5" vertex="1">
          <mxGeometry x="90" y="80" width="10" height="410" as="geometry" />
        </mxCell>
        <mxCell id="VXKFvENRnSMDq_s_ZxEp-17" value="" style="verticalAlign=bottom;endArrow=block;entryX=1.3;entryY=0.321;shadow=0;strokeWidth=1;entryDx=0;entryDy=0;entryPerimeter=0;labelBackgroundColor=none;fillColor=#f8cecc;strokeColor=#b85450;fontStyle=1;fontColor=#660000;" parent="3nuBFxr9cyL0pnOWT2aG-5" source="VXKFvENRnSMDq_s_ZxEp-9" edge="1">
          <mxGeometry relative="1" as="geometry">
            <mxPoint x="730" y="440" as="sourcePoint" />
            <mxPoint x="100" y="450" as="targetPoint" />
          </mxGeometry>
        </mxCell>
        <mxCell id="3nuBFxr9cyL0pnOWT2aG-8" value="calculate (SimulationResultCalculateRequest body) " style="verticalAlign=bottom;endArrow=block;entryX=0;entryY=0;shadow=0;strokeWidth=1;labelBackgroundColor=none;fillColor=#f8cecc;strokeColor=#b85450;fontStyle=1;fontColor=#660000;exitX=1.02;exitY=0.208;exitDx=0;exitDy=0;exitPerimeter=0;" parent="1" edge="1" source="3nuBFxr9cyL0pnOWT2aG-2">
          <mxGeometry relative="1" as="geometry">
            <mxPoint x="175" y="217.0000000000008" as="sourcePoint" />
            <mxPoint x="410" y="217.0000000000008" as="targetPoint" />
          </mxGeometry>
        </mxCell>
        <mxCell id="3nuBFxr9cyL0pnOWT2aG-9" value="SimulationResultCalculateResponse" style="verticalAlign=bottom;endArrow=block;shadow=0;strokeWidth=1;labelBackgroundColor=none;fillColor=#f8cecc;strokeColor=#b85450;fontStyle=1;fontColor=#660000;entryX=1.38;entryY=0.924;entryDx=0;entryDy=0;entryPerimeter=0;" parent="1" edge="1" target="3nuBFxr9cyL0pnOWT2aG-2">
          <mxGeometry relative="1" as="geometry">
            <mxPoint x="410" y="509.99" as="sourcePoint" />
            <mxPoint x="178" y="509.99" as="targetPoint" />
          </mxGeometry>
        </mxCell>
        <mxCell id="VXKFvENRnSMDq_s_ZxEp-1" value="Camunda&#xa;vivere-workflow-originacao.app" style="shape=umlLifeline;perimeter=lifelinePerimeter;container=0;collapsible=0;recursiveResize=0;rounded=0;shadow=0;strokeWidth=1;size=50;whiteSpace=wrap;labelBackgroundColor=none;fillColor=#f8cecc;strokeColor=#b85450;fontStyle=1;fontColor=#660000;" parent="1" vertex="1">
          <mxGeometry x="661.5" y="50" width="205" height="576" as="geometry" />
        </mxCell>
        <mxCell id="VXKFvENRnSMDq_s_ZxEp-3" value="" style="shape=image;verticalLabelPosition=bottom;labelBackgroundColor=default;verticalAlign=top;aspect=fixed;imageAspect=0;image=data:image/png,iVBORw0KGgoAAAANSUhEUgAAAX0AAAJiCAYAAAArERKCAAAAAXNSR0IArs4c6QAAAARnQU1BAACxjwv8YQUAAAAJcEhZcwAAEnQAABJ0Ad5mH3gAAH2FSURBVHhe7d0HfBRV4gfwX8qmN5IQIPTei2CDQ7FgQRARQT07FtTzbJzlbHeK53l651+UUxHFrocNUUBEeugkoSQhhBTSk03blE12N9ls8n9vZjbZFIqyoc3v62fdmTdvZt7OkN+8nd2d8SgFGkFERLrgqT0TEZEOMPSJiHSEoU9EpCMMfSIiHWHoExHpCEOfiEhH+JVNIqLfw8MDnl26wO/xx+Fz7bXw7NMHHv7+2sQT02i1oiErC3UrVsD25ptoKCoShe6J6g7p6fvMmKENERGdhUTgGy67DEFffolGiwVmkXmmgACUiXJ3POSy5DLlsuU65LrkOt3B7T19j7AwhO3di/K+fbUSIqKzi2fXrkoY2xYuRN3y5Vppx5CdaL+HH0b1rbeiwWjUSn8/t/b05dubxooKNFRWIuDFF7XStmQ9w6RJyuO3kgcVOf+J8h4zRhsiIvpt5Ckde0xMhwe+JNch1yXX6Q5u7ek7g96+aROCf/hB6e3Lg4AredQK+uQT1O/bpwS4VczzWzaccx2WoxxUjsVwySUI2bhReRtFRPRbhSUnK6dfHKmpWkk7hkyH353jgR2fwvZTiiyA97ga1MfnKsNeQ1LgwET49A8FKjNQt1XWaZ/XoEEIFjlZMWyYVvL7uS30fa67Dg3Z2UqYyrBXgn3vXtjeeqtF8MuGO0Tgtw5t2Xv3vfNOZVh+gFH76afKMr20Hnn95s3KwUSGvmfv3qiVy9+/X5km55MHEOd8MtS9tXcRzvkk5zq85PNddymhL+dzzi/nlctwnd/60kvKMxGRU7jFopx3P7IpCPr5Ltj/uVBU9kTtTzHwfPFLhFxaD8ukO1GHfyPg30/CgrcRtGkN7NMegU/SVTC/o83ejmOv8/ic8OkdeZokVIS7DPMGEe52EbKBCxbAJh4yoDtlZioB6yTD2u/RR5sCXpJhHCqC2bNTJ+UhDxiSXKaXOIB4iHCWw85TMp6izHDppUpQy+XLOo2VlU3z+Yv1OueTZfLdhZw3TBxs5PJdPxCRBylnXflZhFymc365TCKi3y4J9oq+IvvOR2NqjBg/D/6jRODv9hZ5pNZw5RFSj8Z8baSDnXDoB378cVMYy5CveewxJdCd3+CRIRok6jjPw8tTOebrr4fvnDlKYMt5/cRBQZbLeVuf6pEHCfmuQJ4O8hY9cKleHCBkmeyRy96+nE8eZFw555PPch2yPXJY1pXPkiyXj4bycjQ2NirvSJyvRdZpvUwiIkmeEZCnXI4sF7W3nI/q9xzwfXcJDOfdA6/+neE7vD+8bnlIq+M0BIagVNQe5Sy3XJdcpzuccOgrPWeNDHtP7TSJ7M0fiTzdUiUCu+7HH5VetdT63H975LJdyQPK8cwnHa2u7OXLh2y3w00blojOXvL78z5//KM21p4p8F/0AfzvmACP2iJ4/zkKjnuvgfmaC1EXNBXN3+avRcOqN1ATOwD+/zxPK2tLrkuu0x1OOPSV75K6nAYJePPNNuEqz4s7j1Kyxy3P1ctv7niNHq2c35cHAeXdgSh3nks/GoM2v+zxy2c5n3wcjXynINch6zed7xdl8nMI2cu3b9wIh3jncbwHESLSL/mDKcPFFzed0WhrNawP3IeaR29C1ZRnYb1zpgh2dYr1mmtgxZOwPClGnpTn9cU7h39ci6pntQqtyHXIdcl1uoPXU8Dv/xqMIL83Wrt0qRKe8tdoHvK8fJ8+cBw6BLvoydc8+KAy3cn7wgvhJ8rkOXnZ07ctWgRHSooyv8/11ysfvDbIeUWgy963fHYGsTxAyNM/8ny7YcoU5fSLXI88VSTnd+zf3/ShrQx053zygCPnkwen1uuQp3EM48cry5Drc55ecp2fiMhVY00NGvLy4P/EE8pnjI2FhWgsK9Omuoc8peP35z/D98YbYf3nP+FIStKmnBhehoGI6PcQncQz8TIMDH0iIh1x6y9yiYjo9MbQJyLSEYY+EZGOMPSJiHSEoU9EpCMMfSIiHWHoExHpCEOfiEhHPMqr6vjjLCIinfCorLYz9ImIdMKjxlrP0Cci0gkPay1Dn4hILzxq6xj6RER64WG3M/SJiPRChL6DoU9AVRaqQvogRBs9Lr9nHiI6pTzq69nTP3t9i8TkWvgEAY66Avh1fgz9Qn20aa3kfov0nrMxQBs9LkeZpzTrbyjwHARfRxoaAp/D0KgjrPc3yYOxBOjauYc2TkS/FU/vnNW+RUbebPRXMrIOmdnfoltYH2SW/gyrYyR6DZqJhvz/Q0FNA/waO8Ew+B5EFC5Clrkanv5XYFC0AQWHf0aFRwS6drsf0YHqcopbzHM7QvI/QH6NEYbQZzC8i3rz+tK8b4EesxGJA6INQCePVci31cMQ8iC61n/evI6e1chPPwxzw2E0+t+CUT2jUJTzCYptdrG8WzA8JBUH8+Jg9RyGnqGlyCiIg0+nhzA8MANppljYPCdjRL9L4aeslYiORYQ+v6d/9nINfZcgdlSiungpCnzC4WG9DgN7+MCR+z9kRXujoVAdR/GnOCTC3lHTG/16joSfl7oMOL5FmlZHmafnH9FfFNutmUgtisPwPrOVampPfxj8HTnwCHsKYdX/Q4OoG+Uyv7IOnwB4msV4T7m8z3E4wFvM/UcMjABs2Z+iMMCAGsdEDO7aCwbtANK/x3BlHbCXojL3J5T2u1tpAxEdm6dM/NPxYcyah/jU15FSWtLu9MaCBUiqaKfc5aEsI20Bsirr2p1+PI9i43pUt1N+5j0qYHIY4Mj7D9LLq9AgyxxVcMBHme7p4Y3G+ubxRi8feHhPw9Du3VBR/G8cKtG2oUsdZZ7alTiYuQtVDlEgpzsf3iPRrdfNGND3KfTvJMZFXQ9Z3nodYsDDQ1uetx88ai1weKrL8PYUB4LOt2BIWD1Ks99FRpVaLl9LZtZ7KKyxauOnwyMV6z77H75ZGY+C+vamt37EIjZWHNhqa9uZJh6xK7Eyv51y7ZG3cqVYQuvyehTsXI6vvvoVB2oqsH9/VqvpbR95ohHiONr+tANrsG7lLqRb259+dj1qkbtdbrtvsb3Fdq9C7LYEiE2gjcdipdgxmfv3o6K+FuLNq0vdM+Ph9cILf3tRPJ92iqqrMLzvXASULMJhv66wil5fZpUVYaEW5KV/hVzLPtQHzkCAaSHSS3bD4nUB6sv+hcwSm3j73095u68so89oFBdXIdC6EklFa2BpHIya4v+goKqT6IXGIqVgNeo8L4RHWfNy/Ku+wgHjKtgwESEoFcG2B4e0eqG+avvODMkoKNiHCmsySkp3ILDLnXBUbYZXQDdUmTagIfiP8Kj6HvU+BhSVxsHQ5SYYKr6DtbEB+aX5CI/yg7nKEwGGYtTUj0REoOjue4XDVOwyT6A/LNYohIhtmW8zoGe42gu3VCUDIcMRoIy5jHv1hMV1Hd19UJyXDG//WhSYGxDdbSBsxXtQhxxkVXuij8EKU10QfBryUWcYivrqHfDwjURNZS58/R0oLU+FZ+eLEK6t59Q5BGPNNbi6VyriLX3gmfoDtm7LhaV7V5RsXY79uYGIrE3BfvSAf8JO5HV3wJxmwP64NWgI7w9HxhpsjslFbW9v5KzcgviMHNj6nYeotJ+xaW8aqsIGIlpuzJoErF8eiwNZJgRf2AWmVZuwJceGPn27iENpIXbt98bVMyeim8EPlZXFQG48NsbHYl9yEfIPZcLSox8q9+wEuvsjcVceAuur0djTgCzncqJEyK3egUONUehal4VcYyMCBvSD5/5W7TjbJP6ENb7X4qbLR6JncCpivt+GbI9e8Mhci8O5dajr3h91CWKfxh1Gjq0fxvbwQHnWJmw4GIhwRzI27tgnkqIHeoW747OrjuX1/AsvnJahXy5ColPIMBiqNyMf4tm6D9Z6B/w8S2HxvxdDPBNR5BOBuroeGNy7F0pLyuDXsFf0AYegc1hPGOQyil5ClskP4V2vFkH1Ciyie2tp6IOghv2o9r5Q/GFkiz9UB4I7+aHc0rycQO90lNWlwtFwDXzrd4iAq0WlUm8cguSCzxjDEBUpwjp0BCI7nY8Q0faQMHEg8+uGThFXIcI/DBHh5yDQJwqdIicgVER0aOhoBInpERFjREBHIjAgBD7+oxEe5Dy/02oenxGICusG/6DR6BE+TKsDBIh955oNzeOt1iEOTNbaWege2Q3hYf1h8OyKMBEsgX59EdVpELx9uoi6IfAPHo0w3xBEdBoFf0MnhMs2iDoRnSdCvJE4DeRix7KN+CU/CNdd5oVdq/bBbCgT7xJHo1PlARSFDMTwmiTs9Bf7JHknjMODgYKhCAytxNhhPWHOPiT+rZrRIP6NN/SfjCsCsnEgJAi20ghMnhyJjD1V6NU7FIhLRd7kyRiZLwJ4cC84UrJQXt2AiOF9xf4LRq8etdi3fBUOBI+E3XgIfnYfRF0uDsSmcFwyyCJ67eKgK9bvN7wzDuwworv86lW3Tih3LsdqQfklk3FplHdzmyKDYWrdjrNNxgEc6DwCw5SXdgg5ZZfgonFGbG3aj1Gos0Vh8pX+yEwOQZS3EZ7RYuOJv6+K/CxcMvlS5CTHi23TU1nc6cyz3f7/6fCo24a0nPewxzYUAxyrUOF9AXwaLYC/F2pKlyGzJgse6A5v2woczvsFVk9fOLyvQOeGDcgza8vwn41zBsxFN9HtDzEMg1/gZYgK9kaj71SE1KxEVr3YeSG14p2Ap8tygpBXWYlO/t7QzliIt3DOekd5v83H73z0QqB899TutDPr0ePcO/DoubXYeDgMXbqEIbrveRjatwINnc9B98w9OBjpBVtaMrJLms8JeJWXINV0EHuzgjEwuBF1oV4w7tqB2MwyeDdGwKckHju270O5X4Q6T2QVsjbtQ1q++Fs4HI/s4IEIbqjTlpcvgjwHVi+HCKjmdrV+dPayIj05G6WiGUqZ63K621CwZhcSM13a1F47zrbHqF5o3LgKMZvjxDtMsV88vUV5hMt+jIBn4W7s2J0Fk+z/yHk8a1GWlodONbnYsHczCqw9Wi7zNH142Gp5lU0iamZLjEFC9MU4X+Q7nX08bLZahj4RNak1i7fKwcE4oz6+ouPG0Cci0hEPq83G0KffLbdkKQ7m/AN19WXw8Y7A0F7Po2fnm7WpRHS68bBaz77Q33JgivJ80fDVyjN1nF/3jFAC30kG/5Vjk7QxcrfCwkLluVu3bsozdRy5revqauHj43tWbe/T9sdZJ/Jwam8aH+59tKe9eny45+HU3jQ+3Ptw1d70M/XhYbFY5TPR7yJP76TkvdJ0emdIj+d4eofoNOZRw9AnItINj+pqhj4RkV54mKstDH0iIp3wqDQz9ImI9MKjorKGoU9EpBMepgr29ImI9MKjUdCGiYjoLOepPRMRkQ4w9ImIdIShT0SkIwx9IiIdYegTEekIQ5+ISEcY+kREOsLQJyLSEYY+EZGOMPSJiHSEoU9EpCMMfSIiHWHoExHpCEOfiEhHGPpERDrC0Cci0hGGPhGRjjD0iYh0hKFPRKQjDH0iIh1h6BMR6QhDn4hIRxj6REQ6wtAnItIRhj4RkY4w9N0k+bUH8OpBbaQjHPw37n4tRRns8HUR0VmLoU9EpCMM/TNSfwweqg0SEf0GDP0O9yPuHjQM/bTHJO0UjTxdM8mlvGna8gdalN29XK1OROQODP0Otuy+1ZiWmozD2uM9rMAyWf5/GXi0qfxVXDLpVWx+eggwY1FT3cOpyzBw1b+RrC6KiOiEMfQ71I9YuTkGT7j03KctWYtD8kPYAf0hIv4YhmDwAG2QiMgNGPodTfTgm3vu8vErnhkKzJwOPNh0MBDvBj64Tq3f6vTOE2vUYlfDnn4SM7VhIqLfgqHfoa7DNKxWTue0cQi4+kfngWCRFuI/4u5VU1wOEK/iEqWciMg9GPpucxgfXNfcQ+836Erlu/QzP5iClS49936DHlAOAsmH1raqL8uvwxMD3nEpWw1cpS7d1bL71GUTEf1WHo2CNkwni/yh1U/X4iP5wa2TKHv10JN4ZoY2TkTUAdjTP0UGDm71Me6hDKRpg0REHYU9/VNk2X3D8MRmbUSSH/g6P8wlIuogDH0iIh3h6R0iIh1h6BOdCJernxKdCRj6bvUj7r6Ml01QuDMM5TebTsI1iJbdp36d9viJ/f0Q8ITrt7COx3LxeviVWzpFGPpulPxaKqY9IqLgDPiDXrb8R22ogwx9suVXUs8AMz9w/kjueF2HjzY8iWHaGNGZgKHvNimi3zcIM2cMAn5y9nBbXmGzn/NdgOulFprKRM/4viuVMnm1zeTX1GHlcV/bgJbf/nFOV6/EmYJXL2tdJuq99oB49+Es137UJdb/xFPPtBh3ztd0FVAn2WO/rLktd7/mcnVQZ7tEneYrhmq9ZWfvvL1pTkeYr936q1y2mct6XxW986Yy13nb2WbtbncXy8Rrk2XLxLZvWo6o92rTtnb5UVybZYnt/5rLOkVblHc6x2oT0ckmv71DbvDD/Y1zflAHv7/3/sbv5cAPrzf+M1kpamxMFsPK9OWNc+5drhQpRPmcfx1U5r9YPrfjwL9eV5fn5LIupwP/ur95XYKzDd/fe4VL+fLGfyrrOCienW1o2Z7Wy2lqn0LMd+/rjQe0sTbtkpyvU3tuszwXbae1XH5T28SyLnbdZs7X36K81bxtttERtruL78XrkfM37T+pxXKc2+9I+7B5f6vb5ghtcv13QXSSsafvJstWxWDTU2qP7onNMVgpe7mi15/mvNTCdRkYLH9tezAVA6e6fB9/6LUYKC/Eg/64enrz6RDXnv60JRlaqSr5UH9Ma/XL3RQx/3UuN1aZObW/djXPK1qUtyHak7FZ9vqd64pBmmyOixY/JBswqO3pDNfe7HUft/iR2bCnHwMe0qa16um2nSZWPOBal+Vfh2kDUpXe99Wu22xwf7HNVM3lh5C2+WNMc7bjqRhkHHJ513LE7d6OFldAFesarA06HWlZTe/yfhT/XYuZx2oT0SnA0HeLH7ESrlfTfBVYpQbctNedZdr54qHiQKBNU8ngaZ0qMjTeblrefyZpxZphgzPUg4qLIcho8VlCsljscd1dS7Tn6nuWNa1LPj76jZeCWPYT8J5z/tcv1kqdhuCZDdq0qamtPsBsPU1sh/QVLqddUsTWUQ8yaa5h2d4mEwUD72l5RVPl/gROx7Xdj9MRl3Wd+G8Fli1PBZQD+DHaRHQKMPTdIPm11Rg4z6Xnp1w4bTVefXc1ntB6/8292evw0dTVzWWDVmNwmyC4DoPTZzbVeSujv1aumbEI01Y551fP37foNYvHg0pP80iGiDWoF3ab9NpgMfxI03xtzrsfh5niINTUm337cFMvXGrx2cTb4pW5HIjaThMHgXmul5x+RISntl3XuLRx1SDl8tQtiXkHu27X1helO57tfryOvKxh04G3ml7nMdq0/IG2n6EQdTD+IrfDyA/2DuGZp5sPBvKDwiFP89seRHTqMPQ7kOzJTluSp40Bl7z+20+dEBG5E0OfiEhHeE6fiEhHGPpERDrC0Cci0hGGPhGRjjD0iYh0hKFPRKQjDH0iIh1h6BMR6QhDn4hIRxj6REQ6wtAnItIRhj4RkY4w9ImIdIShT0SkIwx9IiIdYegTEekIQ5+ISEcY+kREOsLQJyLSEYY+EZGOMPSJiHSEoe8u1lxsX/kt1h0ww64VHY+4xa9gRYE24mYFK1/BonhtRJGCLxZtRKU2dkSVG/HulynayNFZc3dixcqdyLFqBUR0WmPou0Plz5g76X58U1KDmBeuwvWLcpRiq6kIVeIIYDUVwKSEog2mfRuxdH2yUi7lxG5GkmsKKwePjdhrsqnj9iLEivEkbQZ7VZGyLPlsdC5EY69KxrqV8TBqxRUHNmN7sihbnwo1k6Mw6pye8JGDrZZr/fnPuOqFLWo7fXpi7Kgol3WIdhepB7OW6zAhZm08ajKWYPa8n2UBEZ3mGPrusHUVNo6+Hwvm3IX586ejYlOM0pte/fTteCddPk/GE2tkxSzE7i1FzU+P4ZYlhbKgjWWPzMIb+3ORklwsxqrw5Zw5+LQkBf937cNYJoI27b3blWXJ55vey1BnkiqX4o7JryE++wPccNNHcL552L9mNXZ+cDvu/qpKjG3Bgmd+QGab5VYhZs1elObvw8ESUS3rBzz99hYY0hfjhj99j7Jf/4opr+xsZx3huOr2a2Dbm4vRV10oV0dEpzmGvjv4+8PXbFaC3l5gREVwMELVKS3FfI0Xv/oeWRZ/mCvbP8ky5cm/IGrTe1i8pVSMFSCnoFq8G0iGz/CeMMhAPpKCXBQMn455D03B4IPxcJ7VGX3dI3j6hpFisus5pNbLDUHP6EAEDb4Cf+ilVZHG3okbzavxzLfJuPzWK2Bobx0lySi+YgEWzwhXZiGi0xtD3x0uuxePNHyISy+ciHF/zcCdj16jFEdEVeO7ebPwyYFgZRywos4G5FfXwFnS2qbvf0JjtwjUV1vEWH9MmxoBswh7q+j4+0cDYVER2PXGDLy4rhre6iyqAVMwrWwhpk9biKRrZ+FqpdAb+96ZhSvfPIRzz+uvlKjaLnfgiIEoXflXvBmjVVH0wozJ5ViXfBFuuECMtreO7J34YYd6OouITn8ejYI2TCfKnoRXr3sQmXN/PA17vlUwxn2Iu55y4P82PIlhWikR6QtDXzeqkLR6DYz9r8XkQX5aGRHpDUOfiEhHeE6fiEhHGPpERDrC0Cci0hGGPhGRjvCDXDcymUwoKSlBdXW1VgIEBQWhc+fOCA/nj5eI6NRj6LtJXl4ezGYzoqOjERra/HvcyspKFBQUIDg4GD169NBKiehIEhMTkZWVpQxHRkZi3Lhx8PFRrhhFbsDQdwPZwy8qKsLQoUO1krYOHjyILl26tOrxO1BnscEu9oCHwQ8BPl5a+e9RDWOBDeHRkeoF1dpTW4EKexjCgrTxE1KPujoP8cco2uyoQ12jD3xa/ESY6Lf77rvvlL8nVzLwb7jhBqXjRCeO5/TdQJ7SkT38o5HTZb2WqlFqkpdbcBJBarPBUmNBXX2d+uzQptTZYLPUwKIVOOpE0NZZYKtXRlFfUQOPgBCoh4162GpqUGOpg6O+BNnZJep8XgYYZDDLkBbrqamxob5ee1bmE8Q0i5jXudwjK0F+vnYaqzof+dpLc4g21TTNr7bD2WYxVRzkRLu0hdfbxHDTurVpznGtHc3z0tlO9vCdgT9ixAhceeWVynCd+Le+fft2ZZhOHEPfDeQ5fNdTOu2R013P9Ts12C3KKSBLnYzrEuRkl6HeUYLD6cXiuRR5efLqmGJKViZKRBpW52Yiv1bmbDoyS9W4FIXINfsjqDYfuTJ8jbnIr1EniT8ZEezaYE0xisvFswjpzEJRoToPqTlmUZ6PHKOs4EBxbr44FDlQmnlYtOa3qkJuXhmcbx2rc3NRIjLbnC+elfFsFIq2q2phtYmJog3KuqtykVfm8qbTahM1HCgRy1C3AJ3tnKd0JBn08rSoU3Z2tjZEJ4qhf4p5+YUp7wIitVMuXj5BCAnxga9vsHgOhb+PFoQGPzEeiKgAL+WibYA/QqJD4Cd77uY61DZUo9LhiyB/Md65CzrVFSLPWIF6b094evq0OXXk4xeBQD8v+Pt3RmBUAPyV1VSjptEPUYEh6BbogZqmtLWiJOcwDhdUaOOSh3i4hLQiBD0iDSjJz0epOKaY62rRUF0Jh2+QaK0Yr/dAWKdAsV7R6NpKlJWVo1L0+pUTjCE9EGmQ7x5KIY9XlRXF4mGB3dHYZi109ouIiECfPn20MXInhr4byG/oyN760cjpsl5rDluF0qMpqmjqArev3oKyvAJk1XggpPViwgPha1e78x4yi8U7ihrPAPh62GGHLzzqTcdeviIU4YYaHBa966waL3QK0YpFZHfu1Q/9osO0cakT/BtKkCXanlXcAH/lo4oaVFY3wNffGw21DtEsX6jN8lAOEeHiyFKSXYDcYrGt6sUBAQbxUA8fqKlEdYMv/L0bIGZFXX2jeC12MfFEPuegM4kMeid5Ht/1HD6//eY+/CDXDX7/B7nHrzAzEwF9+7Z/nX6is4A8pfPVV18pz/IAIIO/sFC92dC0adOO+bkZHR+Gvpt09Fc2qysqYAgLE/12orOX/BuSH9o6z+HLTtKECRMY+G7E0Hcj/jiLiE53DH0iIh3hB7lERDrC0Cci0hGGPhGRjjD0iYh0hKFPRKQjDH0iIh1h6BMR6Qi/p+9G/HEWEZ3uGPpuwjtnEbkH75zVsRj6bvD7L7jW6s5ZjWb33NnKrXfI+g3kDVnkJTI9DPAL8NFu6HIk9aiv94b3se62VVmAXHskekYe+4/eZDTCt2tXBGrjdObhnbM6Hs/pu4Hb7pzV3p2t1Cmt7jLlcoetphtLudyVyrkcocV8v+GOWS3v1OWAJScbuS7LaffuWiVlUP5ca4txOLNYzKVS2iDv4qWNq0rE9pDPR75bmFxPud0H4WEy8OXtGdUJ8q5h7bWj1mptfj10xuGds04Ohr4bnMids5w8PUW/2OXOVofzzSLUipCdJe9k0uouUyIwszJLRMCZkZOtFLS8K5VzOa3nO447ZhXn5io3MXHeqcsswl5WsTXdfutod9fyhHdgIAI79UBnsRRlmryrl3r7LPWuXm0c6W5h6nrs/j4oV9bjUG7OUi3+y8+XY23bTGc23jnr5GDon6Z8AzojMMQHnvLsW+u7TAkGvxCEBPrBy0MtaHFXKqd25jviHbNEL7q+shreAcFQlqDdqcvPywON8BLrkYHuJ6Yd6e5arhzicCMWIQdb39WrHe3fLaz1enwR6eOAqdQEh08kfNtrM501eOesjsPQd4MTuXOWh5cPAkXv2DWr22h9l6l2tLgrldNxzKcKRXiA6M2LDrnDw6Pda/b7iSCuzi0VUXuku2tJdagRvbOcwxmwBHSDch+k1nf1Om5t1+PbNQB2ox0BXWULj91mOrPwzlknBz/IdYPf/0EuETnxzlknB0PfTfiVTaITxztndTyGvhvxx1lEdLpj6BMR6Qg/yCUi0hGGPhGRjjD0iYh0hKFPRKQjDH0iIh1h6BMR6QhDn4hIR/g9fTfKLf4OGQUfobRqlxiTm9UDkSEXoH/03egZNUupQ0R0KjH03STh8AtIzXtHG2trUI+HMKrfy9oYER0J75zVsXh6xw1kD79l4Ds3a/PmldNlvZZqUW40olA8ym1a0Qkwrl2ATxO0EUUavvtsG+TVj5ummbfh42VpylSnfV8swJoibaRdCfj0/9Yp19Un6kjyzlk7duxQLrQmH/IAIC/CJq/JQ+7B0HcDeUrHqU+XW3H9xHzMutikPMtxJ9d6qk146YZn8eHPb+KPN76J/UpZLfLj1iEmQ7sjir0a5dXVSN+5F0X2bLx72+P4sqQadmVSLmLXrkNsgVq3KnU3YlNTEbP1MNRjSGcMG9kNso8kp+3NFwOGbhg1tLMyFbbDSt3D+3YjRR4ZbBVI3LoCMYfU5Uu2jK2iLZnYuz1VOXjAXoy9a7cipZr3qCL34p2zTg6Gvhuo5/AlT5wz8D/w8lSv7i6f5bhzMzfXcxWKbqO6IazGrITq/jfuwCOryrD1Hzfi7ztFQdZnuPe6B/Da9jI0Fm9ETGYlDifmwyomWdMSkGpNwfsPvIYtYlw6sGkD4r98BI/+IHtGu7D4lV+Qo05S5f6C+UtkO4rw+UPiAJLwK9YkqpOQm4gEkwWrn3sMX8ief9H/MPfhb7F/zQbtgGTGd4//Bd+UZWDR7c9hlfPIQOQGvHPWycHQP+UqUVjQH498/CwuEmN5hcAfbroJs84NRNI+9Y+g/pzb8cG8yejavRu6it772MsGI0SE9soPPsbKnaJnVF+j9sKF4Vffiz9PHQxjwbFOxlTBVDkE0//0AKaPVEt2LH8L368QBxR/C6rkAqvKUTnsGjz8p2swWqlhRL7Rgrz9aTAM6QbvlvevJnIb3jmr4zD03UB+Q0fVgL1pT8DRoJ5ukc9yXJZLzfVciRCffi0m9FJvnTX+8gFY9/e5eP6XEMyY1voffT8M7JmCT19YgUwx5qi1w2G2oKbprlteSPpoLm56PxNjxvTVyo6kL8YOT8GbdzyOpYe81CKbHTYUo8YSoI73GY0Rye/ijw9/j4PKOvriyslhqCkVVcXDv4tSi8gteOesk4Pf3nED+QHtrpS52pgkj6Uy6J3PqguGLOZXN4mOgHfOOjkY+m7Cr2wSnTjeOavjMfTdiD/OIqLTHUOfiEhH+EEuEZGOMPSJiHSEoU9EpCMMfSIiHWHoExHpCEOfiEhHGPpERDrC0Cci0hGGPhGRjjD0iYh0hKFPRKQjDH0iIh1h6BMR6QhDn4hIRxj6REQ6wtAnItIRhj4RkY4w9ImIdIShT0SkIwx9IiIdYegTEekIQ5+ISEcY+u5izcX2ld9i3QEz7FrRqWFH4ifP489vrEWZVuJ+JmxZ+DQemL8KBVrJ72I3I2n96bDNiPSDoe8OlT9j7qT78U1JDWJeuArXL8rRJmisqVi3PhUmUxGqZLqJsDOabOpzkTPwbDi0fhW254pyF1ZTAUxWMeCcR5bl7sQKsTxZLNmrkrFu5U7kyALLYRT5jMD4zmVILFSnO1lTN2JdqgkmbZ32qiJl2fLZqDRMFhYhduVGJGnjVpMJVcZ4bDtkUcYV1nVYtLQel90yHtGi3aZ9G7F0fbL62qwm5OcXiIf2Wlu/LvE6TFVmHIqJRe6hX7FebKq1T9+EBenqZCLqWAx9d9i6ChtH348Fc+7C/PnTUbEpBpXaJKAQi2+9C0v2rMBDV9yOd2S4pS/CTU+vUZ//uAhpoij+pZl4frcFqx6eiVcPKjMq6n55Bte+vgfZi27FnV8WA3texuR7lqF40zOY+NRWccBZijsmv4Z4Sw6yxWSkfINXf8qGV9q3ePmzFHUhUsFHuPm2TxD/4+O4VFtn2nu34wnRDPl803sZoqQKX86Zg09LUvB/1z6MZSK0Vz99KSY/uAiJ1QHKYqTKjEyU1Vchv7hGjGUhdm8pan56DLcsEUeZkkPYsulDPDjz71gnjhNtXpd4zbMvmo0XNhXDa8QNuG1gEpI8r8TVvZVFE1EHY+i7g78/fM1mJejtBUZUBAcjVJ0iVKKsYhRmP/kXzB6rFbUjO68IZQdjUBbdH51cOtWhs2/DmG1L8Mq6EPzxjl5ATj48LrkD99xyIYL2xSGtIBcFw6dj3o034iIZnGJ6kSkFm8qiMdB1QZVlqBg9E08/ORPjtKK2CpBTUI2c2GT4DO8JQ4ks64Lr//kBHnCZKXTEEEQHDsJVE3oCMV/jxa++R5bFH+ZKsQV6DYaPOOhFPvNPzBQbob3XVX/+g/jmb1PFuwQgMzkM8z5/DCMN6jQi6lgMfXe47F480vAhLr1wIsb9NQN3PnqNNkHqj/NHJ+A/sx/AB/u1otAoRO5egCnz16PaWy2aNPVCNMrTN+ViJEItUxguwfQhO7ExeBqul0eSi6Zg2M9PYPq8nxB240wMHHAuzj20ANOvn4Z5v6jTJzSWw9p6QaLemP0LMPO+j+FsRlhUBHa9MQMvrquG2oz+mDY1AmYR9lbxrsFfpvIxWVEnmp1fXYNgORrzOl7aHwyPX/+ORfFHeV2KEiSIA0SicnAhopPBo1HQhqmDLbvvShya9yueGaoVnBI/4u7LUvHEhicxTCshIv1g6J9EOdvXoGr4VRjRfO7nFMjFttVVGDFluMspKCLSC4Y+EZGO8Jw+EZGOMPSJiHSEoU9EpCMMfSIiHeEHuW6WWfQl8oq/R1H5JnTpdAl6RN2Avl1u1aYSEZ1aDH03sdTmYP/hF1BSvhV2hxmNjfXw8PCGwSsYnTtNxOh+LyPAt5dWm4jo1GDou8n25DtE4G9WAr81NfgnYcKwz7QSIqJTg+f03UCe0imt2KYFvgf6dLkVsy42Kc9yXJbL6bJeS7UoNxpRKB7l2kUoT4Rx7QJ8mqCNKNLw3WfbUCWGmqaZt+HjZfJya832fbEAa4q0kXYl4NP/WwejNtYee3WJ8joKjRU4rpdir0bK1hWIOXCE+vYU/O/VT7Db5fJBru2o2vY5vmv5Mo5Ktq+kul4bO15tX3fzepunpS77HFuajvVim7/6Lja1c2mJlvWITg2GvhvIc/jOHn6fLrdgQPf7lWH5LMclOV3Wa2kTXrrhWXz485v4441vatfEqUV+3DrEZNQqYzIcy6urkb5zL4rs2Xj3tsfxZUm1emnk6lzErl2H2AK1blXqbsSmpiJm62EtSDtj2Mhu8NGm7c0XA4ZuGDW0szIVtsNK3cP7diNFHhlsFUiUQXxIXb5ky9gq2pKJvdtTlYMH7MXYu3YrUloFaOanj+KO11Zh5dsP4Lon1sCklcv518QVtgr2PHx83614UxyEDm3aCHkhant1BczVh7F9r7xUKGDatAKpQy7HKO3inq3b4RM9AsPky7CtxxO3/QfbK9RtYK8Wr39tAoqdL0Aj23fvp5liSBxoKyrENt4qtpvzWdvWgq0gHmuatl+hWF8SUkSdvcXq621arzJNbUvnoSPQXblgnFj2xrXY33sSxoVp4xXVKN4fhzSra73W6yE6eRj6biA/tJXn8KVzBy9EWNAIZVg+y3FJTpf12gpFt1HdEFZjVgJk/xt34JFVZdj6jxvx952iIOsz3HvdA3htexkaizciJrMShxPzlWvpW9MSkGpNwfsPvIYtYlw6sGkD4r98BI/+IA9Cu7D4lV+UUG2S+wvmL9klBorw+UPiAJLwK9YkqpOQm4gEkwWrn3sMX8ief9H/MPfhb7F/zQbtgGTGd4//Bd+UZWDR7c9hVatgDRhwMe7754u46vAK/CpXn/Ambv3PPlg3/A23vuPSLc/6GSurr8Jf/nQt7nvoegwSRZmfPoxr7nkT20oblfnuW+aP0Wnz1fnatAPI+fnfWLxDHMx2bcF+kxGJaaWiecvx5xvfwf68r3D3A/87wjsTcaC99mEsSliHf9ykPd/7NuLlJLHeWfNWo3T7q5j2stxGQlE81os6L967UFm3c72uti/5N1bkyqEc7C/qiSEHX8ED/5MbUKxrxh34yyeHUOPvUq+99RCdJAx9N5Df0pEf2kpxhx5GRXWSMiyf5bgkp8t6bVWisKA/Hvn4WVwkxvIKgT/cdBNmnRuIpH1ZSo36c27HB/Mmo2v3bugqeu9jLxuMEBHaKz/4GCt3ij51fY3aCxeGX30v/jx1MIwFRzsZI1XBVDkE0//0AKaPVEt2LH8L368QBxR/C6rkAqvKUTnsGjz8p2swWqlhRL7Rgrz9aTAM6QZvZ3felXgnUFwTinB5yc18I0rKD2NbeRf0C3Xe8kXw94efpUYcQlw5MO6uhXjyii5t52vTjmYh0VEICOiHS8/rLppXAOOgK/DAnEsxIDUJLc50ueoyHrffPR59O5+PW+RzZal6gBDr9ZgwC7defw4CD+yHfF8Apc7NmORtFO9PjmHnT3j9h5+RZ/VDtVnbI5GT8cKbt2KMOqZqbz1EJwlD3w3k1zLlh7VSVtFXSM9/XxmWz3JcktNlvbZEiE+/FhN6qQeN8ZcPwLq/z8Xzv4RgxrQ+SlmzfhjYMwWfvrBCCQpHrR0OswU12uWZAS8kfTQXN72fiTFj+mplR9IXY4en4M07HsfSQ15qkc0OG4pRY9HOqfQZjRHJ7+KPD3+Pg8o6+uLKyWGoEZ1qm3j4i3x2ZVz2F1w+/W2Ybr0dl8qCCy/DeY3ynL2800C4LFF1mYE7x+zAX6ZcjyunvoL1WnGT1vO1aYeLPoMxoHwj/v6h6DH3uQxXln+CO+74GAevvEZtw9F4eokt5kKsd9D6f+D2F9chdPo14tUKprV46fYX8VOnMRilVDqaWtTVAoU1FgRpJe1qbz1EJwm/veMm/PYOEZ0J2NN3kzH9/4Go8Evg492p6VSPfJbjslxOJyI61djTdzP+IpeITmcMfSIiHeHpHSIiHWHoExHpCEOfiEhHGPpERDrC0Cci0hGGPhGRjvArm25WVlYGk8mEqqoqhISEIDw8HBEREdpUIqJTi6HvJnV1dcjLy4OHhwdCQ0OVsJfhX1lZCbmJe/ToAR8feZFjIqJTh6HvJhkZGfD391fCXoa7p6cnGhoalIOBDH+r1Yr+/ftrtYmITg2e03cDeUpHhrwMfF9fX2VYks9yXJbLYVmvJQfqLDWoqbGgzqEV/U4moxE12rBUW1GBavFcI8rlFZCd481MMBpd52itRkxv79rJzRx1FtF20X7bcdyRqt6m1q2x4bfev6o1R1kBCtpe166FavF6m2+N8hs56mAuM8JYVn0Cba1HtVhGQXE5jmfz/BbHem2/ab+IdtYfT7XKAuSW1mkjR3Osf1d0qjH03UD25OUpHdnDl6d3XMlxWS6ny3otVaPUJO8HWI3czHz1D1kEjkX8wTr/Xh3inUKd+CO21TtgyclGrjM0tRB11qsV7yRs4gBi0Y4eXgYD5GXf6kW5XK5zXKq3yUCwincf6szKuEsYK6FhsYnpWrS0apNTdakJsvWOqhyk5zkPKfWwibrOdjQpKWu6m5YkX5dNaYcIHe1Zm4A6m3xtzvbUK++WbJY6cYiU0y0w1fsgzF+ZqLZVaVvL7eMtXq+8bHJ9nU3bLmI5LttHUtbrXG6TauQczoXVJ0yso2mLtXxNrm1U9kPztlOJ/ZmeA4tYRniQV3Oottpn9XLf2rQDfptpznbLie2/ttbzOLW7X46wD8WOQYm8tePRXpOYVm73QXiYPD0p94e6HeQ+lHXUfeCsX9v074pOTwx9N5Af2jp78+1xvguQ9Y7OgeLcfBEZDpRmHhZ/juIPOD8dmaXqH5HNpUtWa7WJWtXIy9FuliL+MOUfdHVuJvJFVtcUF6NcnaJoGq/MQnax+KM127TeovgjtYnx6jwoi6otRHa+CIp6caBR7ozV3Kbi3NwW7ybg4QWfwECERPVGgL1UuZFLtahTIhefL57VWpp61FZWorJatlu+rkwUioVV56UiR/Taa/Jz1BuZVOfjcL4ocBQj87A8TJQgK1WuX5JtKEJjkA9KlbZUITevDM7zk67bp1y8XtnWEhGWZeKAUHI4HcXiuTQvT73hTHUucmVDLfnIzHV5VVWlqPfvgahgP/gF+CkHSudrsog2K1VFGzPVxiNVbby67ZzEMux+3cUyxNyNXmL/y1fcdp+VZKVCbmqp7bRMlIiXYxbtlyXtvbY2/wac2uyXtv+u2jjia1Lntfv7oFyZV2zLfLmsauTnizGxn3Lli5DPrtuRTlsMfTeQ39KRvXh5Dr89slxOl/Vaa7CLXlJdEHr27Q5f8YdU0+iHqMAQdAv0QI2STv4IiQ6Bn7cXvDw84R0og6gWlWVlKK8UvSvnRzJePggKCURUgJfosalF7bI0wjM0BIGdA8T6hNpKlJWVo1IcMZRFid6eh18UAkVb/ZT7uYo2iZ5dfWU1vAOCm94ttGSFXUyRyzPX1aKhuhIO3yDRclc+CIyORnSXMHW9YtwvIhB+Xv7w7yzb7d8U3r4BncX6Q+HtoR6WDIHhiAzwEb3b1m0JQY9IgxJCpTWu28eFsl1C4OPri2DxHCrCS1mPWYSoGA+M7ASvepdzRb7eaLS33IBq1UBEdhK9dq2qj18EAv284O8v2hoVAH9n46UWyzDBqCR7O/vMEIjwyAD4eLU3zU9Zp5+Xh2hve6+tnXnacO6X9v5dtdX+a2o9ry8ifRwwiXcTDp9I+FbXiHcq9eJg7o0AeZCj0x5D3w1kL15+S0eehmj9ubgcl+VyuqzXmpdfGKI6yT98ORaKcEMNDoueZZYIsU6tjhF+Po2i11kq/gxFr1kcXwzyGOM8m+SwoiyvAFlWMd/RbtvUSYReSS4Kcs1qT79ehDQM4qEtKigEHjVZKBA9aKvSQRVtChDHAjHs8PDQAlvjsKGiIBfZ6UZ4duqmTAsP9IVd6ZR6NDVNVYeaggIUFMj2H52tKke0rwSNPp20EqfWbakRYdMAX39vNNQ6XLbPcQgXh6QSsZ6sEjT4u6zHtzOCG4uQkSvamleivCtQq4ptW9IA16pH5NsNEV5FSMsuhqmyDg2ecku0s8+aHG2aqu1rO8o8bfbL0f9dHV3beX27BsButCOgq9jjoeEIgHzH4YCHR4t/HXSa4rd33ITf3nGTykxkWvqibzdtnIjciqHvJjLc+T19N6itQIU9DGFHvcksEf1eDH034y9yieh0xtAnItIRfpBLRKQjDH0iIh1h6BMR6QhDn4hIRxj6REQ6wtAnItIRhj4RkY4w9ImIdIShT0SkIwx9IiIdYegTEekIQ5+ISEcY+kREOsLQJyLSEYY+EZGOMPSJiHSEoU9EpCMMfSIiHWHoExHpCEOfiEhHGPpERDrC0Cci0hGGvhvYq4qQn1+gPkw2oHIj3v0yRZv628UtfgUrCrSRdtlgyjfBqo0djT3pM/zjswOo0caPbg8WzV+Fo66aiM5oDH03sOTsw5Z3HsT0F77HlpQSwKcnxo6KUqZZTUUw5cZjXVwR7EqJKMvdiRXrU9uGtjUV60R5auxmJFXKAhtydqzCulRxIGlhDZ649FmsFkP2KhNMpmQxX3LTc5VzRfYi/PRTDkZfOgiBYtRqKoBJrtRuhlEenGRZ6kas2JGrtSUXuzclo0IZJqKzEUPfDUJHXIWbz++GoMFX4OYJPYGsH/D021uUaaufnozZC3Zi+VOz8fIeUbDnZUy+ZxmKNz2DiU9tVeqoCrH41ruwZM8KrJD1hPiXrsGc70qw8anL8JcYtay1tPduxqWPrMbOD+aI5xXi+Xbc878qMaUKX865Ht8ZIvDDbbdisei+1/3yDK59fQ+yF92KO78sVtoy7W+7UfPzY5j22u9/Z0JEZw6GfoeLwqVzHsL9kw3IyxGjOfnwuOQO3HPLhQjaF4c0tZJQibKKUZj95F8we6xakp3nIea9C7eOD8K+2Ay1sB3jZv0FM88Jxejr5onnCBQXyhM0BcgpGIbrH3sQ0wYdRNxecXCafRvGbFuCV9aF4I939FLaUmRKwaayaAzsZFEXRkRnNYZ+hyvGN09chz99F4ELzxGjF03BsJ+fwPR5PyHsxpkYqFYS+uP80Ql4ZdocfHLAWymZNHUIVj0+C4/9GIabZvVXyo7G22DQhqT+mDa1DG9ePwNvHpiKm64URYZLMH3ITmwMnobrQ8W4aMuExnJYUS5GIuRMRHSW82gUtGHqAMvuuxKH5v2KZ4ZqBUREpxBDv4PlbF+DquFXYYTsWRMRnWIMfSIiHeE5fSIiHWHoExHpCEOfiEhHGPpERDrCD3LdKLf4O2QUfITSql1iTG5WD0SGXID+0XejZ9QspQ6dng6lpiIxIQGFRqMy3q1rV4wcNQqDBw1SxonOFgx9N0k4/AJS897Rxtoa1OMhjOr3sjZGp5OtW7ciPz8f559/Pvr27auUZWZmYvfu3ejevTsmTpyolBGdDXh6xw1kD79l4Ds3a/PmldNlvZYcsJkrUVlphs2hFR2NzQhji6uh5SElRV5n57eqgNHY+iJu0u9d3plL9vBl4N90001NgS/JYVkmp8k67bJbUJCeiPQim9iTHaNCvPNod0+lpEBfe4rchaHvBvKUjlOfLrfi+on5mHWxSXmW406u9VRlSM8wiWcTYrckqH/cDhvMlZWwaFfKdNjM4qCgjXv5w99HLbdbxMHCYkJpqRYJreaz2yywiAOKuelooh1glAo+8Pf3UkqV5VRatCuAVjUvTyfkKR3Zwz8SOU3WacORgU1rk4Ho/ogO0IqUfeXclq77wK5s++Z9oW13s3awEPvOZhP7T9t5rsvx8feHsqfEAabp34FQVVra7sGA6FgY+m6gnsOXPHHOwP/Ay9NXGZPPcty5mZvrtSL+oB0+gTCICMjYFQd5EebkXfEygrFr1yE0aNVQnojELPFcvB1bk8Vfv7FMuWqODPSW8wFpm9YipRYo3LYF8vqZ5fFbsN+sVBaykJgo5xRBYxbLKdqBbTq9yKY8h+/aw29NTnOe528hLRcYca4I/AAEBPvBSxwEdsUViX2Zio0xmWqVrRuRXmvHwbW/iH1hx6GdsWKPCuXx2JUitnthLHbJqmVxWL0hHWJ3KdO2NO8oZCUmKvvYZjaLvVuEHXrdUeQ2DP3TgD2vFP79+ogeXRkKzXWw5hTCN6q76I9H4rxhgTiwcydS1HRXlTbA0CsSof26oJNS0Ho+ISgCPSJDEebrrRw0Cq3e6BsditAAl4uy2fKRknwYuRVWNDYdWei4iN59Y7XLSZ2yQjSED0Bo5EhEexaq4e4Xiq6RkQjq1AnR4rlXVIh6AC+sQkVdIXJqw9Bd3YHo3GcEIuW+KbTCu280QkMDRCfAyYb8lGQczq2AlTuKThBD3w3kN3RUDdib9gQcDUqfTXmW47Jcaq7XzFP08CPHjIB3UiyKEYVBnUVnT3QC7Z6e8BN99sKieoR29oXD7BIwvUNQn7AHifE52g1PWs/XVr/IBiTsSsSe9GKtRKirQB38US+ap57s0R/5LR35oe2RyGmyThu9hiE0eyN2iJ544sF8VEcNQoAxBnv2bEaBzwBxuD6Kft0QZpEnZzzg0fovsF8kGhJ2IXFPuvj34FQnDhKAv553FLkNv73jBvID2l0pc7UxSf4ly6B3PqsuGLKYX908zcgPafft3at8aNuer7/+GmPOOYdf3aSzBnv6biCDXH4ls5kz6JsDX05n4J9+ZJjLr2XKcHft8cthWSanMfDpbMKevhvxx1lnLv44i/SCoU9EpCM8vUNEpCMMfSIiHWHoExHpCEOfiEhHGPpERDrC0Cci0hGGPhGRjjD0iYh0hKFPRKQjDH0iIh1h6BMR6QhDn4hIRxj6REQ6wtAnItIRhj4RkY4w9ImIdIShT0SkIwx9IiIdYegTEekIQ99drLnYvvJbrDtghl0rOh5xi1/BigJtRGNP+gxPL9yBGm38WNpbxvHZg0XzV0HOmvzlYqyvVEt/C3vm93h14Xr88K26nGNrXucRVW7Eu1+maCNHY0fiJ6/hk6Tj21IFK1/BongxYDcjaf1v31dEZwOGvjtU/oy5k+7HNyU1iHnhKly/KEcptpqKUCVSxWoqgMkqS2ww7duIpeuTlXIpJ3YzklqErQm/LE3BqGvPQaBWomo7r1PzMmzI2bEK61JtSrlkr0rGupU7kdPu+nOxe1MyKsRQ11Fj0MtH1i9Cfn6BeJggZ7FXZYmD2Spsz3UuU1uHFphVleHo77MFmRHjEe063aUNTtbUjaI8vWmdR6zr0xNjR0Upg1aTCabcnVi3I7fpWXkpgt24Cj9mj8Rlg8WWEkFuLFLb5NzusBchduVGJGkbrOLAZuzOFcWHfsV6sYvWPn0TFqQrk4h0g6HvDltXYePo+7Fgzl2YP386KjbFQGbw6qdvxzsiVFY/PRlPrJEVsxC7txQ1Pz2GW5YUyoI24l+6DZ8FnoPkx2bi1YNaoeJ45r0Gc74rwcanLsNfYkRB5VLcMfk1xFtykF0saxx5GZvefh7fZQGWnH3YsuIVzLp9CTJFueXgHhy0JOHNm5/HejHuXEd2drYyn3dtOcyd/LHjhX+2mN7UBqeCj3DzbZ8g/sdVkJ1t6Yh1s37A029vUQZXPz0JsxfEY/lz12jPN+PlXWKCfG3Tf4Ah8if88aaPUGBIw7s3/hnflK3FE9e+ih2owpdz5uDTkhT837UPY5ma+wrDiBtw28AkJHleiat7a4VEOsHQdwd/f/iazUrQ2wuMqAgORqg6paWYr/HiV98jy+IPc2X751Ky84pQdjAGZdH90cmiFUrHNa8HLhUHnlvHB2FfbIYI2lwUDJ+OeTfeiItkuB3HMkIHd0fmTzmY/vZjGIZCfP/W2/hucwlQX628Puc67rlmBAxHmd7UBqfKMlSMnomnn5yJcVrREeu20A2T730Il/WPEnXlczmM8njlfG0PTcHgg/HiQDIW98wyY+Xz3yPp0ltwlaEAOQXV4l1QMnyG94RBNNFVZnIY5n3+GEYatAIinWDou8Nl9+KRhg9x6YUTMe6vGbjz0WuU4oioanw3bxY+ORCsjANW1NmA/OoaOEtamzT1QjSaRKVyMRKhlqmOZ94hWPX4LDz2YxhumtUfGHAuzj20ANOvn4Z5v8gax15Gwafz8aU1DNnvvq58TlBvq4PDXI1qb3X6uAsi8M3DszD9jveRJsZbT2/TBifRljH7X8OUOz5H0rHqtssLXl7aoDRgCqaVLcT0aQuRdO0sXC2Kek+/HKb1yZg083wx1h/TpkbALMLeKt7l+KvnnjQlSBDvxhJbHQiI9MCjUdCG6UTZk/DqdQ8ic+6PWDwjXCs8+6S98Uf8e8j7WDw1RCshojMFQ59+oyokrd6CuvOnYmyLdyJEdCZg6BMR6QjP6RMR6QhDn4hIRxj6REQ6wtAnItIRfpDboUyI/+E77EivBPwHYsLdo5D+5ifI9omCf2AIzr35Dlx49n6zk4hOQwz9jnR4KZYW34ybL9TGkYpVq4CpUweJ4XgsXRqMm2+Ww0REJwdP73SknqNQt20pUswuF35xsleiwYs/biJqaRUePXc63koVg6lvYfq5j4oScif29DucDfm7V+KnrV6Y9PBwxM3/BEUhneDT/SL8cfaFiOK1X4haScVb02/B57gdX/30KPhe2L0Y+idL6vt4P/dS9LA5T+8QEZ18PL3TkUr34+cfYpCYGIPP1/hi5HlaORHRKcKePhGRjrCnT0SkIwx9IiIdYegTEekIQ5+ISEf4Qa4bLF68WBsioo4yd+5cbYhOBEOfiEhHeHqHiEhHGPpERDrC0Cci0hGGPhGRjjD0iYh0hKFPRKQjDH0iIh1h6BMR6QhDn4hIRxj6REQ6wtAnItIRhj4RkY4w9ImIdIShT0SkIwx9IiIdYegTEekIQ5+ISEcY+u5izcX2ld9i3QEz7FrR8Yhb/ApWFGgjJ+j3Lqtg5StYFK+NHEHlhsX44qA2cjRla/H6a+tg1EaPbg8WzV8F2WRr7k6sWLkTOVZ1ChF1DIa+O1T+jLmT7sc3JTWIeeEqXL8oRym2mopQJY4AVlMBTEqY2WDatxFL1ycr5VJO7GYkVarDKhtydqzCulSbNq6yVxXBqMwkllEkDyx2VGW1DErXZSkhuj4V6iQxj8kMY9wOpFiUApW9CLHr45GasBm7c7WiqmSsWxkPY6sjl0/PMRjVRQzYzWJZJiSt34gk57PzxYj1xH61EcFXTURXMdb0usU8RpP6euzGeNEu5+vPxe5NyaiACTFr41GTsQSz5/2s1COijsHQd4etq7Bx9P1YMOcuzJ8/HRWbYiCzd/XTt+OddPk8GU+skRWzELu3FDU/PYZblhTKgjbiX7oGc74rwcanLsNfYrRCwZC+GDf86XuU/fpXTHllpyixIjkuBTWJ/8XsZzeqlZz2vIzJ9yxD8aZnMPGpraJgDZ646BrMffcAqgPUKtLm567HX3/eieWbtLZULsUdk19DfPYHuOGmj5QeuFPmsuexQLYnfRGuv+JxrNq9BLeK5+Xi+ea5XyuvV7b9r1mDkPei2va6X57Bta/vQfaiW3Hnl8Xq8u/4AsUpb2PKn350eUcUjqtuvwa2vbkYfdWFWhkRdQSGvjv4+8PXbFaCz15gREVwMELVKS3FfI0Xv/oeWRZ/mCtbdO+bZOd54FJx8Lh1fBD2xWZopcLYO3GjeTWe+TYZl996BQwFP+DNBcuxWWRpfXWVVkmTkw+PS+7APbdciKB9cUiTZV2m418f3YtzlQqqsvIgTL73Icy9vJtaUJCLguHTMe+hKRh8MB5HPOMzdiaenjEaYaOmK88RxYXIF8Wt2x46+zaM2bYEr6wLwR/v6KUuvyYXsQcMGNnTGyXq0lQlySi+YgEWzwjXCoioIzD03eGye/FIw4e49MKJGPfXDNz56DVKcURUNb6bNwufHAhWxmXvvM4G5FfXwFnS2qSpQ7Dq8Vl47Mcw3DSrv1Yq9cKMyeVYl3wRbrhAjjtgq6tHVXU1vJXpLi6agmE/P4Hp835C2I0zMVArbm3cuCB88aebRChrB6ABUzCtbCGmT1uIpGtn4Wq19Mi8vWHQBqU2bTdcgulDdmJj8DRcL4+CcvkR1SiGDUUIQLQ6myp7J37YoZ4WI6KO49EoaMN0ouxJePW6B5E590f2WInotMTQJyLSEZ7eISLSEYY+EZGOMPSJiHSEoU9EpCMMfSIiHWHoExHpCEOfiEhHvF4UtGFyu2S8e/+T+GJdLLZu34uGERPQ3yMJy597EI+uKEJ0v3PQL9JLqwvU5a3Ew28kYuqlw+QYvn52Fj74aQd++aUQXaecg4j9n+LZVz/Gpu2VCJ04AtHarHWtyx378emzr+LjTdtRGToRI0TF4jWv4dmFq7ExxYrR4wchUJmzGGteexYLV29EinU0xg8KPEI9IjpryB9nUUfZ1/j55/u04Y2NCxfua1zx1luN6fs+b2wqdqpa1/i/ZbmNSz7/XCvY17hkSaw2LO1rXPjGr421crD288aF75mU0vbK9y18o/FXtaDx84XvNZpE+RsLi2SBqL6wceFGdbD28zcam4sXNm48Qj0iOnvw9M7JUpwHs18nDA3IwMe/5It+fCvBl+Pm63vARxsF7KjYtxIffvghftpbIeonIiBskjrdZyTM5duUWminPDEgDJPUAow0l2PbwTqEXRglC4DRYTBr17g5WBeG5mIzdmxsvx4RnT0Y+h3M+OvrePTR6zH1H9F49N5e6H/vW/jbxcCu9+fhHyuLtVrtORfz3n4R9957LyaXvopX14gI92k+JNTU1GhD7ZSL8aYSMV4jxnxcroxWU1OtDoh6zcWinuUI9YjorMHQ72Bdr3wKb731A94eugsrytUyn4DuuOj+fyG6+Fe14BgCJg1Gz5IeKC6O00pyERY2UhtuW96juBhNJWFhGNmrAsXx2nuLHCPCRsrPDIBeFcVoLhb1Lmm/HhGdPfhBbocqQkICMGpUV4SPdmDpv5IQlPUOXv9iAzZsS8CwGY9irPPTWE2CmGHUqFHiLcIGLPk2E74+mVi2MA297roNo1IW4EtzCCo/2wK/e2cjZMV72NJ9Nsa0Kp/WeS8WfGlGSOVn2OJ3L2afOwYFq+fjgE8ItnxaiAkP+ePT1+Nwxd1BWD3/AHxCtuDTwgl46JJJKGpR78KmD4uJ6OzAq2yeCuWHcRj90K+TNn6ylX+BjzbdiLuvbz4tRET6wNAnItIRntMnItIRhj4RkY7w9I4bLF68WBsioo4yd+5cbYhOBEOfiEhHeHqnAzlsNtjVIdhs6pBTeXo6SrXh4+UwJmJfrutveStgNNq04WMRbTBXorLSorUJyMvL04YkOypy0pFTIaeKukXpSC9xabO9AjnpeTA7xLDDhiLRfmWy67DGXpGD9DyzWIoy0jwfEZ1yDP0O5HU4Drvkj27L92HngWrYLZWwiPC3O6qQbqxGkN3SHMJ2uzgwmGHRwtNut4mQNsPmsMNSKZ9tKKyLwsiuDbBYzKiUFR1e8A80tFNXZrGoY7apwSs5DiJ2TwVQtAPbUsqxZ8MKJKZk4mC+ehApj9+FrE49UJ+8B+kp27DT3AXeSduQokwtxs7NaQjqUoy4XQVI2bYT5i7eSNqW6DKs1kTxTmxOC0KXYvHaS13n+62HOCLqCAz9jhRkgEEkcNoBK3r4J2Jbth0FO9YjoaYAtfDFgV3pIrCTsXV7MUpj12Jrbq02Yyli125Fbm0aYlYkoMwUh9hDWcjKaUR57AZsz69F4batSEnbj8Sa8rZ1k1Kwa79JCfgtyVrs55ejPjwMNdVeCA6XBTYERJ6HQd3V7+oXme0IC3DAYrYgv9QbwwYEI8DgjQY5sTgd9dFjER7sB4MjF6XewzAgOAAGL9Fu57C3UlNUrUf02HAE+xnQUOYyX4M6nYhOLYZ+R/ITvfrCPSgKORd1ZR4YMrQTGr2D0Nkier2+ZbCGj0JkZJAIxHoYHSEYNTBSBK2Yz2GEI2QUBspgHjAGPRsM8LCLeSI7a/WCYDP4wkMpaqeuuRQNfXsjNMwXWhajqggIjEhDhmM0xkV1wtjeA+BdHot92uV1hpw3GLa0LJQF+IqxMESJ9wil4p9HpJxYKhYiLwFdLN4p+Ih3BmFRoo1i5XWi3DnsqdRsUTXc7joSoUwnolOLod+RosJhyQUGjfKDf6MZaQlxOFQfhgijyPw+kfAs3oM9McUIHV6PCo9uImg1+RXw6CZi19gAz65eKJWBLTrsvtH5Wj3xjHBYxbuF6Hbqhg3wR31aInYkeKLXUPU6CgW1HugVPQKhlYnIzNmDdcl5qAnpiSFBcqoNxvwyWAry4TvwXPRoyMG22M0oDe8P055UVHfzhy1hF2KSfDHgnGg05GxD7OZShJ/Xr3l4tB27d+egm78NCbtikOQ7AIO7u8w3mNdzIDod8Ns7OlVhMiE4PBxui+KcRCQGj8TIU3VpCSI6Lgx9IiId4ekdIiIdYegTEekIQ5+ISEcY+kREOsLQJyLSEYY+EZGOMPSJiHSEoU9EpCMMfSIiHeEvconotJKYmIisrCxlODIyEuPGjYOPj3o1WDpx7Om7g90MY34B8sXDZNXKTlDBylewKF4bOSF2HP52Ph7404eIQwq+WLQRldqUE1W5YTG+OKiNHIU1dydWrNyJHDdtGzp7fffdd9ixYwcKCwuVhzwAfPXVVzCbzVoNOlEMfXdIX4SbZv4d32zbhoMlWplGCbz1qWiRd/IgUWRWbp5iNRWhSgzYq7KwfeUqbM9V74RVcWAzducqg2JaMtatjIdRu8GK1WRClTEe2w5Z1AKFDaZ9G7F0fbKyvCb2JHz6TjL6/+kaDEcURp3TE7LPJJdhEm1btyNXa5sdVVktw7ltHefrUdfh03MMRnWRpe3Pq7YxHzFr41GTsQSz5/2sTiRqhwx4k/h3I40YMQJXXnmlMlxXV4ft27crw3TiGPruYstD3KZUmLy1cWnPy5h8zzIUb3oGE5/aqhUKhjS8e+Of8U3ZWjxx7avYIYosB/fgoCUJb978PNartVSVS3HH5NcQn/0BbrjpIxSIotVPX4rJDy5CYnWAWkeRhdi9paj56THcsqRQKxMKM5FltaI0txx12IIFz/yATFG8+umJuP4/KVj7ygz8dYOsaEVyXApqEv+L2c9ulAVt6zhfT04OssVo5rLnsSBG1mxvXmcbu+Oq26+BbW8uRl91oTKNqD3OUzqSDPqCAvmvXZWdLf/FkTsw9N2l0wW477l7MamzNi7l5MPjkjtwzy0XImhfHNK0YmAs7pllxsrnv0fSpbfgKkMhvn/rbXy3WbxNqK9uefqlIBcFw6dj3kNTMPhgPNQzPl1w/T8/wAPjlBFVzNd48avvkWXxh7nSZQm9hmFIYDdcMGU4QrUiVQ9c/cBduPOiCJirxGjBD3hzwXJsLpZNkAVSqzrO1zPnaoyUN3txandelzaWJKP4igVYPEO5ZRfRMUVERKBPnz7aGLkTQ99din7CvBtuwIuu3fSLpmDYz09g+ryfEHbjTAzUiqXe0y+HaX0yJs08Xxmvt9XBYa5Gtes7BWnAFEwrW4jp0xYi6dpZuForbsuKOhuQX12DYK3kt3HAVlePqupqtG5Ck3POR8R3j2H69XPwTrpWpjjGvNk78cOOHG2EqH0y6J3kB7fBwc3/ksPD2WFwF357h4hOC/KUjvzQVj7LA4AMfvlhrjRt2jRER0crw3RiGPpEdNqQ39KRH9o6z+HLHv6ECRMY+G7E0Cci0hGe0yci0hGGPhGRjjD0iYh0hKFPRKQjDH0iIh1h6BMR6YjXi4I2TG6XjHfvfxJfrIvF1u170TBiAvp7JGH5cw/i0RVFiO53DvpFeqlV6+Kw9MV38MGPP2GnZTAuHdYJxWtew7MLV2NjihWjxw9CoFqzTblh/6d49tWPsWl7JUInjkC0Yz8+ffZVfLxpOypDJ2JEtHMdrcvLsOa1Z7Fw9UakWEdj/CDnGohOLxZbDgzeLS8kQr+T/J4+dZR9jZ9/vk8b3ti4cOG+xhVvvdWYvu/zxqZip8/fb3y/Rh2MXbKkcV/t541vLCxSC/YtbFy4UR1sbFO+r3HhG7821spxMW3heyZR/Ebjr2pB4+cL32s0yUGhdbnx8zcamxe1ULSQ6PSzN/2vjeXmBG2MThRP75wsxXkw+3XC0IAMfPxLPuq04iZTe6P8H19gw+q3sKxhFIYerEPYhVHqtNFhMDuvXdOmfBMCwiYpl0uGz0iYy7chMSAMk9QCjDSXY5scFFqXf1MXhuZFmcHL49DpZl/GM+jT5RaEBY3USuhEMfQ7mPHX1/Hoo9dj6j+i8ei9vdD/3rfwt4uBXe/Pwz9WFmu1hPJqOLpEoEt4hJjJiAoRzD4uV7KsqanWhlqX21rcVaimpkZerUo9CEhiXJSoWpVbxXjzokQ95yqITpG0/Pe0IQZ+R2Hod7CuVz6Ft976AW8P3YUV5WqZT0B3XHT/vxBd/KtaIOzfVIkrH52C4Rfchn/2qcCvvSpQHK+9H8gxImzkMHW4TfkFKC6OU8eRi7CwkehRXIymkrAwOP9kWpdfXFGM5kWJetoqiE6VzqETlbBn4HccfpDboYqQkACMGtUV4aMdWPqvJARlvYPXv9iADdsSMGzGoxirfcga7ojBwv9ZEO0Vh/eSg3Hz5VNRuXo+DviEYMunhZjwUDRiFm9B94umorxF+c0YkLAAX5pDUPnZFvjdOxvTOu/Fgi/NCKn8DFv87sXsET/g1VfDcPtVh1uU33Z9JVbPPwCfkC34tHACHrowGtpHvkSnhJ9PF+Uhw56B3zF4wbVTofwwDqMf+nXSxjvapo/wUc+7cXd/bZyIdIuhT0SkIzynT0SkIwx9IiId4ekdN1i8eLE2REQdZe7cudoQnQiGPhGRjvD0Tgdy2Gywq0Ow2dQhp/L0dJRqw8fLYUzEvlzX3/JWwGi0acPHItpgrkRlpUVrE5CXl6cNqRy2IqQnZoulirpF6UgvcWmzvQI56XkwO8Sww4Yi0X5lsuuwxl6Rg/Q8s1iKMtI83xnDLvaX1mC7Dc5BhUO8tsw2v6c+Dg4YU1Jh0sYUNiOMFdrwcXLYzGIfVsKibe8qsQ+r1EGFsu1zKsQrsMNSkI4U536QWu2rpv0tyk05Kcfc30UtNgSdqRj6HcjrcBx2yR/dlu/DzgPVsFvEH6sIf7ujCunGagTZLc0hbJdBY276Y7bLsDGbReCIP95K+WxDYV0URnZtgMUi/vBlRYcX/AMN7dTVwsFsc/mDP4jYPSJhinZgW0o59mxYgcSUTBzM1wKseDfW76lDjyE9YEjZhp3mLvBO2oYUdSJ2bk5DUJdixO0qQMq2nTB38UbStkSXYbUmindic1oQuhSL117qOt9vPcSdSuWIizsknh3I2LEb+WLbm8W2tIl9hKwcGL18XLavQ9n+Fue2FvvAbhP7VewfpY62Q+0V+aiP7IXgOrkcWWAR+9of/n7a/PLfgVyP9u+heflinzr/UYixg7F7xEG5CDu2JSNj6y/YKA4khw9r29aWgF2HAtGjYj92ic6ALaA3eir7QZnYcl+57O9g0TlBVP8j7O9S5O+KRUUPf6TEym1CZzqGfkcKMsAgEjjtgBU9/BOxLduOgh3rkVBTgFr44sCudPEHn4yt24tRGrsWW3NrtRlLEbt2K3Jr0xCzIgFlpjjEHsoSedOI8tgN2J5fi8JtW5GSth+JNeVt6yalYNd+0acUAb8lWYv9/HLUh4ehptoLweGywIaAyPMwqLt6YYaMQyXwbsjAruQiZJZ6Y9iAYAQYvNEgJxanoz56LMKD/WBw5KLUexgGBAfA4CXa7Rz2VmqKqvWIHhuOYD8DGspc5mtQp58ZQsSuq4OtfA8KQnqjJGY/zLXJ2LAlB6VFQFiE6/Y9hC2rElGmzYm0LViVWAZT7BpsFvszI3YX8lJisK0wALbETUiwlWHPzh3Yun4fchMSkWtIU+c3xWLN5lzUZsRiV57r8qtQUeF8Z5GP8vpwhNVUw0vZiTYYQgZieL9IdbJfBLxMu7C9ojOGdXbAnLsH8bZeGC0nOw632FfN+7tE9E5sKE2ORU74EAyUy3Hd32K/hXWqRdqmDAT07i2n0hmOod+R/ESvr3APikLORV2ZB4YM7YRG7yB0toiul28ZrOGjEBkZJP6w6mF0hGDUwEgRtGI+hxGOkFHiD1AE84Ax6NlggIddzBPZWasXBJvBFx5KUTt1zaVo6NsboWG+4g9bbUqVCKvAiDRkOEZjXFQnjO09AN7lsdinXG+nFEWO7pgw8RJ0Nh9AIcIQJXqVpeKfhxInpWIh8hLQxeKdgo8IoLAo0Uax8jpR7hz2VIPHtWq43XUkQpl+ZvCDj92M/Qfs6BedC3vXcxHtZRcHy64wNniia7bL9q0sg2HQWPQUASl/zWwsNWDQ2J6o9QrDsIHiHYFXEMpKXPZ9SBhCqgrhPe4C2BvFskpK1flrvRA2bCB8xLu3oDLX/ReG6GjtktfqTkRahgOjx3VF/1F90aXmMHZlqpMztx9Gl8mTEO6oQL1Yf++RIxDkMKnvQMrEQaRpX3m77O90lPl1xaDR0eLfTY36i2zXnRiQg73WC3DVsAbRYfCTU+kMx9DvSFHhsOQCg0b5wb/RjLSEOByqD0OEUWR+n0h4Fu/BnphihA6vR4VHNxG0mvwKeHQTsWtsgGdXL6V3GSj+cn2j87V64hnhsIp3C9Ht1A0b4I/6tETsSPBEr6HKnzEKaj3QK3oEQisTkZmzB+uS81AT0hNDguTUTujiaUT8ng3I8xmJfg052Ba7GaXh/WHak4rqbv6wJexCTJIvBpwTjYacbYjdXIrw8/o1D4+2Y/fuHHTztyFhVwySfAdgcHeX+Qar7ThTRPqaUBk+Ft39/FFbmIi9e0W4dy0T272LOFA3b9+uvh7w6+F8bTYYxQGjh5dRHDAj0RXyHV1XhDTt+xB4b49Fw8UjxfwJyrKCxL8FOb9RHsC7yv0EdBXb27n8SM/9SHVeCE9M9OgVjRGhlUhMPoit4p1HvkH06ntp0xtqUJiShFKvQFQk7EHinniUGrrAkbIHqb7dXPZVf5f9HS7elSQiMe4w7KGBSNq9v+X+7uuJOlMaEg/XI9h57wc6o/HbOzpVYTKJnmu4+661kyOCI3gkRp6sS0sQbGIfOsQ+dNutb6oPILFoCEb2Z7ifzRj6REQ6wtM7REQ6wtAnItIRhj4RkY4w9ImIdIShT0SkIwx9IiIdYegTEekIQ5+ISEcY+kREOsJf5BLRaSUxMRFZWVnKcGRkJMaNGwcfH/VqsHTiGPruYs3F9vU7Yel7NSYND4a8WObxiFv8CgqnPYdro7UCvbCbkRTzC4xdf9v2orPbd999B5Opxa1mlMC/4YYbEBwcrJXQieDpHXeo/BlzJ92Pb0pqEPPCVbh+UY5SbDUVocounwtgssoSG0z7NmLp+mSlXMqJ3YykSnVYZUPOjlVYl9r6jlhi3iITcuI2ItaozmyvMqGqKhWbdhvV6a7LtpqQn18gHmobJGvuTqxYnwqlKS7sxnhR3twmq/ijM4m663bkNj23nMeOqiyxrJU7kaNNcJ3HWddelYx1K+OhNVcb34lMsSL7oV+xXmymtU/fhAXp6nTSN9nDdwb+iBEjcOWVVyrDdXV12L59uzJMJ46h7w5bV2Hj6PuxYM5dmD9/Oio2xUDm+Oqnb8c7ItBWPz0ZT6yRFbMQu7cUNT89hluWFMqCNuJfugZzvivBxqcuw19itELFGjxxyW34vx0/4Ykb/oV4UZL23m0Yf8N8bCqWb9ZaLbvkELZs+hAPzvw71lnE5D0vY/I9y1C86RlMfGqrXKCqcinuuOMLFKe8jSl/+lG5a9Pqpydh9oJ4LH/uGu35Zry8S62usiI5LgU1if/F7Gc3KiWrn56I6/+TgrWvzMBfN4gCudzJryE++wPccNNHKEAK/jNjHr4vSkKyCHvDiBtw28AkJHleiat5bw4SnKd0JBn0BQUF2hiQnZ2tDdGJYui7g78/fM1mJejtBUZUiLehoeqUlmK+xotffY8siz/MlS26902y8zxwqTh43Do+CPtiM7RSTZeLcc/D9+AKQz7UP4F6XPDQF3hxWre2y+41GD7i4BP5zD8xUzYmJx8el9yBe265EEH74pCmzC8U5KKgJhexBwwY2dMbJUphN0y+9yFc1j9KtEU+l8Poeowq+AFvLliOzcWiBdXOO7T2wNUP3IU7L4qAWRbJ5Q6fjnkPTcHgg/HiINUfc/5+OUwff4HvkkuVOTKTwzDv88cwkud2qJWIiAj06dNHGyN3Yui7w2X34pGGD3HphRMx7q8ZuPPRa5TiiKhqfDdvFj454DwXaUWdDcivrsGRzk5OmjoEqx6fhcd+DMNNs/prpZqiZZg37TF8E34+xmlFzVotO+Z1vLQ/GB6//h2L5NuCi6Zg2M9PYPq8nxB240z1tnjSgCmYFlGNYthQhAC0/GjBC17tXlrdAVtdPaqqq+GtlbQhl1u2ENOnLUTStbNwNXLw8w+p6NTZG1U1skIJEsRBKVE9yhApQe8kz+O7nsMPD1fu8UluwA9y3cmehFevexCZc3/E4hnu/kf6I+6+LBVPbHgSw7QSorOJPKXz1VdfKc/yACCDv7BQfYs5bdo0REfr7dsOHYOhf8bIxbbVVRgxZXj7p46IzgJms1n50NZ5Dl/28CdMmMDAdyOGPhGRjvCcPhGRjjD0iYh0hKFPRKQjDH0iIh1h6BMR6Qi/vdORyuOxZPEyHC6oRkXnK/D35/+A9Hf/ha8P2VAfOAF/+edN6KdVJSI6GRj6J8va/+K/3f+MPzt/WRU3H/ONf8PfpmnjREQnAU/vdLC6inxkZ+/CorWeuMjlp7R1uWHoPEobISI6SRj6J0lXQwVSirWR4q8xP2MC7umljRMRnSQM/Q7mE9YdvXtfgBmP+iH/V1EgAv+l/w3B3544F7wXEBGdbDyn35H2/oS3M4Jw+VBgy5ex6Pvk1dh735tovHoiOovJYefcgFnjOql1iYhOAoY+EZGO8PQOEZGOMPSJiHSEoU9EpCM8p+8Gixcv1oaIqKPMnTtXG6ITwdAnItIRnt4hItIRhn6HcsBmrkRlpQV2reSE1WRgz0GTNqKqMBph04aPh8NmQk5KOkpkoxw2FKVrw9TMbhH7rRJmm0MrcAcHjCmpaLX3YDT+lr0nm1aA9JQ8mGXTtHZWWrgD6fgw9DuS4yBi91QARTuwLdkOu82ihoj8Q7XYYLfXaQcFM2wO9QDhGjJ2u02UyWl2WJQ6gKnMgIGDAmCziGWYbSJGHPDyDxSV29ZVA0E94DjEup2LtomMiervjaRtiUjZthPmLnI4RZ1ICuOuWGSKLXdwxy6U2u1im5khc9VuqYTFpu7LprB12c4qh7LvLLJMHFTN2jR7RT7qI3shuE7sK6XAIpblBf9AQ7v72iHW6dzHNvHvRd19YtgWgN49ixG3qxTFsfGinUTHz+tFQRsmd8s7hMOevRFZl4vSyjwklPmjX1gBdu2uRIRHCrblRKBPp2LsjsmCP/KRVh+FhsRdMPbqg86epdi1Zjfqu1qxf10RAkMzkWwMhslYhr62FPyc549uRfuQ6GeHMbkaxoNJreoGojQ9B8HhRsTt80a0vwiYwGD4i8N8Q0Uukg/kI7B/ACqq+mDMAAPy82rQq5f8nTCJwyLSMwsR2TUApXl1CChJwL76rogqjkNsVQQ8UrYhJ6I3/NJisMcWhIq0/Kbt3LenOAAjFZtX5MI/NBvb9jWim/UQ9uTlIKcuGgGHtyMnKhh58QeQfciIwAYjUryDULit1b7OrUVBfj2iGhKxy9gFQaJNgcH+opfmCWtxGpIOWtDtnO4wZaWiorQOft16IIzX9aDjwJ5+B6oqqkejoRIYdCkGwYBBY3siOL8MHkOGolOjN4I6h6AitRhdL5uAqtIG9O0dijBfbzTImR1GOEJGYaD4Yw8YMAY9GwzwCDCiwbMrSkrVZdWKXmJ4fSkQbm9b15EKa/goREYGwdDQAL+u0Qj3UpolhgdhdLQHzEXiXUhYlFiXWIZnpDqRhHxU2wyw1YTjvEvHwOwIwaiBkSg0eWDI0E5oFCHd2TcLGR7jcHl4VovtrDCWwjBoLHrWeiFs2ED4OLxQW+Myb0gYQqoK4T1ugnjrBkR2bmdfm0vR0Lc3QsN84d3gh67R4dB2H8J6j8SIIAdMjiCMvnwqLhlsRV62NpHoGBj6Haig1oBhQ3ohMsABI/zQQ/7V+jfCnJaAuEP1CKzegLiaYDSaqhDpX4+0xB1I8OyFobJefgU8ukWJ7G+AZ1cvlBaJP3aIkO4SpC2rCqJPiAgj4OvZTt1+kfAs3oM9McUIHV6PPXsKlDahIAWxiYmIO2xHaM9uaMjZhtjNpQgfLcKfVHIDdj8PA6KD4eeVjwqPbpBbx7/RjLSEOByq90buxhz4+lXD5Oe6nbsqs9vEPvETO1tkv3i3IP8dQLxzc84bAu/tsWi4eCTq0zLFvvRFdHv7eoC/mJ6IHQme6BWyH87dV52ZgD2JexAvDvxdqtR9GZss9mU3dTrRsfArm0REOsKePhGRjjD0iYh0hKFPRKQjDH0iIh3hB7nURllZGQoLC7UxOlONGDFCGyJqxtCnNpKSkjBo0CBtjM5UPj78tRa1xdM7REQ6wtAnItIRhj4RkY7wnD61wXP6p0Z2SR22HfYG5DV8PDzhqLfDVpiFYf3DMX5MBDw9PSH/Wj08tBmOgef0qT0MfWqDoX/yNYi/wnq7HfN/sCCnvjPqLFBCP23NMtTV+mDEoAg898AgjB4ajvTsKgzoHaLNeWQMfWoPT+8QnQY8Re892+SJsvpQ1FtqRWe/Ho111eJg4AAaG5CQZsW9z8finudi8dnyTG0uot+OoU90Gqirb8B7G+yoEL36urp6hHmZ4OHlhRceGIrxo3zg2ViNqup6bNpTBz9f/tnS78fTO9TGkU7v7N+/H1arVRs7Mn9/f4wePVobo+MhL3X96moDPAw+GBFeir9O88FX22pw88URCDAAV9y5GocL5Ll+X8yZ0QXP/2mkNueR8fQOtYddBjpuMvAvvvjiYz6O58BALWUUiR68lw0+9nJcOaweBoM35lwWDgMc+O/niSgudyDIrx6+3nb4eLGfRr8fe/rUxpF6+jt37lRC/VhiYmJw4YUXamN0PA4cTENZeQVsVhuCRNc+wN8PI0eNhgcakZNfjpBAb9jqHGhs9EBQoC9CQwK0OY+MPX1qD3v6RKcBg1cDfD3tCPBthL3Wppwe8/L0UL6m2adnBLy9GxHdNRzdu3U6rsAnOhKGPnW8hGcx49kEOYBnn/1KPH+FGUNmiDI5fDI5168R7Roy42S3oX2Nok/v6xcIu12et/fA3r17UVxcrDxi4+KQmHQA2Tk5aGhoFL19vjmn34+hTyfHsqUi6jUJSUjJXA2MuEUNXt8ZzdNkMA/xxRB5kHCZ9tWzz4opX+ErZ8WvnoWs8pUsEMND5DwzZoj6Q5RypcoMX/jKUP9qBnyHyPmF5PlNy0xYugyZq79xWfepI7+jX2WuhMNRD19fX1gsFhxKPYSUQymwWi1Kjz8l5SCqq83imHCcv84iagdDn06KYX8bgW9mLNXGRmBIX2D1N6/h2b8B39TeKKZp0ZuwFMsyp2DmiNW4r/W0I0rGkL/V4m/Dhon6f8OIJK142F8QuxyY8c2NqP0G+NuzaaJwprJMefRYim9QK4aTnEeJUygyMhITxk9QPkups9cpD2ePXh4Qam21GDRwEEJCQtjTpxPC0KeT5BYsvzEZbySLwaRvsFr+viilEuOGLcN5vnOQMky79ntSMjKxGm/Mr8TVrtOS31CGRXZrxLLO88UcpWAYnLO3dQtuxBz4nveGONYMFOuUy5mPJPEuY0TyeaJXPQfJI0ZpdU+dLl26wNvbG7169cKY0WMQHR0NPz8/+Pn6oXv37hg7diz69hVHSoE9fToR/PYOtcFv75wd+O0dag97+kREOsKePrXBX+SeXFlfPo7nVwNT/vEm/rDtdWz7w43AW89jdcko3DClEN+vLgFGXYpRCRuRMOoG3D/+HFx0US62bLkIPXNk/adwax9tYS7Y06f2MPSpDV5ls6Nl4cvH30J+WAkS0gZi1JTL8NStPUWIF4hpDvHwEo9oXIRt+LLnreiVu0UM5yjDt+b+gNeXfY8EeRy4/x8Yj1xRt6c4CLRNfYY+tYend4hOgV4zZ6N7hRzyx0Asw223PY8NO7Zix44d4rEfO5Y9j9t29GruwV/UC/nP34bblhkxcOY/8MUX92Pgjm+0+tuwRatGdCzs6VMb7OmfHdjTp/awp09EpCPs6VMb7OmfCHm+/nmsxigMFGO9RozHpZf3xN5v3oLlxjfR65vXUTp+PLrkLMO3mI1z47ai16PdsewtYPa5+ciUH8pWPYshfxuBX2bHqh/w/ulc5GcGAHFpsJYUoqIzcO6jM5H/DfDU+B14POdGvNnOJ7ns6VN7vF4UtGEihbzeS0REhDZGv00FKgMvw+NzQ+AV2BPhjTn4ZEsZOhfGIc7hgYptm5Af0gfV++JQFt0Ljfs3Ia20ErnVQfApiEOiYyyuvuIG/PnmkQgbNQSdO1+IEdk/4H9xdZg4czyGnzsUQ4cORWjcDvy8Kw8eUYWIy++OmX/ora2/mZeX/ECYqCX29KkN9vTPDuzpU3t4Tp+ISEcY+kREOsLTO0REOsKePhGRjjD0iYh0hKFPRKQjDH0iIh1h6BMR6QhDn4hIRxj6REQ6wtAnItIRhj4RkY4w9ImIdIShT0SkIwx9IiIdYegTEekIQ5+ISEcY+kREOsLr6dNvUvvJJ6hbsQL1cXFoyM8HHA5tCp0UXl7w7N4d3ueeC59rr4XvXXdpE4iOD0OfjosMe8vf/46GnBythE4Hnr16IeCllxj+dNwY+nRMNQ8/DNt//6uN0enI789/RuDChdoY0ZHxnD4dFQP/zCD3kdxXRMfCnj4dkTylUz1njjZGZ4Kgjz/mqR46KoY+HVF57948h3+Gkef4O2Vna2NEbfH0DrVL9vIZ+Gceuc/kviM6EoY+tUt+LZPOTNx3dDQMfWqX/B7+mcJr+jwEvDoPPkPEyJAh8BJPnuMmwrunMhnoOQ6GicpEeI/TCkWZtywSZV7Ks1NPUcdZIIavmAqfqVc0L+sMcCbtOzr5GPrULuWHV2eCKUsQeGsx6lYZgSgxfs898BVPhvveQ+A/ZihVvP/yOoJeuEdOhP9zlylluOw5+MsiUearPGtm/AMB/3sBAUrIXwbfmSPF8yj4L/ovvGXRGeCM2Xd0SjD06cyWtAMNfefC7/xqOGK0Msm8Do7gW+CHGfDrXIn6Gq38GPxuCUb96/XwvMelax8qjiY1RjRoo0RnMoY+tUv+1P+MkPshqs+/FTbHPQhcMkUrlOphT/CG4b/XA2k/a2V28TCog+16DIb+UfC6rhu8L366qWfvcdEQNP766RkT+mfMvqNTgqFP7ZLXdjkjTHkegR88Ad8JnYCiUq1Q8+J64PJOqH9Rhr30Axz+dyD4rbcQfI8/HN+opZ5j3kKgKAv438XARxNhvvZK1OT2g584hjRWF6L2wY+BW15TThudCc6YfUenBL+nT+3iD7POXPyBFh0NQ5+OiD/OOvPwx1l0LDy9Q0ckr95IZxbuMzoWhj4dkTxFIK/eSGcGua94WoeOhaFPRyUv18vgP/3x0sp0vBj6dEwyTOSHg/J8MZ1e5D6R+4aBT8eLH+TSbyK/1cPbJZ5CvF0inSCGPhGRjvD0DhGRjjD0iYh0hKFPRKQjDH0iIh1h6BMR6QhDn4hIRxj6REQ6wtAnItIRhv5Zz46qKps2fDR7sGJlISqTDsDtF1O25mL7ylXYnms77uUXiPruu713Dla88T8kOu+lcjyyV+F/29veY9G97VK3OdHJxNA/22V/jBfuWoI1SuDZYMovgLHKNf3EQaGoAPmmw0g6UAmfTp0QJIutJuTnF6HKYobROY/dLA4gYtzkPIi4LE9OM8l5TLAq84pnpU4hFr/2PcInjEdnWNTlt1vXJpYt26UepCoOJCsHB6tJtK1puhmmIrNy00OFXI66EljFNEtVkct6na/LBsuhEnS7bjBqMy3KFElZrrIsrZ54rVnvv4clcn6x3L05oRg/wkerLYgyo6iTmyDb1c52VF5HAUzKypun213aZBdtrBLjso6yflO6ss3VZTvn1Ti3v1hFc1vFNhDbTbajyqq2p6kJrttUG29apta25vao5S3b1lxOZzeG/lku/rtKXDPfgJSNdmR/uBDLRO5l/PcFLC5Qp2d/+C987NLZzPziS2yyb8S/X98uIlowForYtuDb199BWvoizHn6V5iVmnJedXl7/vsONotpTyzKABL+g9tfTwIOvoX/rJK1IjE+/BDeXZ4K38hwdfnt1l2Dd94TZcgQz2vkjEIVCgvFCkS9V8X0p29ehIPaFIUhDe+/vRZ2+1oseP9rMZ9YlmU1/vryVpfXZceOlRtg8g9B3A9Lobzs7I+wYLls+DtYsPQdvPGjmpyFxiLlWawU6NcVK+RrVgqqsOyf7yBBvPLE5DyUub5uZTpQaTSKrZSIV19fgfVv/Btb5Mazb8YClzalvTcXT6wRW+/QArz8raiQeADJqMf6txeJZVuw4tlX1OW5bv8cra0Z7+CvH36Nl55eB7NlGR568Efx/BP+o2wzQWzTh/5PrutrvPzGoRbLfP3Nt7XtdhgL3lwhtogg1tHctm+by+msx9A/q+3GrwfzsfOHPOxe9z22lgETBkbjD9MjULZXrRFf5ocrxkSje7jLDcPT41A/ehoGdu+CvM2f4NdNKcgzyz4xcO5VN2BguJ9SLT4rFea921A14AL0FeN9h52H7n06Ydzoi9F98lgMV1LEgJGPvIc3Znnhs79/hBJZJLRft5XKeHz3v7XYdrgE9WJ6r0nX4g9dgl1ubT4Wl3nvw5q1++Ddvxz1gy9H94E34g8+cfi56XXlY3dOJUzb9iJs1AUIlLPtzUaKeS+2mPtjwoQHcEvXb0RY/4Iyv0B06i4OTOtbvmaIQ8Uhv6G4svsATBjZA5mtXrc8KMR9/zV+2X4YxXaxvvpRuE5s567Fe1u0KUe09+rZAxCeZUfwxQPQfdJYDIPYN/WDlGXfMsEHu9PF4ly2f0ii2GnjRd0J0xBZlo3IAaMwUCx72NBzxfNFGNOrecMNO1dsSzEtuD6zxTIbL7sWee/Mx6K4bvjzH7viq9f/jeVbxTqa2paPq53lWdrC6KzF0D+L2X/dDO8/LcDfX5iPf/dLRVH3Rnz2/rf4z4cWjJio1rl8RB2WLPwWS9a6dPeHXouI7S9jyTfLsCWnHj6GEnh4hGoTm10+fiCKysWApxe81aJ2FGL9Z5/g+1+2odi/K/y10rZ6wr9sFZZ+vgL7qrSimkxUe0TC6vBocVPy1e+9r/XAgXGzuuCLL0Nx48xr0SX2VSz5+GVsDbkatzS9LuC6MR5IqxGL8/aC8iouvQCDimXDveBVloAEWx+cE16LhmgbYj7egQOm1q+5Py713onXvvkS38eXYVib112DjBoPdLY54OnbDddF7MDfPv4W31aNb9GmpgtTX9QT1o8/wdIlG5CKPrguKg4vi/G/bQvB1AFiusv23zl0OBq+WIyl//cxLCMGqfMfU8tlDjcnwm/MQPgWpmF/ghX9xoTD5jfFpW3nosZZXtje0ZfOJrzKJp1hMvD1t5W4afZYbZyIfguGPhGRjvD0DhGRjjD0iYh0hKF/JnIA+SYgW3tUuPuOhZnAUvlBZSt1VqhfIxQsYrhOG/4tSrQ2O5fjlLMX2Cae48RzvPYzgMN5QDvNaNdS7dtIrVVUtrONRNvjy7Tho2lVz9nG9hxp/W2Ijabst2pt3MU2sQz524SVu8T+VYsQL7bB8TpiG8Q6dx0AfhLLOto+c65f+i3bns4sDP0z2KubtAHtIFAi/qJlMFeIR4l8FsGiBKwWNDJo5fTWw3I+JxnKJUXAXjHNIucXoemcfHADsEwbXiaGD2rLzRd1Xdvg5Loupx+SxP9EnftXtJxeXqAca+AIB4q3Ar+I9foGiIes7qynrUNZn0aZJuru1n53INvvOn2ZXJ/wtGh4kShXto1YTqS3GNbaKg9gTdtKLVKXI6ZHygZo680SQSjbqBxItO2ibCPx2CvXfzzbIFHdhtWxwONiYa7TM8UyysWyOvcGPl6nvo5IsQ0kZZ1imlyprO+6jqO2QYw/9LV4FsscH6wWuW4j132srF88y20UrG1717py2PXfA52ZGPpnIi+guwjHUPFX2Vs8bxUBLC8N8NFaYKMYniOCBcXieaN4zgWu/Fk8FwLP7QHmi+nyr/a+n8Twr/KnS832/yKWIabFyfCoAF4S9ZEl6qUok9tYs0bMow2vFOuWbfjme1EuC0TYONf1kvMXTK4aW7bFSYZ0rvaVzbU7gLRSYJ6zey3aJDu+H68GkuW4CKN5Ihzl814xLUOs53OxvB2izPnzLlepzm0jeu/vpgP/EW2uE+2U7SsS88tt9dQ+8VrEdlgrlgMRcu8eAr4QByj52uKM4n9CnqgrQ3u+WNbj4lnOJzvZzm0g94PSYz7WNmhoZxuI174sW6xD2wbvim0gX9dC2T6hXK5bPD8t96kk9tVR2yDa6DEeuCBIHExCRTVtG6WIbfSfw9o+Fv9W5mrtSxXr+1Bs8zXieYNWV9meYru84PKtXjpzMfTPAltkzy4NiOgByI7hDeeLP3ADMChaHBQ6A3/oKZ6HA+NEN87eVQyLx+XiwDFT1FssAu4r8UcuJYqQulpMmyJ6hfIgsd8mwk88LhXLkAxiHhmSTpddJIJFhNZrose6RZRfJw5A9/UXwzIcxbuFdBHGa0WAnSfKnIpEwMjfkL5/bsu2iPxpEiAOZt1EQCnfgRfzBw5TD25pIumXiwNQlmiTcrASrydQvkaxjPPDRDiJMK8S9SuigIFyumARdfabRRtnAiFi3LltpGvEepeLUDT0AT7dDawvEcsVr0O+llvEMrvLrq6QKOrL13a5WJcM2f87IJYpwtcuXkvYYLH+ocA5YpLrflA61UfYBgfEOM4D3vRvuQ2cp3TkC5cH9O7ajxp2iJSfLvZJbxHc2+LFuyVxwCoQBwyF2E9HbYOYxy56505yWZfL9Y0R9RJEwQAxr9hYXeSRRLym58Q2vkS+TiHBdXuOBG4T2/Ih8e6y7RWJ6EzC0D8L3CJC/UAtYBZ7UwbbEYlgjBY99zdjgHV+4g9adJsHiXCwaL3IK0WwLRDT3pA9+37ACO16C17av5Jho8R8y0VPUNT5WcxvEL1LP7FufzH/LWLFj4vyP4tEny1CBSI4xnuINolBb5d/ZX37ioOFmB4gpru2RayuST8RgJ+JtxBKuIjAt21V1ymvf+YrponFqrqINoijxYfincBWMW2qWEi+nEmsz/ljsbBuamCGiflamyAOPO+JXvIcsRzZsbaKdx/yt8a3iKD8s1jfx+L1SVPEvM/sAj6R46KiXSy8UDQiTCy3Rqz7Q9Ejlm8gXPdDJznjEbbBJSKdh8sLHLXaBt3VyQqDCOHv5NsaYaqY8Kbobb8pVpIilt9VHPE8nS9QBP5R2yBCfdhB0UsX7f9QHDDOE8v6rzhQvyC26dhJ4s2I7NmLt0VmuXLx7+Pbm8RDLKtejF7kuj3FASxWHPxGivUmibcU7X3mQ2cGD35Pn4hIP1z6H0REdLZj6BMR6QhDn4hIRxj6REQ6wtAnItIRhj4RkY4w9ImIdIShT0SkIwx9IiIdYegTEekIQ5+ISEcY+kREOsLQJyLSEYY+EZGOMPSJiHSEoU9EpCO8iUoHUTaqtmXlU9PdnsRA0zAR0UnG0HczuTHVLdoowl3855LwsrxROwTIcoY/EZ1sPL3jRjLOGxpk2IsNK1LdNfAlOa6Ui2FZTzk2EBGdRAx9N5JB3l7Yt+YMf1mfiOhkYui7icxvefrmSIGfvHUrirVhSdaT9Zn7RHQyMfTdQOa27LV7ebaf+MmrFmNrcjJik7UCjazP0zxEdDLxg1w3kFvQXt8AH0PbY6gS+JXDMOOWiYjSylzV2Rtg8PZU3yHUZWJnggEXnhuJjO1J8B0difwdB2Hy7oLR541FtCMFcQXROHdICKpSNmNbpkXMFIC+f5iE6ILN2F07FJNHRyEvbjUSS/zR/dw/YFRng7IeIiKJPX03ae80zbECX2oxn08YPHKTkWFLRXKZD6q3bUf1gCtxZZ9ybNqWAdhKUVRqU6qGDJmE3g3lCB43CUNCynEwrRq1eQeQI6ZVFTWg96VhOLw9GXVKbSIiFUPfDZTcbif0h02di4mhyVj+Vcvz+S2I+Zpn7YRB0TVIj8kDeg9Cg90HIeFe8ArwFW8larU67ShPRbbVH50cBUgRxwbAhMQfE+E7ZAR8lApERCqGfgc7ruB30WlQNMw5DpH5fujXPwgZa1Zi5eY8hPfvp0y35u3E6tVxEIeFJsUHchE8bByGj+6BqvQ0NCAcI6edg4akXce1TiLSD57TdwO5BWvtDfDx9oDnUT7Mzew7F1OHaQWC/BC3rr4RvgbtnD4RUQdj6LuB84NceX7ez+f43zzZ6hogjxFNH+QSEXUwnt5xBxHYsofvcDQqj+PhrKu8M2DgE9FJwtB3A5nZMrwN3h6osTlQf4zgl9NlPVlfzsfMJ6KThad33MjR0Ah7faPy3Xv5wys/X88WP9iS0221Dcqz/E6/DP0j/aCLiKgjMPTdSG5I+eGsPG0jw18+nL+4dX03oIS9F3v5RHTyMfTdTG5MuUVl2CsPl60rO/Uy6JWwF8MMfCI62Rj6HUTZqNqWlU9NAc+wJ6JTiKFPRKQj/PYOEZGOMPSJiHSEoU9EpCMMfSIiHWHoExHpiPz2IL+9Q0SkE+zpExHpCEOfiEg3gP8H6I10lBeTx+QAAAAASUVORK5CYII=;fontStyle=0" parent="1" vertex="1">
          <mxGeometry x="-376" y="113.06" width="139.83" height="223.88" as="geometry" />
        </mxCell>
        <mxCell id="3nuBFxr9cyL0pnOWT2aG-3" value="calculateSimulation(InputCalculateSimulation)" style="verticalAlign=bottom;startArrow=oval;endArrow=block;startSize=8;shadow=0;strokeWidth=1;exitX=1.021;exitY=0.381;exitDx=0;exitDy=0;exitPerimeter=0;fillColor=#f8cecc;strokeColor=#b85450;fontColor=#660000;fontStyle=1" parent="1" source="VXKFvENRnSMDq_s_ZxEp-3" target="3nuBFxr9cyL0pnOWT2aG-2" edge="1">
          <mxGeometry relative="1" as="geometry">
            <mxPoint x="-21" y="140" as="sourcePoint" />
          </mxGeometry>
        </mxCell>
        <mxCell id="3nuBFxr9cyL0pnOWT2aG-2" value="" style="points=[];perimeter=orthogonalPerimeter;rounded=0;shadow=0;strokeWidth=1;labelBackgroundColor=none;fillColor=#f8cecc;strokeColor=#b85450;fontStyle=1;fontColor=#660000;" parent="1" vertex="1">
          <mxGeometry x="79" y="130" width="10" height="410" as="geometry" />
        </mxCell>
        <mxCell id="VXKFvENRnSMDq_s_ZxEp-5" value="Camunda&#xa;vivere-workflow-gerenciadordmn.app" style="shape=umlLifeline;perimeter=lifelinePerimeter;container=1;collapsible=0;recursiveResize=0;rounded=0;shadow=0;strokeWidth=1;labelBackgroundColor=none;fillColor=#f8cecc;strokeColor=#b85450;fontStyle=1;fontColor=#660000;size=50;whiteSpace=wrap;" parent="1" vertex="1">
          <mxGeometry x="921" y="47" width="210" height="590" as="geometry" />
        </mxCell>
        <mxCell id="VXKFvENRnSMDq_s_ZxEp-6" value="" style="points=[];perimeter=orthogonalPerimeter;rounded=0;shadow=0;strokeWidth=1;labelBackgroundColor=none;fillColor=#f8cecc;strokeColor=#b85450;fontStyle=1;fontColor=#660000;" parent="VXKFvENRnSMDq_s_ZxEp-5" vertex="1">
          <mxGeometry x="100" y="77.5" width="10" height="272.5" as="geometry" />
        </mxCell>
        <mxCell id="VXKFvENRnSMDq_s_ZxEp-7" value="" style="verticalAlign=bottom;endArrow=block;shadow=0;strokeWidth=1;labelBackgroundColor=none;fillColor=#f8cecc;strokeColor=#b85450;fontStyle=1;fontColor=#660000;" parent="1" target="VXKFvENRnSMDq_s_ZxEp-2" edge="1">
          <mxGeometry relative="1" as="geometry">
            <mxPoint x="420" y="224.5000000000008" as="sourcePoint" />
            <mxPoint x="640" y="225" as="targetPoint" />
          </mxGeometry>
        </mxCell>
        <mxCell id="VXKFvENRnSMDq_s_ZxEp-9" value="Calculadora&#xa;vivere-sim2.app" style="shape=umlLifeline;perimeter=lifelinePerimeter;container=1;collapsible=0;recursiveResize=0;rounded=0;shadow=0;strokeWidth=1;labelBackgroundColor=none;fillColor=#f8cecc;strokeColor=#b85450;fontStyle=1;fontColor=#660000;size=50;" parent="1" vertex="1">
          <mxGeometry x="1170" y="43" width="210" height="590" as="geometry" />
        </mxCell>
        <mxCell id="VXKFvENRnSMDq_s_ZxEp-10" value="" style="points=[];perimeter=orthogonalPerimeter;rounded=0;shadow=0;strokeWidth=1;labelBackgroundColor=none;fillColor=#f8cecc;strokeColor=#b85450;fontStyle=1;fontColor=#660000;" parent="VXKFvENRnSMDq_s_ZxEp-9" vertex="1">
          <mxGeometry x="100" y="77.5" width="10" height="392.5" as="geometry" />
        </mxCell>
        <mxCell id="VXKFvENRnSMDq_s_ZxEp-16" value="" style="verticalAlign=bottom;endArrow=block;shadow=0;strokeWidth=1;labelBackgroundColor=none;fillColor=#f8cecc;strokeColor=#b85450;fontStyle=1;fontColor=#660000;" parent="VXKFvENRnSMDq_s_ZxEp-9" source="3nuBFxr9cyL0pnOWT2aG-6" edge="1">
          <mxGeometry relative="1" as="geometry">
            <mxPoint x="-650" y="380.0000000000008" as="sourcePoint" />
            <mxPoint x="100" y="380" as="targetPoint" />
          </mxGeometry>
        </mxCell>
        <mxCell id="VXKFvENRnSMDq_s_ZxEp-13" value="" style="verticalAlign=bottom;endArrow=block;entryX=1.3;entryY=0.321;shadow=0;strokeWidth=1;entryDx=0;entryDy=0;entryPerimeter=0;labelBackgroundColor=none;fillColor=#f8cecc;strokeColor=#b85450;fontStyle=1;fontColor=#660000;exitX=0.06;exitY=0.775;exitDx=0;exitDy=0;exitPerimeter=0;" parent="1" edge="1" source="VXKFvENRnSMDq_s_ZxEp-2">
          <mxGeometry relative="1" as="geometry">
            <mxPoint x="708" y="350" as="sourcePoint" />
            <mxPoint x="420" y="350" as="targetPoint" />
            <Array as="points">
              <mxPoint x="562" y="350.01" />
            </Array>
          </mxGeometry>
        </mxCell>
        <mxCell id="VXKFvENRnSMDq_s_ZxEp-11" value="" style="verticalAlign=bottom;endArrow=block;shadow=0;strokeWidth=1;entryX=0.04;entryY=0.414;entryDx=0;entryDy=0;entryPerimeter=0;labelBackgroundColor=none;fillColor=#f8cecc;strokeColor=#b85450;fontStyle=1;fontColor=#660000;" parent="1" target="VXKFvENRnSMDq_s_ZxEp-6" edge="1">
          <mxGeometry relative="1" as="geometry">
            <mxPoint x="772" y="235" as="sourcePoint" />
            <mxPoint x="982.4000000000001" y="248" as="targetPoint" />
          </mxGeometry>
        </mxCell>
        <mxCell id="VXKFvENRnSMDq_s_ZxEp-2" value="" style="points=[];perimeter=orthogonalPerimeter;rounded=0;shadow=0;strokeWidth=1;labelBackgroundColor=none;fillColor=#f8cecc;strokeColor=#b85450;fontStyle=1;fontColor=#660000;" parent="1" vertex="1">
          <mxGeometry x="759" y="126.75" width="10" height="290" as="geometry" />
        </mxCell>
        <mxCell id="tblThY2RWG7TxD8DzdSw-1" value="simulationRulesOptions (MainSimulationInput body)" style="text;align=center;verticalAlign=middle;resizable=0;points=[];autosize=1;strokeColor=none;fillColor=none;fontSize=11;fontColor=#660000;fontStyle=1" vertex="1" parent="1">
          <mxGeometry x="444" y="200" width="292" height="25" as="geometry" />
        </mxCell>
        <mxCell id="tblThY2RWG7TxD8DzdSw-10" value="" style="endArrow=classic;html=1;rounded=0;fontSize=9;fontColor=default;fillColor=#f8cecc;strokeColor=#b85450;" edge="1" parent="1">
          <mxGeometry width="50" height="50" relative="1" as="geometry">
            <mxPoint x="1020" y="311" as="sourcePoint" />
            <mxPoint x="772" y="311" as="targetPoint" />
          </mxGeometry>
        </mxCell>
        <mxCell id="tblThY2RWG7TxD8DzdSw-11" value="SimulationRulesOptions" style="text;fontSize=12;fontColor=#660000;whiteSpace=wrap;fontStyle=1" vertex="1" parent="1">
          <mxGeometry x="505.999951171875" y="325" width="137" height="51" as="geometry" />
        </mxCell>
      </root>
    </mxGraphModel>
  </diagram>
  <diagram id="jsCqH00N6Ezd92Ft7LSA" name="fluxograma_precificação_nova_arquitetura">
    <mxGraphModel dx="2926" dy="3162" grid="0" gridSize="10" guides="1" tooltips="1" connect="1" arrows="1" fold="1" page="1" pageScale="1" pageWidth="850" pageHeight="1100" math="0" shadow="0">
      <root>
        <mxCell id="0" />
        <mxCell id="1" parent="0" />
        <mxCell id="y_w_9SjiZQBzQXQu_Xhb-1" value="Inicio Fluxo Precificação" style="strokeWidth=2;html=1;shape=mxgraph.flowchart.terminator;whiteSpace=wrap;fillColor=#f8cecc;strokeColor=#b85450;fontSize=16;fontColor=#000000;fontStyle=1" parent="1" vertex="1">
          <mxGeometry x="280" y="-1120" width="100" height="60" as="geometry" />
        </mxCell>
        <mxCell id="y_w_9SjiZQBzQXQu_Xhb-2" value="id_simulação" style="shape=parallelogram;html=1;strokeWidth=2;perimeter=parallelogramPerimeter;rounded=1;arcSize=12;size=0.23;whiteSpace=wrap;fillColor=#f8cecc;strokeColor=#b85450;fontSize=16;fontColor=#000000;fontStyle=1" parent="1" vertex="1">
          <mxGeometry x="225" y="-1010" width="210" height="90" as="geometry" />
        </mxCell>
        <mxCell id="y_w_9SjiZQBzQXQu_Xhb-3" value="se consulta na tabela de precificação&amp;nbsp; retornar registro e campo multiplicador for maior que zero&amp;nbsp;" style="strokeWidth=2;html=1;shape=mxgraph.flowchart.decision;whiteSpace=wrap;fillColor=#f8cecc;strokeColor=#b85450;fontSize=16;fontColor=#000000;fontStyle=1" parent="1" vertex="1">
          <mxGeometry x="210" y="-710" width="210" height="180" as="geometry" />
        </mxCell>
        <mxCell id="y_w_9SjiZQBzQXQu_Xhb-5" value="&lt;br style=&quot;font-size: 16px;&quot;&gt;&lt;span style=&quot;font-family: Helvetica; font-size: 16px; font-style: normal; font-variant-ligatures: normal; font-variant-caps: normal; letter-spacing: normal; orphans: 2; text-align: center; text-indent: 0px; text-transform: none; widows: 2; word-spacing: 0px; -webkit-text-stroke-width: 0px; text-decoration-thickness: initial; text-decoration-style: initial; text-decoration-color: initial; float: none; display: inline !important;&quot;&gt;consulta na tabela de precificação com o cpf ou cnpj do comprador principal&amp;nbsp;&lt;/span&gt;&lt;br style=&quot;font-size: 16px;&quot;&gt;" style="rounded=1;whiteSpace=wrap;html=1;absoluteArcSize=1;arcSize=14;strokeWidth=2;fillColor=#f8cecc;strokeColor=#b85450;fontSize=16;fontColor=#000000;fontStyle=1" parent="1" vertex="1">
          <mxGeometry x="190" y="-870" width="290" height="100" as="geometry" />
        </mxCell>
        <mxCell id="y_w_9SjiZQBzQXQu_Xhb-6" value="&lt;div style=&quot;font-size: 16px;&quot;&gt;Retorno da querie&amp;nbsp;&lt;/div&gt;&lt;div style=&quot;font-size: 16px;&quot;&gt;SIM.CD_OBJ_FINANC ,&amp;nbsp;&lt;/div&gt;&lt;div style=&quot;font-size: 16px;&quot;&gt;SIM.ID_SIMULACAO&amp;nbsp; ,&amp;nbsp;&lt;/div&gt;&lt;div style=&quot;font-size: 16px;&quot;&gt;SPES.NR_DOCUMENTO ,&amp;nbsp;&lt;/div&gt;&lt;div style=&quot;font-size: 16px;&quot;&gt;SPES.NR_ORDEM ,&amp;nbsp;&lt;/div&gt;&lt;div style=&quot;font-size: 16px;&quot;&gt;SIM.DH_INCLUSAO ,&amp;nbsp;&lt;/div&gt;&lt;div style=&quot;font-size: 16px;&quot;&gt;PREC.PC_MULTIPLICADOR&lt;/div&gt;" style="shape=parallelogram;html=1;strokeWidth=2;perimeter=parallelogramPerimeter;rounded=1;arcSize=12;size=0.23;whiteSpace=wrap;fillColor=#f8cecc;strokeColor=#b85450;fontSize=16;fontColor=#000000;fontStyle=1" parent="1" vertex="1">
          <mxGeometry x="170" y="-470" width="265" height="150" as="geometry" />
        </mxCell>
        <mxCell id="y_w_9SjiZQBzQXQu_Xhb-7" value="" style="endArrow=classic;html=1;rounded=0;exitX=0.431;exitY=1.022;exitDx=0;exitDy=0;exitPerimeter=0;strokeColor=#b85450;fontColor=#000000;fillColor=#f8cecc;fontSize=16;fontStyle=1" parent="1" source="y_w_9SjiZQBzQXQu_Xhb-5" target="y_w_9SjiZQBzQXQu_Xhb-3" edge="1">
          <mxGeometry width="50" height="50" relative="1" as="geometry">
            <mxPoint x="400" y="-560" as="sourcePoint" />
            <mxPoint x="450" y="-610" as="targetPoint" />
          </mxGeometry>
        </mxCell>
        <mxCell id="y_w_9SjiZQBzQXQu_Xhb-8" value="" style="endArrow=classic;html=1;rounded=0;exitX=0.431;exitY=0.993;exitDx=0;exitDy=0;exitPerimeter=0;entryX=0.439;entryY=0.014;entryDx=0;entryDy=0;entryPerimeter=0;strokeColor=#b85450;fontColor=#000000;fillColor=#f8cecc;fontSize=16;fontStyle=1" parent="1" source="y_w_9SjiZQBzQXQu_Xhb-2" target="y_w_9SjiZQBzQXQu_Xhb-5" edge="1">
          <mxGeometry width="50" height="50" relative="1" as="geometry">
            <mxPoint x="400" y="-760" as="sourcePoint" />
            <mxPoint x="317" y="-880" as="targetPoint" />
          </mxGeometry>
        </mxCell>
        <mxCell id="y_w_9SjiZQBzQXQu_Xhb-9" value="" style="endArrow=classic;html=1;rounded=0;exitX=0.5;exitY=1;exitDx=0;exitDy=0;exitPerimeter=0;strokeColor=#b85450;fontColor=#000000;fillColor=#f8cecc;fontSize=16;fontStyle=1" parent="1" source="y_w_9SjiZQBzQXQu_Xhb-1" target="y_w_9SjiZQBzQXQu_Xhb-2" edge="1">
          <mxGeometry width="50" height="50" relative="1" as="geometry">
            <mxPoint x="400" y="-960" as="sourcePoint" />
            <mxPoint x="450" y="-1010" as="targetPoint" />
          </mxGeometry>
        </mxCell>
        <mxCell id="y_w_9SjiZQBzQXQu_Xhb-10" value="" style="endArrow=classic;html=1;rounded=0;exitX=0.5;exitY=1;exitDx=0;exitDy=0;exitPerimeter=0;entryX=0.549;entryY=-0.02;entryDx=0;entryDy=0;entryPerimeter=0;strokeColor=#b85450;fontColor=#000000;fillColor=#f8cecc;fontSize=16;fontStyle=1" parent="1" source="y_w_9SjiZQBzQXQu_Xhb-3" target="y_w_9SjiZQBzQXQu_Xhb-6" edge="1">
          <mxGeometry width="50" height="50" relative="1" as="geometry">
            <mxPoint x="400" y="-460" as="sourcePoint" />
            <mxPoint x="450" y="-510" as="targetPoint" />
          </mxGeometry>
        </mxCell>
        <mxCell id="y_w_9SjiZQBzQXQu_Xhb-11" value="true" style="text;html=1;align=center;verticalAlign=middle;whiteSpace=wrap;rounded=0;fontSize=16;fontColor=#000000;fontStyle=1" parent="1" vertex="1">
          <mxGeometry x="320" y="-520" width="60" height="30" as="geometry" />
        </mxCell>
        <mxCell id="y_w_9SjiZQBzQXQu_Xhb-12" value="SIMT103_FilterPricing.dmn" style="rounded=1;whiteSpace=wrap;html=1;absoluteArcSize=1;arcSize=14;strokeWidth=2;fillColor=#f8cecc;strokeColor=#b85450;fontSize=16;fontColor=#000000;fontStyle=1" parent="1" vertex="1">
          <mxGeometry x="185" y="-230" width="240" height="100" as="geometry" />
        </mxCell>
        <mxCell id="y_w_9SjiZQBzQXQu_Xhb-13" value="se objetivo de financimento for igual ao que está cadastrado no camunda e data de criação da proposta/simulação for maior ou igual a data de entrada do projeto em produção ( data cadastrada no camunda)&lt;br style=&quot;font-size: 16px;&quot;&gt;SIMT103_PRECIFICACAO_.dmn" style="strokeWidth=2;html=1;shape=mxgraph.flowchart.decision;whiteSpace=wrap;fillColor=#f8cecc;strokeColor=#b85450;fontSize=16;fontColor=#000000;fontStyle=1" parent="1" vertex="1">
          <mxGeometry x="150" y="-70" width="305" height="260" as="geometry" />
        </mxCell>
        <mxCell id="y_w_9SjiZQBzQXQu_Xhb-14" value="" style="endArrow=classic;html=1;rounded=0;exitX=0.5;exitY=1;exitDx=0;exitDy=0;exitPerimeter=0;entryX=0.476;entryY=-0.046;entryDx=0;entryDy=0;entryPerimeter=0;strokeColor=#b85450;fontColor=#000000;fillColor=#f8cecc;fontSize=16;fontStyle=1" parent="1" source="y_w_9SjiZQBzQXQu_Xhb-13" target="y_w_9SjiZQBzQXQu_Xhb-19" edge="1">
          <mxGeometry width="50" height="50" relative="1" as="geometry">
            <mxPoint x="400" y="60" as="sourcePoint" />
            <mxPoint x="305" y="250" as="targetPoint" />
          </mxGeometry>
        </mxCell>
        <mxCell id="y_w_9SjiZQBzQXQu_Xhb-15" value="" style="endArrow=classic;html=1;rounded=0;exitX=0.5;exitY=1;exitDx=0;exitDy=0;strokeColor=#b85450;fontColor=#000000;fillColor=#f8cecc;fontSize=16;fontStyle=1" parent="1" source="y_w_9SjiZQBzQXQu_Xhb-12" target="y_w_9SjiZQBzQXQu_Xhb-13" edge="1">
          <mxGeometry width="50" height="50" relative="1" as="geometry">
            <mxPoint x="400" y="60" as="sourcePoint" />
            <mxPoint x="450" y="10" as="targetPoint" />
          </mxGeometry>
        </mxCell>
        <mxCell id="y_w_9SjiZQBzQXQu_Xhb-16" value="" style="endArrow=classic;html=1;rounded=0;exitX=0.451;exitY=1.017;exitDx=0;exitDy=0;exitPerimeter=0;entryX=0.433;entryY=-0.026;entryDx=0;entryDy=0;entryPerimeter=0;strokeColor=#b85450;fontColor=#000000;fillColor=#f8cecc;fontSize=16;fontStyle=1" parent="1" source="y_w_9SjiZQBzQXQu_Xhb-6" target="y_w_9SjiZQBzQXQu_Xhb-12" edge="1">
          <mxGeometry width="50" height="50" relative="1" as="geometry">
            <mxPoint x="400" y="-340" as="sourcePoint" />
            <mxPoint x="450" y="-390" as="targetPoint" />
          </mxGeometry>
        </mxCell>
        <mxCell id="y_w_9SjiZQBzQXQu_Xhb-19" value="recuperar lista de taxas que é mostrada hoje na tela&lt;br style=&quot;font-size: 16px;&quot;&gt;normalmente essa lista vai ter duas taxas&amp;nbsp;&lt;br style=&quot;font-size: 16px;&quot;&gt;Bonificada e Padrão&amp;nbsp;&lt;br style=&quot;font-size: 16px;&quot;&gt;" style="rounded=1;whiteSpace=wrap;html=1;absoluteArcSize=1;arcSize=14;strokeWidth=2;fontSize=16;fillColor=#f8cecc;strokeColor=#b85450;fontColor=#000000;fontStyle=1" parent="1" vertex="1">
          <mxGeometry x="115" y="280" width="400" height="100" as="geometry" />
        </mxCell>
        <mxCell id="y_w_9SjiZQBzQXQu_Xhb-36" value="" style="edgeStyle=orthogonalEdgeStyle;rounded=0;orthogonalLoop=1;jettySize=auto;html=1;fontSize=16;strokeColor=#b85450;fontColor=#000000;fillColor=#f8cecc;fontStyle=1" parent="1" source="y_w_9SjiZQBzQXQu_Xhb-20" edge="1">
          <mxGeometry relative="1" as="geometry">
            <mxPoint x="320" y="620" as="targetPoint" />
          </mxGeometry>
        </mxCell>
        <mxCell id="y_w_9SjiZQBzQXQu_Xhb-37" style="edgeStyle=orthogonalEdgeStyle;rounded=0;orthogonalLoop=1;jettySize=auto;html=1;exitX=0.5;exitY=0;exitDx=0;exitDy=0;fontSize=16;strokeColor=#b85450;fontColor=#000000;fillColor=#f8cecc;fontStyle=1" parent="1" source="y_w_9SjiZQBzQXQu_Xhb-20" edge="1">
          <mxGeometry relative="1" as="geometry">
            <mxPoint x="320" y="450" as="targetPoint" />
          </mxGeometry>
        </mxCell>
        <mxCell id="y_w_9SjiZQBzQXQu_Xhb-20" value="l" style="verticalLabelPosition=bottom;verticalAlign=top;html=1;shape=hexagon;perimeter=hexagonPerimeter2;arcSize=6;size=0.2833333333333333;fontSize=16;fillColor=#f8cecc;strokeColor=#b85450;fontColor=#000000;fontStyle=1" parent="1" vertex="1">
          <mxGeometry x="120" y="440" width="400" height="120" as="geometry" />
        </mxCell>
        <mxCell id="y_w_9SjiZQBzQXQu_Xhb-22" value="" style="endArrow=classic;html=1;rounded=0;fontSize=16;exitX=0.5;exitY=1;exitDx=0;exitDy=0;entryX=0.483;entryY=0.008;entryDx=0;entryDy=0;entryPerimeter=0;strokeColor=#b85450;fontColor=#000000;fillColor=#f8cecc;fontStyle=1" parent="1" source="y_w_9SjiZQBzQXQu_Xhb-19" target="y_w_9SjiZQBzQXQu_Xhb-20" edge="1">
          <mxGeometry width="50" height="50" relative="1" as="geometry">
            <mxPoint x="90" y="480" as="sourcePoint" />
            <mxPoint x="140" y="430" as="targetPoint" />
          </mxGeometry>
        </mxCell>
        <mxCell id="y_w_9SjiZQBzQXQu_Xhb-23" value="Taxa taxa : listaTaxas()" style="text;html=1;strokeColor=none;fillColor=#f8cecc;align=center;verticalAlign=middle;rounded=0;fontSize=16;fontColor=#000000;fontStyle=1" parent="1" vertex="1">
          <mxGeometry x="190" y="480" width="275" height="50" as="geometry" />
        </mxCell>
        <mxCell id="y_w_9SjiZQBzQXQu_Xhb-24" value="se tipoTaxa for igual a Bonificada&amp;nbsp;" style="strokeWidth=2;html=1;shape=mxgraph.flowchart.decision;whiteSpace=wrap;fontSize=16;fillColor=#f8cecc;strokeColor=#b85450;fontColor=#000000;fontStyle=1" parent="1" vertex="1">
          <mxGeometry x="240" y="620" width="170" height="130" as="geometry" />
        </mxCell>
        <mxCell id="y_w_9SjiZQBzQXQu_Xhb-26" value="Aplicar Multiplicador sobre a Taxa&amp;nbsp;" style="text;html=1;align=center;verticalAlign=middle;whiteSpace=wrap;rounded=0;fontSize=16;fontColor=#000000;fontStyle=1" parent="1" vertex="1">
          <mxGeometry x="310" y="190" width="80" height="60" as="geometry" />
        </mxCell>
        <mxCell id="y_w_9SjiZQBzQXQu_Xhb-30" value="&lt;font style=&quot;font-size: 16px;&quot;&gt;chama rotina para calcular nova taxa&lt;br style=&quot;font-size: 16px;&quot;&gt;novaTaxa = calcularNovaTaxa ( taxaBonificada , taxaBonificadaMinima , taxaBonificadaMaxima , multiplicador)&amp;nbsp;&lt;/font&gt;" style="rounded=1;whiteSpace=wrap;html=1;absoluteArcSize=1;arcSize=14;strokeWidth=2;fontSize=16;fillColor=#f8cecc;strokeColor=#b85450;fontColor=#000000;fontStyle=1" parent="1" vertex="1">
          <mxGeometry x="73.75" y="820" width="502.5" height="90" as="geometry" />
        </mxCell>
        <mxCell id="y_w_9SjiZQBzQXQu_Xhb-32" value="" style="endArrow=classic;html=1;rounded=0;fontSize=16;exitX=1;exitY=0.5;exitDx=0;exitDy=0;exitPerimeter=0;entryX=0.25;entryY=0;entryDx=0;entryDy=0;strokeColor=#b85450;fontColor=#000000;fillColor=#f8cecc;fontStyle=1" parent="1" source="y_w_9SjiZQBzQXQu_Xhb-13" target="GO8eKCC_LW2oJfEmmLwh-2" edge="1">
          <mxGeometry width="50" height="50" relative="1" as="geometry">
            <mxPoint x="330" y="170" as="sourcePoint" />
            <mxPoint x="1020" y="960" as="targetPoint" />
            <Array as="points">
              <mxPoint x="1050" y="50" />
            </Array>
          </mxGeometry>
        </mxCell>
        <mxCell id="y_w_9SjiZQBzQXQu_Xhb-33" value="FIM" style="ellipse;whiteSpace=wrap;html=1;fontSize=16;fillColor=#f8cecc;strokeColor=#b85450;fontColor=#000000;fontStyle=1" parent="1" vertex="1">
          <mxGeometry x="1080" y="1340" width="120" height="80" as="geometry" />
        </mxCell>
        <mxCell id="y_w_9SjiZQBzQXQu_Xhb-38" value="Não aplicar Multiplicador sobre a taxa&amp;nbsp;" style="text;html=1;align=center;verticalAlign=middle;whiteSpace=wrap;rounded=0;fontSize=16;fontColor=#000000;fontStyle=1" parent="1" vertex="1">
          <mxGeometry x="480" y="70" width="170" height="30" as="geometry" />
        </mxCell>
        <mxCell id="y_w_9SjiZQBzQXQu_Xhb-39" value="" style="endArrow=classic;html=1;rounded=0;fontSize=16;exitX=1;exitY=0.5;exitDx=0;exitDy=0;exitPerimeter=0;strokeColor=#b85450;fontColor=#000000;entryX=0.5;entryY=0;entryDx=0;entryDy=0;fillColor=#f8cecc;fontStyle=1" parent="1" source="y_w_9SjiZQBzQXQu_Xhb-3" target="GO8eKCC_LW2oJfEmmLwh-2" edge="1">
          <mxGeometry width="50" height="50" relative="1" as="geometry">
            <mxPoint x="330" y="-510" as="sourcePoint" />
            <mxPoint x="1160" y="1100" as="targetPoint" />
            <Array as="points">
              <mxPoint x="1120" y="-620" />
              <mxPoint x="1140" y="1000" />
            </Array>
          </mxGeometry>
        </mxCell>
        <mxCell id="y_w_9SjiZQBzQXQu_Xhb-41" value="false" style="text;html=1;align=center;verticalAlign=middle;whiteSpace=wrap;rounded=0;fontSize=16;fontColor=#000000;fontStyle=1" parent="1" vertex="1">
          <mxGeometry x="425" y="-610" width="60" height="30" as="geometry" />
        </mxCell>
        <mxCell id="y_w_9SjiZQBzQXQu_Xhb-43" value="&lt;h1 style=&quot;font-size: 16px;&quot;&gt;&lt;font style=&quot;font-size: 16px;&quot;&gt;Taxa {&lt;/font&gt;&lt;/h1&gt;&lt;div style=&quot;font-size: 16px;&quot;&gt;&lt;font style=&quot;font-size: 16px;&quot;&gt;&lt;span style=&quot;background-color: initial; font-size: 16px;&quot;&gt;&amp;nbsp; &amp;nbsp; Double taxaAno;&lt;/span&gt;&lt;br style=&quot;font-size: 16px;&quot;&gt;&lt;/font&gt;&lt;/div&gt;&lt;div style=&quot;font-size: 16px;&quot;&gt;&lt;font style=&quot;font-size: 16px;&quot;&gt;&amp;nbsp; &amp;nbsp; Double taxaMinima;&lt;/font&gt;&lt;/div&gt;&lt;div style=&quot;font-size: 16px;&quot;&gt;&lt;font style=&quot;font-size: 16px;&quot;&gt;&amp;nbsp; &amp;nbsp; Double taxaMaxima;&amp;nbsp;&lt;/font&gt;&lt;/div&gt;&lt;div style=&quot;font-size: 16px;&quot;&gt;&lt;font style=&quot;font-size: 16px;&quot;&gt;&amp;nbsp; &amp;nbsp; String tipoTaxa&lt;span style=&quot;white-space: pre; font-size: 16px;&quot;&gt; &lt;/span&gt;&lt;br style=&quot;font-size: 16px;&quot;&gt;&lt;/font&gt;&lt;/div&gt;&lt;div style=&quot;font-size: 16px;&quot;&gt;&lt;font style=&quot;font-size: 16px;&quot;&gt;}&lt;/font&gt;&lt;/div&gt;" style="text;html=1;spacing=5;spacingTop=-20;whiteSpace=wrap;overflow=hidden;rounded=0;fontSize=16;fontColor=#000000;fontStyle=1" parent="1" vertex="1">
          <mxGeometry x="610" y="310" width="190" height="160" as="geometry" />
        </mxCell>
        <mxCell id="y_w_9SjiZQBzQXQu_Xhb-68" value="" style="endArrow=classic;html=1;rounded=0;fontSize=16;exitX=0.5;exitY=1;exitDx=0;exitDy=0;exitPerimeter=0;entryX=0.5;entryY=0;entryDx=0;entryDy=0;strokeColor=#b85450;fontColor=#000000;fillColor=#f8cecc;fontStyle=1" parent="1" source="y_w_9SjiZQBzQXQu_Xhb-24" target="y_w_9SjiZQBzQXQu_Xhb-30" edge="1">
          <mxGeometry width="50" height="50" relative="1" as="geometry">
            <mxPoint x="330" y="800" as="sourcePoint" />
            <mxPoint x="380" y="750" as="targetPoint" />
          </mxGeometry>
        </mxCell>
        <mxCell id="y_w_9SjiZQBzQXQu_Xhb-87" value="" style="edgeStyle=orthogonalEdgeStyle;rounded=0;orthogonalLoop=1;jettySize=auto;html=1;fontSize=16;strokeColor=#b85450;fontColor=#000000;fillColor=#f8cecc;fontStyle=1" parent="1" source="y_w_9SjiZQBzQXQu_Xhb-69" target="y_w_9SjiZQBzQXQu_Xhb-79" edge="1">
          <mxGeometry relative="1" as="geometry" />
        </mxCell>
        <mxCell id="y_w_9SjiZQBzQXQu_Xhb-69" value="chama rotina para calcular nova taxa&lt;br style=&quot;font-size: 16px;&quot;&gt;calcularNovaTaxa ( taxaPadrao , taxaPadraoMinima , taxaPadraoMaxima , multiplicador)&amp;nbsp;" style="rounded=1;whiteSpace=wrap;html=1;absoluteArcSize=1;arcSize=14;strokeWidth=2;fontSize=16;fillColor=#f8cecc;strokeColor=#b85450;fontColor=#000000;fontStyle=1" parent="1" vertex="1">
          <mxGeometry x="-460" y="640" width="502.5" height="90" as="geometry" />
        </mxCell>
        <mxCell id="y_w_9SjiZQBzQXQu_Xhb-70" value="" style="endArrow=classic;html=1;rounded=0;fontSize=16;exitX=0;exitY=0.5;exitDx=0;exitDy=0;exitPerimeter=0;entryX=1;entryY=0.5;entryDx=0;entryDy=0;strokeColor=#b85450;fontColor=#000000;fillColor=#f8cecc;fontStyle=1" parent="1" source="y_w_9SjiZQBzQXQu_Xhb-24" target="y_w_9SjiZQBzQXQu_Xhb-69" edge="1">
          <mxGeometry width="50" height="50" relative="1" as="geometry">
            <mxPoint x="560" y="860" as="sourcePoint" />
            <mxPoint x="610" y="810" as="targetPoint" />
          </mxGeometry>
        </mxCell>
        <mxCell id="y_w_9SjiZQBzQXQu_Xhb-72" value="true" style="text;html=1;align=center;verticalAlign=middle;whiteSpace=wrap;rounded=0;fontSize=16;fontColor=#000000;fontStyle=1" parent="1" vertex="1">
          <mxGeometry x="340" y="760" width="60" height="30" as="geometry" />
        </mxCell>
        <mxCell id="y_w_9SjiZQBzQXQu_Xhb-73" value="false" style="text;html=1;align=center;verticalAlign=middle;whiteSpace=wrap;rounded=0;fontSize=16;fontColor=#000000;fontStyle=1" parent="1" vertex="1">
          <mxGeometry x="190" y="640" width="60" height="30" as="geometry" />
        </mxCell>
        <mxCell id="y_w_9SjiZQBzQXQu_Xhb-74" value="atualiza o objeto Taxa com a nova taxa e depois atualiza a listaTaxas" style="rounded=1;whiteSpace=wrap;html=1;absoluteArcSize=1;arcSize=14;strokeWidth=2;fontSize=16;fillColor=#f8cecc;strokeColor=#b85450;fontColor=#000000;fontStyle=1" parent="1" vertex="1">
          <mxGeometry x="150" y="970" width="390" height="100" as="geometry" />
        </mxCell>
        <mxCell id="y_w_9SjiZQBzQXQu_Xhb-75" value="" style="endArrow=classic;html=1;rounded=0;fontSize=16;exitX=0.5;exitY=1;exitDx=0;exitDy=0;entryX=0.453;entryY=-0.042;entryDx=0;entryDy=0;entryPerimeter=0;strokeColor=#b85450;fontColor=#000000;fillColor=#f8cecc;fontStyle=1" parent="1" source="y_w_9SjiZQBzQXQu_Xhb-30" target="y_w_9SjiZQBzQXQu_Xhb-74" edge="1">
          <mxGeometry width="50" height="50" relative="1" as="geometry">
            <mxPoint x="340" y="930" as="sourcePoint" />
            <mxPoint x="390" y="880" as="targetPoint" />
          </mxGeometry>
        </mxCell>
        <mxCell id="y_w_9SjiZQBzQXQu_Xhb-76" value="comando para sair da estrutura de repetição" style="rounded=1;whiteSpace=wrap;html=1;absoluteArcSize=1;arcSize=14;strokeWidth=2;fontSize=16;fillColor=#f8cecc;strokeColor=#b85450;fontColor=#000000;fontStyle=1" parent="1" vertex="1">
          <mxGeometry x="195" y="1140" width="310" height="100" as="geometry" />
        </mxCell>
        <mxCell id="y_w_9SjiZQBzQXQu_Xhb-77" value="" style="endArrow=classic;html=1;rounded=0;fontSize=16;exitX=0.462;exitY=1;exitDx=0;exitDy=0;exitPerimeter=0;entryX=0.435;entryY=0;entryDx=0;entryDy=0;entryPerimeter=0;strokeColor=#b85450;fontColor=#000000;fillColor=#f8cecc;fontStyle=1" parent="1" source="y_w_9SjiZQBzQXQu_Xhb-74" target="y_w_9SjiZQBzQXQu_Xhb-76" edge="1">
          <mxGeometry width="50" height="50" relative="1" as="geometry">
            <mxPoint x="340" y="980" as="sourcePoint" />
            <mxPoint x="390" y="930" as="targetPoint" />
          </mxGeometry>
        </mxCell>
        <mxCell id="y_w_9SjiZQBzQXQu_Xhb-78" value="" style="endArrow=classic;html=1;rounded=0;fontSize=16;exitX=0.461;exitY=1.026;exitDx=0;exitDy=0;exitPerimeter=0;strokeColor=#b85450;fontColor=#000000;fillColor=#f8cecc;fontStyle=1" parent="1" source="y_w_9SjiZQBzQXQu_Xhb-76" edge="1">
          <mxGeometry width="50" height="50" relative="1" as="geometry">
            <mxPoint x="340" y="1170" as="sourcePoint" />
            <mxPoint x="338" y="1340" as="targetPoint" />
          </mxGeometry>
        </mxCell>
        <mxCell id="y_w_9SjiZQBzQXQu_Xhb-79" value="atualiza o objeto Taxa com a nova taxa e depois atualiza a listaTaxas" style="rounded=1;whiteSpace=wrap;html=1;absoluteArcSize=1;arcSize=14;strokeWidth=2;fontSize=16;fillColor=#f8cecc;strokeColor=#b85450;fontColor=#000000;fontStyle=1" parent="1" vertex="1">
          <mxGeometry x="-403.75" y="830" width="390" height="100" as="geometry" />
        </mxCell>
        <mxCell id="y_w_9SjiZQBzQXQu_Xhb-82" value="" style="group;fontSize=16;fontColor=#000000;fontStyle=1" parent="1" vertex="1" connectable="0">
          <mxGeometry x="1200" y="-300" width="480" height="1270" as="geometry" />
        </mxCell>
        <mxCell id="y_w_9SjiZQBzQXQu_Xhb-25" value="novaTaxa = taxa * multiplicador&amp;nbsp;&amp;nbsp;" style="rounded=1;whiteSpace=wrap;html=1;absoluteArcSize=1;arcSize=14;strokeWidth=2;fontSize=16;fillColor=#f8cecc;strokeColor=#b85450;fontColor=#000000;fontStyle=1" parent="y_w_9SjiZQBzQXQu_Xhb-82" vertex="1">
          <mxGeometry y="560" width="330" height="100" as="geometry" />
        </mxCell>
        <mxCell id="y_w_9SjiZQBzQXQu_Xhb-45" value="Se novaTaxa &amp;gt;= taxaMínima e&lt;br style=&quot;font-size: 16px;&quot;&gt;&amp;nbsp;novaTaxa &amp;lt;= taxaMáxima&amp;nbsp;" style="strokeWidth=2;html=1;shape=mxgraph.flowchart.decision;whiteSpace=wrap;fontSize=16;fillColor=#f8cecc;strokeColor=#b85450;fontColor=#000000;fontStyle=1" parent="y_w_9SjiZQBzQXQu_Xhb-82" vertex="1">
          <mxGeometry x="55" y="720" width="245" height="240" as="geometry" />
        </mxCell>
        <mxCell id="y_w_9SjiZQBzQXQu_Xhb-48" value="retorna novaTaxa" style="rounded=1;whiteSpace=wrap;html=1;absoluteArcSize=1;arcSize=14;strokeWidth=2;fontSize=16;fillColor=#f8cecc;strokeColor=#b85450;fontColor=#000000;fontStyle=1" parent="y_w_9SjiZQBzQXQu_Xhb-82" vertex="1">
          <mxGeometry x="50" y="1040" width="250" height="100" as="geometry" />
        </mxCell>
        <mxCell id="y_w_9SjiZQBzQXQu_Xhb-49" value="" style="endArrow=classic;html=1;rounded=0;fontSize=16;exitX=0.5;exitY=1;exitDx=0;exitDy=0;exitPerimeter=0;strokeColor=#b85450;fontColor=#000000;fillColor=#f8cecc;fontStyle=1" parent="y_w_9SjiZQBzQXQu_Xhb-82" source="y_w_9SjiZQBzQXQu_Xhb-45" edge="1">
          <mxGeometry width="50" height="50" relative="1" as="geometry">
            <mxPoint x="-170" y="-190" as="sourcePoint" />
            <mxPoint x="175" y="1040" as="targetPoint" />
          </mxGeometry>
        </mxCell>
        <mxCell id="y_w_9SjiZQBzQXQu_Xhb-50" value="Inicio&lt;br style=&quot;font-size: 16px;&quot;&gt;Rotina Calcular Nova Taxa" style="ellipse;whiteSpace=wrap;html=1;fontSize=16;fillColor=#f8cecc;strokeColor=#b85450;fontColor=#000000;fontStyle=1" parent="y_w_9SjiZQBzQXQu_Xhb-82" vertex="1">
          <mxGeometry x="110" width="170" height="80" as="geometry" />
        </mxCell>
        <mxCell id="y_w_9SjiZQBzQXQu_Xhb-51" value="taxa (que pode ser a bonificada ou a padrão )" style="shape=parallelogram;perimeter=parallelogramPerimeter;whiteSpace=wrap;html=1;fixedSize=1;fontSize=16;fillColor=#f8cecc;strokeColor=#b85450;fontColor=#000000;fontStyle=1" parent="y_w_9SjiZQBzQXQu_Xhb-82" vertex="1">
          <mxGeometry x="90" y="150" width="210" height="60" as="geometry" />
        </mxCell>
        <mxCell id="y_w_9SjiZQBzQXQu_Xhb-52" value="taxaMinima" style="shape=parallelogram;perimeter=parallelogramPerimeter;whiteSpace=wrap;html=1;fixedSize=1;fontSize=16;fillColor=#f8cecc;strokeColor=#b85450;fontColor=#000000;fontStyle=1" parent="y_w_9SjiZQBzQXQu_Xhb-82" vertex="1">
          <mxGeometry x="130" y="260" width="120" height="60" as="geometry" />
        </mxCell>
        <mxCell id="y_w_9SjiZQBzQXQu_Xhb-53" value="taxaMaxima" style="shape=parallelogram;perimeter=parallelogramPerimeter;whiteSpace=wrap;html=1;fixedSize=1;fontSize=16;fillColor=#f8cecc;strokeColor=#b85450;fontColor=#000000;fontStyle=1" parent="y_w_9SjiZQBzQXQu_Xhb-82" vertex="1">
          <mxGeometry x="130" y="350" width="120" height="60" as="geometry" />
        </mxCell>
        <mxCell id="y_w_9SjiZQBzQXQu_Xhb-54" value="" style="endArrow=classic;html=1;rounded=0;fontSize=16;exitX=0.567;exitY=1.043;exitDx=0;exitDy=0;entryX=0.56;entryY=0.03;entryDx=0;entryDy=0;entryPerimeter=0;exitPerimeter=0;strokeColor=#b85450;fontColor=#000000;fillColor=#f8cecc;fontStyle=1" parent="y_w_9SjiZQBzQXQu_Xhb-82" source="y_w_9SjiZQBzQXQu_Xhb-50" target="y_w_9SjiZQBzQXQu_Xhb-51" edge="1">
          <mxGeometry width="50" height="50" relative="1" as="geometry">
            <mxPoint x="-170" y="280" as="sourcePoint" />
            <mxPoint x="-120" y="230" as="targetPoint" />
          </mxGeometry>
        </mxCell>
        <mxCell id="y_w_9SjiZQBzQXQu_Xhb-55" value="" style="endArrow=classic;html=1;rounded=0;fontSize=16;exitX=0.5;exitY=1;exitDx=0;exitDy=0;entryX=0.5;entryY=0;entryDx=0;entryDy=0;strokeColor=#b85450;fontColor=#000000;fillColor=#f8cecc;fontStyle=1" parent="y_w_9SjiZQBzQXQu_Xhb-82" source="y_w_9SjiZQBzQXQu_Xhb-52" target="y_w_9SjiZQBzQXQu_Xhb-53" edge="1">
          <mxGeometry width="50" height="50" relative="1" as="geometry">
            <mxPoint x="-170" y="280" as="sourcePoint" />
            <mxPoint x="-120" y="230" as="targetPoint" />
          </mxGeometry>
        </mxCell>
        <mxCell id="y_w_9SjiZQBzQXQu_Xhb-56" value="" style="endArrow=classic;html=1;rounded=0;fontSize=16;exitX=0.5;exitY=1;exitDx=0;exitDy=0;entryX=0.5;entryY=0;entryDx=0;entryDy=0;strokeColor=#b85450;fontColor=#000000;fillColor=#f8cecc;fontStyle=1" parent="y_w_9SjiZQBzQXQu_Xhb-82" source="y_w_9SjiZQBzQXQu_Xhb-51" target="y_w_9SjiZQBzQXQu_Xhb-52" edge="1">
          <mxGeometry width="50" height="50" relative="1" as="geometry">
            <mxPoint x="210" y="270" as="sourcePoint" />
            <mxPoint x="260" y="220" as="targetPoint" />
          </mxGeometry>
        </mxCell>
        <mxCell id="y_w_9SjiZQBzQXQu_Xhb-57" value="Multiplicador" style="shape=parallelogram;perimeter=parallelogramPerimeter;whiteSpace=wrap;html=1;fixedSize=1;fontSize=16;fillColor=#f8cecc;strokeColor=#b85450;fontColor=#000000;fontStyle=1" parent="y_w_9SjiZQBzQXQu_Xhb-82" vertex="1">
          <mxGeometry x="115" y="450" width="120" height="60" as="geometry" />
        </mxCell>
        <mxCell id="y_w_9SjiZQBzQXQu_Xhb-58" value="" style="endArrow=classic;html=1;rounded=0;fontSize=16;exitX=0.443;exitY=1.017;exitDx=0;exitDy=0;exitPerimeter=0;strokeColor=#b85450;fontColor=#000000;fillColor=#f8cecc;fontStyle=1" parent="y_w_9SjiZQBzQXQu_Xhb-82" source="y_w_9SjiZQBzQXQu_Xhb-53" target="y_w_9SjiZQBzQXQu_Xhb-57" edge="1">
          <mxGeometry width="50" height="50" relative="1" as="geometry">
            <mxPoint x="-10" y="490" as="sourcePoint" />
            <mxPoint x="40" y="440" as="targetPoint" />
          </mxGeometry>
        </mxCell>
        <mxCell id="y_w_9SjiZQBzQXQu_Xhb-59" value="" style="endArrow=classic;html=1;rounded=0;fontSize=16;exitX=0.533;exitY=1.022;exitDx=0;exitDy=0;exitPerimeter=0;entryX=0.5;entryY=0;entryDx=0;entryDy=0;entryPerimeter=0;strokeColor=#b85450;fontColor=#000000;fillColor=#f8cecc;fontStyle=1" parent="y_w_9SjiZQBzQXQu_Xhb-82" source="y_w_9SjiZQBzQXQu_Xhb-25" target="y_w_9SjiZQBzQXQu_Xhb-45" edge="1">
          <mxGeometry width="50" height="50" relative="1" as="geometry">
            <mxPoint x="10" y="720" as="sourcePoint" />
            <mxPoint x="60" y="670" as="targetPoint" />
          </mxGeometry>
        </mxCell>
        <mxCell id="y_w_9SjiZQBzQXQu_Xhb-60" value="" style="endArrow=classic;html=1;rounded=0;fontSize=16;exitX=0.5;exitY=1;exitDx=0;exitDy=0;entryX=0.526;entryY=-0.018;entryDx=0;entryDy=0;entryPerimeter=0;strokeColor=#b85450;fontColor=#000000;fillColor=#f8cecc;fontStyle=1" parent="y_w_9SjiZQBzQXQu_Xhb-82" source="y_w_9SjiZQBzQXQu_Xhb-57" target="y_w_9SjiZQBzQXQu_Xhb-25" edge="1">
          <mxGeometry width="50" height="50" relative="1" as="geometry">
            <mxPoint x="-10" y="530" as="sourcePoint" />
            <mxPoint x="40" y="480" as="targetPoint" />
          </mxGeometry>
        </mxCell>
        <mxCell id="y_w_9SjiZQBzQXQu_Xhb-61" value="" style="endArrow=classic;html=1;rounded=0;fontSize=16;strokeColor=#b85450;fontColor=#000000;fillColor=#f8cecc;fontStyle=1" parent="y_w_9SjiZQBzQXQu_Xhb-82" source="y_w_9SjiZQBzQXQu_Xhb-45" edge="1">
          <mxGeometry width="50" height="50" relative="1" as="geometry">
            <mxPoint x="300" y="890" as="sourcePoint" />
            <mxPoint x="370.71067811865476" y="840" as="targetPoint" />
          </mxGeometry>
        </mxCell>
        <mxCell id="y_w_9SjiZQBzQXQu_Xhb-62" value="retorna taxa (anterior)" style="rounded=1;whiteSpace=wrap;html=1;absoluteArcSize=1;arcSize=14;strokeWidth=2;fontSize=16;fillColor=#f8cecc;strokeColor=#b85450;fontColor=#000000;fontStyle=1" parent="y_w_9SjiZQBzQXQu_Xhb-82" vertex="1">
          <mxGeometry x="370" y="790" width="100" height="100" as="geometry" />
        </mxCell>
        <mxCell id="y_w_9SjiZQBzQXQu_Xhb-63" value="Fim" style="strokeWidth=2;html=1;shape=mxgraph.flowchart.start_1;whiteSpace=wrap;fontSize=16;fillColor=#f8cecc;strokeColor=#b85450;fontColor=#000000;fontStyle=1" parent="y_w_9SjiZQBzQXQu_Xhb-82" vertex="1">
          <mxGeometry x="125" y="1210" width="100" height="60" as="geometry" />
        </mxCell>
        <mxCell id="y_w_9SjiZQBzQXQu_Xhb-64" value="" style="endArrow=classic;html=1;rounded=0;fontSize=16;exitX=0.5;exitY=1;exitDx=0;exitDy=0;strokeColor=#b85450;fontColor=#000000;fillColor=#f8cecc;fontStyle=1" parent="y_w_9SjiZQBzQXQu_Xhb-82" source="y_w_9SjiZQBzQXQu_Xhb-48" edge="1">
          <mxGeometry width="50" height="50" relative="1" as="geometry">
            <mxPoint x="-10" y="1080" as="sourcePoint" />
            <mxPoint x="175" y="1200" as="targetPoint" />
          </mxGeometry>
        </mxCell>
        <mxCell id="y_w_9SjiZQBzQXQu_Xhb-65" value="" style="endArrow=classic;html=1;rounded=0;fontSize=16;exitX=0.5;exitY=1;exitDx=0;exitDy=0;strokeColor=#b85450;fontColor=#000000;fillColor=#f8cecc;fontStyle=1" parent="y_w_9SjiZQBzQXQu_Xhb-82" source="y_w_9SjiZQBzQXQu_Xhb-62" target="y_w_9SjiZQBzQXQu_Xhb-66" edge="1">
          <mxGeometry width="50" height="50" relative="1" as="geometry">
            <mxPoint x="-10" y="980" as="sourcePoint" />
            <mxPoint x="420" y="960" as="targetPoint" />
          </mxGeometry>
        </mxCell>
        <mxCell id="y_w_9SjiZQBzQXQu_Xhb-66" value="Fim" style="ellipse;whiteSpace=wrap;html=1;fontSize=16;fillColor=#f8cecc;strokeColor=#b85450;fontColor=#000000;fontStyle=1" parent="y_w_9SjiZQBzQXQu_Xhb-82" vertex="1">
          <mxGeometry x="360" y="950" width="120" height="80" as="geometry" />
        </mxCell>
        <mxCell id="y_w_9SjiZQBzQXQu_Xhb-80" value="true" style="text;html=1;align=center;verticalAlign=middle;whiteSpace=wrap;rounded=0;fontSize=16;fontColor=#000000;fontStyle=1" parent="y_w_9SjiZQBzQXQu_Xhb-82" vertex="1">
          <mxGeometry x="190" y="970" width="60" height="30" as="geometry" />
        </mxCell>
        <mxCell id="y_w_9SjiZQBzQXQu_Xhb-81" value="false" style="text;html=1;align=center;verticalAlign=middle;whiteSpace=wrap;rounded=0;fontSize=16;fontColor=#000000;fontStyle=1" parent="y_w_9SjiZQBzQXQu_Xhb-82" vertex="1">
          <mxGeometry x="300" y="790" width="60" height="30" as="geometry" />
        </mxCell>
        <mxCell id="y_w_9SjiZQBzQXQu_Xhb-85" style="edgeStyle=orthogonalEdgeStyle;rounded=0;orthogonalLoop=1;jettySize=auto;html=1;exitX=0.5;exitY=0;exitDx=0;exitDy=0;entryX=0.484;entryY=-0.006;entryDx=0;entryDy=0;entryPerimeter=0;fontSize=16;strokeColor=#b85450;fontColor=#000000;fillColor=#f8cecc;fontStyle=1" parent="1" source="y_w_9SjiZQBzQXQu_Xhb-79" target="y_w_9SjiZQBzQXQu_Xhb-79" edge="1">
          <mxGeometry relative="1" as="geometry" />
        </mxCell>
        <mxCell id="y_w_9SjiZQBzQXQu_Xhb-88" value="" style="endArrow=classic;html=1;rounded=0;fontSize=16;exitX=0.442;exitY=1.022;exitDx=0;exitDy=0;exitPerimeter=0;entryX=0;entryY=0.5;entryDx=0;entryDy=0;strokeColor=#b85450;fontColor=#000000;fillColor=#f8cecc;fontStyle=1" parent="1" source="y_w_9SjiZQBzQXQu_Xhb-79" target="y_w_9SjiZQBzQXQu_Xhb-20" edge="1">
          <mxGeometry width="50" height="50" relative="1" as="geometry">
            <mxPoint x="90" y="960" as="sourcePoint" />
            <mxPoint x="-590" y="520" as="targetPoint" />
            <Array as="points">
              <mxPoint x="-231" y="1020" />
              <mxPoint x="-600" y="1020" />
              <mxPoint x="-610" y="500" />
            </Array>
          </mxGeometry>
        </mxCell>
        <mxCell id="y_w_9SjiZQBzQXQu_Xhb-90" value="Fim" style="ellipse;whiteSpace=wrap;html=1;fontSize=16;fillColor=#f8cecc;strokeColor=#b85450;fontColor=#000000;fontStyle=1" parent="1" vertex="1">
          <mxGeometry x="265" y="1520" width="120" height="80" as="geometry" />
        </mxCell>
        <mxCell id="y_w_9SjiZQBzQXQu_Xhb-91" value="" style="endArrow=classic;html=1;rounded=0;fontSize=16;exitX=1;exitY=0.5;exitDx=0;exitDy=0;strokeColor=#b85450;fontColor=#000000;fillColor=#f8cecc;fontStyle=1" parent="1" source="y_w_9SjiZQBzQXQu_Xhb-20" edge="1" target="GO8eKCC_LW2oJfEmmLwh-4">
          <mxGeometry width="50" height="50" relative="1" as="geometry">
            <mxPoint x="630" y="550" as="sourcePoint" />
            <mxPoint x="410" y="1400" as="targetPoint" />
            <Array as="points">
              <mxPoint x="660" y="500" />
              <mxPoint x="650" y="1400" />
            </Array>
          </mxGeometry>
        </mxCell>
        <mxCell id="1vV-A9xsZqkKaeJYYZjJ-2" value="Consulta na Tabela de Precificação" style="swimlane;fontSize=16;fillColor=#f8cecc;strokeColor=#b85450;fontColor=#000000;fontStyle=1" parent="1" vertex="1">
          <mxGeometry x="600" y="-1140" width="830" height="410" as="geometry" />
        </mxCell>
        <mxCell id="1vV-A9xsZqkKaeJYYZjJ-3" value="&lt;div style=&quot;font-size: 16px;&quot;&gt;&lt;br style=&quot;font-size: 16px;&quot;&gt;&lt;/div&gt;&lt;div style=&quot;font-size: 16px;&quot;&gt;&lt;br style=&quot;font-size: 16px;&quot;&gt;&lt;/div&gt;&lt;div style=&quot;font-size: 16px;&quot;&gt;&amp;nbsp; &amp;nbsp; SELECT&lt;/div&gt;&lt;div style=&quot;font-size: 16px;&quot;&gt;&lt;span style=&quot;font-size: 16px;&quot;&gt;&lt;/span&gt;&amp;nbsp; &amp;nbsp; &amp;nbsp; &amp;nbsp;SIM.CD_OBJ_FINANC ,&lt;/div&gt;&lt;div style=&quot;font-size: 16px;&quot;&gt;&lt;span style=&quot;font-size: 16px;&quot;&gt;&lt;/span&gt;&amp;nbsp; &amp;nbsp; &amp;nbsp; &amp;nbsp;SIM.ID_SIMULACAO ,&lt;/div&gt;&lt;div style=&quot;font-size: 16px;&quot;&gt;&lt;span style=&quot;font-size: 16px;&quot;&gt;&lt;/span&gt;&amp;nbsp; &amp;nbsp; &amp;nbsp; &amp;nbsp;SPES.NR_DOCUMENTO ,&lt;/div&gt;&lt;div style=&quot;font-size: 16px;&quot;&gt;&lt;span style=&quot;font-size: 16px;&quot;&gt;&lt;/span&gt;&amp;nbsp; &amp;nbsp; &amp;nbsp; &amp;nbsp;SPES.NR_ORDEM ,&lt;/div&gt;&lt;div style=&quot;font-size: 16px;&quot;&gt;&lt;span style=&quot;font-size: 16px;&quot;&gt;&lt;/span&gt;&amp;nbsp; &amp;nbsp; &amp;nbsp; &amp;nbsp;SIM.DH_INCLUSAO ,&lt;/div&gt;&lt;div style=&quot;font-size: 16px;&quot;&gt;&lt;span style=&quot;font-size: 16px;&quot;&gt;&lt;/span&gt;&amp;nbsp; &amp;nbsp; &amp;nbsp; &amp;nbsp;PREC.PC_MULTIPLICADOR&lt;/div&gt;&lt;div style=&quot;font-size: 16px;&quot;&gt;FROM&lt;/div&gt;&lt;div style=&quot;font-size: 16px;&quot;&gt;&lt;span style=&quot;font-size: 16px;&quot;&gt;&lt;/span&gt;&amp;nbsp; SIM_SIMULACAO SIM&lt;/div&gt;&lt;div style=&quot;font-size: 16px;&quot;&gt;&amp;nbsp; &amp;nbsp; &amp;nbsp; INNER JOIN SIM_PESSOA SPES ON&amp;nbsp;&lt;span style=&quot;background-color: initial; font-size: 16px;&quot;&gt;&amp;nbsp;SIM.ID_SIMULACAO = SPES.ID_SIMULACAO&lt;/span&gt;&lt;/div&gt;&lt;div style=&quot;font-size: 16px;&quot;&gt;&amp;nbsp; &amp;nbsp; &amp;nbsp; INNER JOIN PRT_PRECIFICACAO PREC ON&amp;nbsp;&lt;span style=&quot;background-color: initial; font-size: 16px;&quot;&gt;PREC.NR_CPF_CNPJ = SPES.NR_DOCUMENTO&lt;/span&gt;&lt;/div&gt;&lt;div style=&quot;font-size: 16px;&quot;&gt;WHERE&lt;/div&gt;&lt;div style=&quot;font-size: 16px;&quot;&gt;&amp;nbsp; &amp;nbsp; &amp;nbsp; SIM.ID_SIMULACAO = :ID_SIMULACAO&lt;/div&gt;&lt;div style=&quot;font-size: 16px;&quot;&gt;&lt;span style=&quot;font-size: 16px;&quot;&gt;&lt;/span&gt;&amp;nbsp; &amp;nbsp; &amp;nbsp; AND SPES.NR_ORDEM = 0&lt;/div&gt;" style="text;html=1;align=left;verticalAlign=middle;resizable=0;points=[];autosize=1;strokeColor=#b85450;fillColor=#f8cecc;fontSize=16;fontColor=#000000;fontStyle=1" parent="1vV-A9xsZqkKaeJYYZjJ-2" vertex="1">
          <mxGeometry x="30" y="50" width="760" height="320" as="geometry" />
        </mxCell>
        <mxCell id="1vV-A9xsZqkKaeJYYZjJ-4" value="" style="shape=image;verticalLabelPosition=bottom;labelBackgroundColor=default;verticalAlign=top;aspect=fixed;imageAspect=0;image=data:image/png,iVBORw0KGgoAAAANSUhEUgAAAyoAAADHCAYAAAD2+6cGAAAgAElEQVR4nOy9aXBU17Ww/ZxGBKTuFrbowZIMGhwNaLgmFgLbCEvCQHJvGfAQ8yVvUa767Mu1qfz5/nx1y3GI49hxKv+/txzihB8pKqng62Cw670uvYBEAL/Bkhw7GtBgUAuD5B6Y1N2SMNDn+3F6nltqDZj1VKlKOnvvtdbeZ9BeZ6+1j9LU3KoSxop8IyuMBgAuXh7HYipg+bJl3LlzB8/kFPEI1L/h9nBjwh23DsCk+wZ5xhUJywVBEARBEARBEAByog/cuXOH6Zs3Yyre8fm4efOb+FKMWbdLEARBEARBEIR7mBhHxeOdxOOdjKn4naVLsZgK5sUoQRAEQRAEQRDubXQLbYAgCIIgCIIgCEI04qgIgiAIgiAIgrDoiAn9imZyapqb39xKS1jCHBZBEARBEARBEIQMSOmoxMtX+TaQv1xlTWFmbc6Nw8S0MjcGCYIgCIIgCIIQJKWj8m3FmAsbytXUFcO4dF1hYnqODBIEQRAEQRAEIYjkqAiCIAiCIAiCsOi4Z1dUBNjW+BT7+IxNnWPxywrHefNIF23KwoW7+Sw1bK3JxdbZxXlvyA6fqqdifQOlXOTspyN4FsBGa90T1HGO473O+GUmF73tfdhnYZvPUsO2WnPEMdUzmrTPgbHRj57kn46wMYsny9kftD+6PLwsnfag9bverMTYGWjr6OuIsGmm1D//Ks9UDnH4rf+iZwGvz3j4VAtbXnkJ85m3+Uvv4rJNEARBEO4mFqWjYrFa+MG273P06Idcv3E9bp3y8nI2rN/A4Q8OMz2deTyWy63w/meZt5lrfMUNnKny8OLxAYazOAHLVG5b50e0AaSoO1f2gn/CXWLC2X8ywkkBwGDGhBePfiVWwwgeb1ZVzxp779+wQ+rxs9SwtWQyxvEId8T+fqIjssxSw7bNLXEn/eGOgiOOvmjHIkKfZTKoy6eaWdu6hg1lk5wd8aZsD2Aoa6DO5KLnhOacWeueYEO9l+O9TnSOftqoYWtJGQb77B3Lnvd+TQ+kHN/5pv75V3m2SrNpYIFtEQRBEIS7nUUZ+qXPM1BQUMCuXc9z34r7YsrLy8vZsX07RqOBZcuXzUjHshyVB+8jo59lOZnltAizJQ+93oXdHltSWLYaXAPYXHpKyyzzb9ocU1jfgMnVzfFOW8ykXufop+3TUXJr1vGQPnRN+iw1fkehH4cae63m63MT6tMpXs73hnTpFCcXRr0YTGYMflnJ2vtUPVaTHmd/aAVpfOQiHpMZa8AW7ySe9Lp/V+Kre45nKof465tHGIgz/oIgCIIgZMaiXFEZGbnA0Q8/ZMf27eza9TyHDr0XXFkJOCmTk5McOvQeN27cmJGOuUqmr6hu4UCVMXRgrDsYWuVTi/jNzkps7e3s96/O+IxV/KnVwB+PdMH67ewr0o4feLoy2HZb41O84D7JGzSEZLuHgqsYM5WbjIDO3QNuTV5xA2fWFWmFqpuD7e2MVGcuNxv4VDNWkxfXiIdxLlLaaMaqOoIT5FDo0zmoWYMZFz0nbBg3rIs41tvex7ihjMcaV2NUYsOV4oV2Gcoa2GC6wtlPR5LaaK17glJvd3A1IjxsSlU92Dq78JQ1B1c/Ht1cElyt8FlqqMu9yNkeDygKhrIGHi01AOBwOsn1jnJ2xEbf6Eo2lFk477dP5+jnuAN8mLFmYZwnvFNgyoKgWeCre443nq4CQFWdnH73d5xwKNQ//ypNzj/wTocjok446uARfvleHwDWlj280mSOkZNNdL3v88te8FFLTVYlC4IgCMK9yaJ0VAAuXIh1VgpWFkQ4KYnCwhaKiuoWDlS6efODdtoUBZ9qZO+TzZxqJK0JfFvnR3ycIJSqpKqF1wc72HTEHZR7YL171nLTwWes4k8NRg6eOMp+t4KvuIq9WZA7Y6xmzN4rXPAAOHF5G7BawR4V65RbYsbVeZJ/ehV8ih5j1DEUhXxLHq7Ok5z1KkEHJxCuNO5wUVeix6A6/OFQ/lWD0S48ioI+TXN9+lIeq8ll5NMOznsVfJZSKtDCw8bjhH4VWkx4XN14/E7KBtMV/n6iiwkMVKxvAEcfoDDhuIKnJmRfOijmGra0ar8nC+MK2MHUuQjZidrrFC/Doy621tRitWurKoVlqzG4zs04R8dnaeYnOws49btfccKh4KtrZkucerre93mjN/S3tWUPL1cNsf9QLyhK8O/fvvk77IqCr+45frHnhzgXYX6LIAiCIAghFq2jApHOyo9+tIvly3MXrZPiU4t4sRIOtoeSz3WKm3c6h9nUWsg29TIfz0bBWHdwdSMkt5KXjZd5Z2L29qfGzcgEoIDu8iD7SX+Cl+iNN4Dj9O95pyNeNgVg0BMv2Ch8Iq/Di93lZYPFAo6oSbdrNDa3JeqYZ6QfD4HzpU22S/3OyYTdibNmdSgHxmDGpHdhs0MG3fczhcejtdM5bJxPIMCn6jHkaqtFPtWA1QS2/pFgXz1TpO0gReMZ6ebYSECPloPyZB1xnZVAvklvuyOYB5Kqvc7Rz1l9A49ubqGeOI6Qx8uUfnWGOUVXcfrHW9d7khMpBt5naebZjXD63Q7NKVFraQn7G4CeU5ze+BI19dDTG0fGTK9XQRAEQRCyyqJ2VCDSWcmmk5L1ZPoHC2nCTbt/Mh9kws1XFFKWD8zCoRh1uyMP+OXOCxNjnPI0s+/pHbR2HeXVy5nN0qPfeKeDTzWztjEPW9SuWT59KaX+sK/AQE84ruBpXM1DekeEEzLlDdVJdiw8tAq08C/Q8jTsrjWUWgycH/GSb1mJwXUx8xUCj7bqU7+5Bessdr0KODHewCRfn4dhyjmjxHSd4uTzfjNbayLD5iC9Hcui24/7V3tKp85xrF1zTgxlDTzZYg7K0SlOPm+Hta21WNPZDc1+jkHXSzy77zVqPvhVyh20fKqFLc88Dmf+EArrqq+mWjFT/R+vsSmqfqJk95lcr4IgCIIgZJ+c/PvyMRhWkJOTXZ9F9fn45ptbOF0OfLdvz0rWhQsX+ODIUa5fu5a1lZRAMn0muKdUbt6+90JFdIqb/Sc+4h1jFX9q3c6phrnftlinOPm8U89jrbUQNqnNt6zEqBgwrm+hLLqR36FIl8CqgNl7kb+f6Apuo7u1JFRHC/8yY7iAP+zLQabLKTrFy/nOvzGsL+WxxmaerEnsBOgUL54pPVY9aJnnevR6wAtYSygzGHDowefx74g22pexPUG8k3jIC/4Z3Gls6hzHO5ypd9QKb28toVTvovfT0ArMxIUBbKYGSssN2Ee8/vFejbezKy1nT6c4OLH/1xyzNPOTPT/l5zuTb0dc2LqTJj5hf7s9wnZVHUzQ7t67lwVBEAThbiKnoMCcutZM0OnIzclh9aoSxi59xTe3vpmVOJstefJypmQ9mX7Cw2hg5SR88SPfyKrASks88g2UJCgKp8RojBQcvoIzC7mZoHMP8j+OjLH3yWZeWJNP24A7dSNmEUrj8TIVNZG2mvS4bV0RW+ZCIMndjOGCJ/2FK4OeXFz0huWHaDtbTYbqBMK/rMwi7EtD57Xxf9qdmjPgn7zHY9zhos5iQedwMtx/kccam9lSq6A6+2nrg221LWyrZfbfJNHnYQj7s7De76QkyVtJ1j4lBj25gdyiDMzWOU7yP986x5ZXXqKp1UpPnOvFV/ccL0eHeAE4XDipxGwl/n7NcZDQL0EQBEFYHMx96JcClgce4NJXF+dc1UKicw/yx/EK9rWuY8S/2uBTjextrIChk9rqg+rG5jGwu7qY/Z1j2m5dDYXAeKQwg4EyYDj8WFEDvy6+zKuXlWC70WzITQNfcQO/oSsi5Osrd1iMWwq5WQulMZgx6b24+mNnuhOOK3hKVlNuHeHzONsZJyYXgwHsXi2srLZED94rIdsD4V8lzCzsC23Hr7X0RTgVESFo+jyCCygA9lFsJQ38i8XBPx02znbYQvbg5FhwnpxBnpCqp6LejL3H/wFGfSmP1ZjwjHZruRz+kDpbZ/wVo1TtNYduDXX1Fux+Rye/vJpSvRdbnPOVls11z/Fj/isi5OuqK9ZT9Km1/HhnJc7wkC8/OsdJTg89zjNhyfM+1cKWXWvoO9QRf1VLQr8EQRAEYVEwLzkqOTlL50PNgtPW+REj1S0ceHoH+/zHRgc7IpPgj39G6c5HOLWzAdQx3mwfZlVr2HvpS0McrNLyQfaFbfc7OtiNrWo7p9b5J1Zj3WzKglyKGrQ2AfzbHkcw4WFVa0j36GAHuwNOSyK5c0Bh2WoM3ov0xZv3epy4vKsptVjAPhmveQw6r7bF76P+MDLVM8rZfhcbopaixkcuUtq4Elt/7CQ+fBcsCG1vHIF3klz/qgigrQgFJtR+p6R+cwt1/uRzneJl+NNzrG1t5klL7AqHta4Bw0hX7EYBqchdzaObQ52LXZHRUxYnpM7R16E5f0nah/JP1rClVducN7ANc8Z2BhW4KNjzU15/2v8By9O/5504eSoP79pBtaJA07/zelPoeGB74p73fg3Pv8qz+17j2YDo07/nhOz4JQiCIAiLGmX3//3v8/JlMtuF80y6b5BnXDEf6lKyLAdMxsy67nIr3Jxdus2MiP6myb2CljNRDf2zmOxmw44EX4+fD6IT/SH1tsKLlYUcR0EQBEEQ7j4W/a5fc8XN23D5mkyWFjPadsFTbG1cB7N5Mz8LfKqWtB7YDnm+Cd8S+G4m8MFLR1+HOCmCIAiCIKTFPeuoCHcHga+tL8QOTda6J6g3a0nsxzPYTUyIRefo9+fWiJMiCIIgCEJ6iKNyF9DW+RFtC23EPYi9929klJcvCIIgCIIgZA3dQhsgCIIgCIIgCIIQjTgqgiAIgiAIgiAsOiJCv/KNRiorvsvKgpXk5S7ntu8OXq8X2+hXXBgJZfQqikJlRQWrHiwmLzeXJTodk1PTOJwOhs9fwOPxxCgSBEEQBEEQBEFIl6CjUrtmDd99qJycHO3Q9M1pluiWcP9993P/ffdjXrmS6xM3ALj/vvspLioE4JtvbnHr1i0MBj0GQxmrVj3Il+cv0H9uII46QRAEQRAEQRCE1AQdleqqSgC+tjv47PN/MDU1DcAD1gd4dP06HnywmAcpDja8fecOfz/7KXaH9pns3OW5rHvke1gsZtZUVYmjIgiCIAiCIAjCjInJUek/NxB0UgC+tn/N2Pg4AC7XFa5cuQrApcuXg04KwNT0FP0D4pwIgiAIgiAIgjB7go6Ky3UFgG9ufRNTaXJqCoALNhu2i6MATPmPhXPr1i2ACAdGEARBEARBEAQhU4KhXxPuCUymldyXn4/XG/lxu+XLlwNw85ubfGfp0ohj4azIz9dkTbjnzODFTv5ylTWFmbU5Nw4T0/IhPEEQBEEQBEEIEHRUvrY7KC8ro6ZmDVeuXmP6phb+dd+KFTxYVASAe8KNbskSVFVl1YMPcv78BW5MTABajkrNmmrg3l5RMebChnI1ozaXritMTKeuJwiCIAiCIAj3CkFHZfzrr/na/jUPWB/g+9u2cOXKFZYuXcr9961AUXRcunSZqWltNj0+Pk5RURGbW5q5fuMGt2/dpqDgfnJychgbG7unHRVBEARBEARBEGZPxHdU/v5pF3U1NTxUXorVYgHA5/NhGx3li56eYL3Oz/7Bw7dusXrVKgruv1+rp6oMf3me3nPn5tH8e4ttjU+xr8gfIuYe4sXjAwwr2Q8Z81lq2FqTi62zi/NeBWvdE9RxjuO9zqzrmi+sdU9Qb44cK9XZv6B9irYpHXt8qp6K9Q3oR0/yT8fiDBf0WWrYVmuOOKZ6Rjn76QieBNdron7FlRU2TtHl8cYwILvMoCS1Jfq6D8h29HUkHGufamHLKy9hPvM2f+aH/GKji/2/7cCe4r6sf/5Vmpx/4J2O+XmpU//8qzzDUX75Xt+86JsL6p9/lWerou7hwSML2qdom9KxJ/ya+Uvv4ryHA/jqnuMXOws49bv/j/KHvsH+hYGPpha3zdFk816b7/s2gLVlDy+bP4m4tpJde/XPv8ozlUMcfuu/6JmDOUJAx2zHItt2xntGBFjoZ8W3DZ96iz2PTc/LMyHCUblz5w5f9PTQ09dHfr4RBR0T7gnu3LkT0ej27dt0/+NzvujpxWgwoNPpmHC7g8n0ixWL1cIPtn2fo0c/5PqN63HrlJeXs2H9Bg5/cJjp6czjsVxuhfc/y7xNKiqqW9hnHObFDwYYJJ+9TzZzYL2bTZ1jGduYDJ+qp6LEhLP/JOe9M7v4fJYatpZMJp2YziWJ9EdMcFUza1vXsKFskrMj3kSi0pKbsX3+iXPp1DmOtYcm1dayUgyqY0HGLBsE+8VF/n6iI6IfPksN2za3xJ30hzts8f7lJXLgfKqeCstkUFe8cxqwyeTq5lhn2HmOdlL81z2E6ugc/bRRw9aSMgz2hbmWFwpf3XNpO13zqT98suFTa/nxz3awt8WZ9mQpW/0KOBtNV4/yxlthk8eWZqyquiBjlm18qoUtGysZPPI27c5lTBRMsXWlj48uLVlo0+4a5uI+Sufa63nv1/RAzHNuIYk3Ftm2MyiPb8fLmcWMTlnK59e88/JMiNmeGLRVlOvXb3Dt+rUYJyWc27dvc+36da5cvbronRQAfZ6BgoICdu16nvtW3BdTXl5ezo7t2zEaDSxbvmxGOpblqDx4Hxn9LMtJntPiU4t4sdLA6UFtBUWnuHmnc5jRwkpeNmaWD5OaPPR6F3Z7lsUuMnSKkwujXgwmMwY122OYAoMZk96LbSRycmUfsd3Vk+HCes0hON4Z2w+do5+2T0fJrVnHQ/rQePssNdSZXPSc6McR5zzk63MT6tMpXs73hnTFO6f55dWUTp1L6Yxq9VzEuEPeSTxJWwoLhU7po+OMC3PVGqzzfQ9b11BlcnH6ZG/E4Z6Ok98KJ0XDjNk0RL9/5td5cRmYvqFovsdaiOSeuPaEu4H5eibkpK7y7WFk5AJHP/yQHdu3s2vX8xw69F5wZSXgpExOTnLo0HvcuHFjRjrmJJk+38gqxvnjJSDwHJpw8xUVlOYD87jJWihEpxtviRZOo6qeiDCxwNvxRzeXRLwNN5Q18GipASCiTUjmOahZgxkXve192BUlYRuIDPsJlHnKmhPqj8uUNzjR9elLeaxxNUYlNkRoJv1KZOOwx8sUq9HrCX+BH0O4XABHXwefBx1IAw81xo5/vLbR5da6Jyj1nsNlWhMMh3L0dfC5tyzYf1V1Bs9BqrEJ9LMu9yJnezwQdd4cTie53lHOjtjoG13JhjIL5/1jp3P0c9wBPsxYEw9F2kx4p8Ck/e5T9VhNepyjDkI3Tiw+fSm1JVP0tjuxtq7OSJ9OcXBi/68BBR3v88teIt4OWlv28EpTKDRt4INfxQ338Vma+cmex7EExtd5JuLNo6/uOd54ukorU52cfvd3nHAoCY8nIxR69AecG19ik1mJaBsKn6jilX0bI1YxwvsTYUdQ5lHYuYMqQuEcidok6pez+acJ9cflqis0TknGcSb9SmTjMbuLqzyO2UL8ZUA/8c7/n4NR1FY2vxw7/vHaRpdrYTdHGazawSb/c2ngg1/xZ0dLsP+qOhgRUpPqGkvJ5Hfoxc2/mpbzhyuhwz71Dju+58b6lRH7KjdbchVUVcfxLIeEJLqXZtKv+Oeljh//7HGc4efe0sxP9pg4nSA0aS6uN4gMYVKdZzg8GKY0jWsvOiwr0+tFW62c+7GIFz4WfW4iV1GTP7tSEW+Vxdqyh5erhtj/2w4su35Kk/MP/JWdofMT53pK+By0NPOTPZUMJrAn1Rgls82e5Fma6Pn7hbUl5b0Re61V8kxUmGHC63Wengn3lKMCcOFCrLNSsLIgwklJFBa2YOQbKPF4GIk46MbmgdIFMslcU4238yTHAjksNWXYPx3B3vs3xuOESBnKGthgusLfT3RpYTqWGrY21uJp72PcLzO3xIyr8yT/9CrByW7CNoYyHqvJZeTTDn8+QSkVkFB/NNrkFGydoUlsviUPV+dJzoY5TxvqvRzvdc6sXwls1N78r+bR2hY26Lvivu03lDWwoWSKnhNd2BUFn76UCn3q8fekGLfAA8pQshqXv72hrIFHa1vY6hnlbPtJJjBQsb6BunoLdr9DkWxsAAotJjyu7hj9AVk4+gCFCccVPDX6jELcFHMNW1q131M5noUWE0yd02TrtZUrF2VsaAk4YFGOpKqnomY1U/0nGceSFWcpgLVlDy9vvMpf3/yd9s/f0swWSwK7a0wMvvs274T903l5l4tfvten/XPbWcCp3/3K75w0swUSHk+Xqp07cb77Nm/4nZNnnmmh77cd9Lz3a76IE6YR+Kf52zd/p12Tdc/xiz0/xPnWf/GFX2bBxmoG332bvzi0ezhpG2tLXPsT6Y/GZ2nm2Y1w+t1eAvdwsnGcUb8S2Kit5jzOK0+/xl7T7+OGnqU6/4nG355i3AKTRPPGxxn0t7e27OGVp1/jF84z7H/rbcaxsuWVl3hmVx09/glHsrFJB52yhM9cS/h/TbfhytKY8rqKSexfrOD/mVJoqLrO7qppPvvHcsay8JY/2Vhm2q9M7stUZPt66wlMWAs+4bdvdgTL33jajOp3VtK59uKR6fUyH2MRTcy58cv5+fNEnM9k904yvjg3xDMbTcEQOZ9qobbKxOAZ7VxYAEvTv/Ps6d/zxluOuNdTOs/BmYxRKttm8vxNdW+kutZS9bdnnp4JcUO/vu0EnJW8vDx+9KNdi9tJScEqY37c476653j9Zz+N+7O3JclT2aAncbBNCM/oQHCyNz5yEY8+D32Cuj7VTHkJ2PrDHAf7KDavCWv4zNA1GjaBTKfNFB5/XI7OYUuZU6NNeJvZ0trM1hroa49chfCM9Af/1ilehkddkKtPGBo2Gxs9I920fToKJQ1saW1mQ5k+Sq4eZ3/IsdB5bZwPe0OTaPzTH+uLwfYTFy7iUFWco1qbeH1PNjY+VY8h14vL4fGvYoT06xQvnthvw6aNZ6SbY+0nOdZ+krYT/ThNa3iyzhy3rqGsgTqTi96e8H/cekpLoM8v4+wolDbWBkOFCuu1XKGEGxN4vEzpV2I1xC9OhE+tpWWjicEjoYmlznGSEwmSp+0d7wffwOkUB8fODEGBKSyk6SpO/2qarvdk2Nu6RMdT4zxzJFj/i5Of4DSZSPRk0PoDpw+HTQZ6TnHaVUlNfVjFwVOhN7BptcnMfqVqZ/A59otn4K9vRb65TD2OM+lXfBvtHe/y+u/OwMaXYp6r6Zz/ROOf9lgPfRJsP97+CQOqyuAZrU28vmc6NlhNFEQdunQlB/v939AQp439Ul7wbWnnxWXYl/vI8JNicUk1lpn0K9P7MhXZvt58ai01la6Icl3v+/x1MFJesmsvIRleL3M9FtEEx+bdsHOjODh2+BOcldXUh8nJ5NkVQc8Ag6ZKagP/C61rqAoLbwRtBSfg/IX0P85mi5ry/OkcJ3nnV+8mfI4lHaMkts3k+ZtKXzrXWjp65+OZMD8rKoswpDV8ZSWbTspcJdMn4iv3BPHCWnS97/NGb2z9ZPhUM2sb87CFvXlPxJTXE6U3F4MB7PFCmaxmLIoB1rdQFlUUPqWMkJmqjceJy9tA/eYWrEl2ZQon8DY+kHRdbh3hn1Evo6LDrVTPaGKBs7RR57VxtsPmDw9bx5N6/2qB1ayFv9lJGLGUaPzRpzfWHu9kVKkXb4o9BTIaGz8BJyYoW5+HYco5o1wcneLk834zW2vMWFVH5FJ83ROakxJz7XojnLaJCwPYTA2UlhsY95Zo4WqfOhImc+oUJ5+3w9rWWqxp3BdB6qu15fcekkWdRRAT8uB0ab/YzzHoeoln971GTXjoWKLjaXLVFX2BFWC2Ej+cpL6aasVM9X+8xqaoooFEMlO1mYH9gTCQQCJ9S30Hf4l6ziUcx3jM0kZtYnLS/yby3/m52R+mksb5Tzj+lvTG2umMXll04Uzxcj3dsfGptfw4TpiPbiqX/33tOmtN0H0lso1zKvq9p4/CPGAWLyqAtMYy7XM+g/syFVm93qwmCrhKf9Sl4XC6IOr9TMJrLwEzuV4yJaOxiKa+mqo4fddC3Sq1e8P/wiCjZ1cYOqWP/qEdNNVYOeFwUFhTiXnok4hrPGac/PoDNqZzbyYj0Rglta1uBs/fFPrSutbS6O98PBPmxVG5fXtxJtpfuHCBD44c5fq1a1lbSQkk02eCe0rl5u0UT02DgTJgOHjASGmGb3lToVOcfN6p57HWWshkUpYG0TkPIRLrSNZGp3g53/k3hvWlPNbYzJM18Sap8QlNeGux2vv8y6ya82L2XowMmSqZeb/StVHn6KfNq+WAPKR3hJ3jmTGTsU5GqrHRVk30WPWgZZ7rQ/k31hLKDAYcevB5/DvKjfbN2BYtuT0vzLbQDmrHO5xp7x6jqsupKDGhGBQe3Rx1kte3UBrh1K7G29k1Z4mqgUl3leuTyOX1jVp5IA/mmKWZn+z5KT/fGcj/SHR8buyMznkIkeweTtwmcb/SuYf7+PORan6x84fU94TH1Scex7m0Udf7Pq87tPjzzZZejqXswcxtmgmZjo1O6ePP75r4yc9+CFF2dLqWsnvVNEWu7IR1zYaZnvOF1J303NaZov2RlERfe5msqmaLhTwPmaKFWK3B2o4/tCoUOpoOM7030xmjZLZlqjelPkt611o6euf6mTD3jooKjq+/nnM1M8VmG0ldKQPmJJn+0jinGyopC0+cj5dgH0Z4Amg0jtNJ4lo9XqbCJoJZwTuJh5WJV1xm0UbntfF/2p3aZLXcgD3NrYaxj2IrCWtj0JOLi96w/BNtx6nolYc5sjEiwX4G45WhTRmRxtiMO1zUWSzoHE6G+y/yWGMzW2oVVGc/bX2wrbaFbbUk/SZJWujzCPfPA6FbcfNWPE5c3vibFkxPujjf+TfOhx0Ld0qCIYEGPbneK1yIXsBKhcOFM/AWMNVbS6uJAoY4HBZjXWgqACLfRnVdMbMAACAASURBVOocJ/mfb53TtiZttdITCE9IcDyrZNKfDNvM2P6eU5zeGNYmzXGcMxsjkpxnMF4Z2pQRMxkbu4urgZ0pwnF9h96KaR7Jg7HZrpakQ7LxyLRfmY5tssncXFxvCcot5jjnIZw0N3eYFdkei2gSjU34m/9s0DPA4M7Hqa2HKtMQp6NW18xmc6QB4Ss9zOLeTGeMEtk2k2dCKn3pXGvp6p3jZ4Lu6lUn33zzDT6fL6s/d27fZmpyiotfjfLNrW+yb/k9hE4Zo33cwO7GaipUFZ9qZG9jBQwN0ZYoZKX3fd546+24P/PysaqwnBWd14bNpY/IDfCpeh6qK02Y/5Gqjc9Sw79YIttq4VCx+uPK9+dZGEqqw7bL9YdPEUi2jyMhg34lstGnL2VDVJ5FfvlqzGjbQseVqy/lIUtqB3gmY50eKcbGPootdw3/YlH9IW1/41j7SY73OtE5+oN5Jpk4KdF2+/SlPFZjwjM6GtxgoNQUu81zAJ3ixe7yYq4JjUV+eTWlXOTCHG+/rXOc5PSQiaY9PwzGVvsszWyuS3QO/KELBJLEQ/8sfHXP8X9Ftbvqsic8njXC4r7j9ke1sPn55oQx6KnapLQ/Rdx5IObavHEnm4P3RuJxnEm/Eo69pZm9z9dGHC9sfZwqtJjyzM9/WL9mMNbpkcbYpIFOWcp/X4K6lb5Z2JKBvpRjmX6/ksty4nSZaGqu046rtfx4Z2UK67J7vQXLn2kJPb/rnov4iGGqay87zP1YRJNobLY88zicOZW1lWItxMpE1cZKzEMDMXKVqp3Bez7Qb6dff8rnhaWZva/tCXseRZN8jMJtC+/zzJ8JSfTZzzHoSn6tpat3rp8JORPXJ5i4PjEnwoXs0db5ETQ+xYGn/Q+LsW42DczjvsSZ4F+tqN/cQp0/hMbe+zeoe4L6zS0Ecr/cti7OK0rCHKakbbyT5Prf2geOnw1MguPoT2ZnqX/HrL7RlTzqz+1QPaOc7XexoSS2ftr9SmSj6mXKtIYtrTVB0dHhWtFytd2q0lv9S2rTDNB5bSnHRqd4Gf70HGtbm3nSErvCYa1rwDDSlflHRHNXR4Rmxa7I6CmLl4/jr+cZ6eYsDTwaHEcnve3z8/HGnvd+Dc+/yrP7XuNZAts6dsTU0zlO8tczlbzijwNWnWfYf2SIlwNL9A4XBXt+yutPazY7Tv+ed3oVsCQ4nhXjtdWKZ/e9xjP+vJDo/gR0nkhyDydtk6hfCfQns7PJv+tP0nGcSb8S2ai6uFq5g9d/tjMoOjpEIt3zn/G4zYCU11iGXLqSAw9P0/BVHp0zE5ERicZyJv1KKEtxcOy3RzH/TDuvqjrI4Xc/oWBPfMcnLd2ZXm/AF4f+gPmVl3hlnyZIHTzCb08X8HLg3ZY99bU3W+ZrLKLpee/XOFr28ErU2GT75eoXJz+haU8lpw/Hhn05Th/BuTF0z6uDR/hlmP6Z3pvpXqtfnBvimZ0FnD4cmTyS6fM3lT7tHP8Bkl1rGfR3Lp8JSlNz67yluk+6b5BnXDFf6haEZTlgyvAjjC63ws3bc2RQhmgx/9XQP4NJpSAQm3QPqbcVXqz40tjqWhC+jWjbme6Ew7HfhAh9J2EFf7gi94Vwd+FLsFVyvO+63GvMdAzm8plwz31HZa65eRsuX7t7H9xaSNQUWxvXQac4K0LmeEa6OZbd1K8FIfCxTkdfhzgpwj2HFlp3lV/s+Q+I+oBdqm+qCMJixada2LKxEufgqTnbIOVuxVf3HM9UDnH4kD3tjWkCzOUzQVZUBEEQBEEQhG81ga+wqwlCz+61FZXwr9JD9kMIs4U4KoIgCIIgCIIgLDruyS/TC4IgCIIgCIKwuBFHRRAEQRAEQRCERYc4KoIgCIIgCIIgLDrEUREEQRAEQRAEYdEhjoogCIIgCIIgCIsOcVQEQRAEQRAEQVh0yAcf71KWLoFys0rxfaBfrh3zTsPl63DBqXDrzsLaJwiCIAiCIAizQRyVuwydDr63SmVdKSzLif0ETl0x3LwNXTb4x1cKPt8CGCkIgiAIgiAIs0RCv7KMxWqhvKxsTmQvW6qy82EfG7+rxnVSgvVyVDZ+V6u7bOm8fc9TEARBEARBELKGOCpZRFHgB9u+z44dOygvL8+qbJ0O/q1OZVVB+m1WFWhtdHKWBUEQBEEQhLsMmcJmEVWFo0c/ZHJykh3bt2fVWfneqsROSveXHv503MmfO1x85bwZUbaqQGs7F2xrfIqD1cZFJysTKqpbONVYFGPLqZ3bQz9h5dsan+LUjga2qXO3UpWNsci2nTFjkmB8Fjs+dQmWjVZWP6Die2AF9Rv1LJvDc7mQ3Et9FQRBEL6dSI5Klrl+4zqHDr3Hrl3Ps2P7do5++CEXLlyYlczv5MC60vhlk9M++myTbKg2sjJ/Kfl5S2LqrCuFnsvwze1ZmbGo8BU3cKbKw4vHBxhWlOzIVI3sfbKZ3e7P2HRkLHh8W3UVFarKsKLQ1vkRbaAtny0S4o1Ftu0MykNzWvbxGZs6x5K2EQRBEARBmA2yojIHBJyVbK2slK6MnzgP4JnWtveqKM7FlJ/Dd3JiJ6bLclRKV87KhHuD/CI2GTwcHLgccbhtYDBrzpAgCIIgCIKQHrKiMkcEnJUf/WgXO7Zv54MjR7HZRmYkq/j+RE6KjytubZnEcf0WS3QK5hXxT2nx/SpD9viT7YrqFg5UhUKNTncd5dXLCj5jFX9qraAkMEl3D6VcwYgn6z8vFfObnZXY2tvZ79baarIN/PFIF21x5CXTva3xKfYVaccPPF0JY93Bt/sR+lU3B8N0AhFtcQ/xZviiwISbr6igNB9wx+/ftsaneMF9kt0D7rC/P+NU0SPsNiqhPk9Uh+xXx3jT30+fWjQvYxFtZ7xzEz5ugdWk0sGT2Kqatb7EGb9ExFtlqahu4UDROC8eH6Bs/XZecJ/kDRpCNsS5nlKdv9miU+7gOGMHFHTcoOdrgqtOPoOeqo0Gcv1/q243Q6c93FQUVqy1spob9Hw+HZS17LsrqbROB+ss++5Kqr67VGur3sJ+xoXDo+BTl/BAk4nl52/AwytYwTQXP77ONaMhob4AK9ZaKXkgVH7RvpzVBm+MHfH0JuurIAiCINwNiKMyhxSsLGD58lwmJye5fu3ajOUYlsU/fn5sii/OewFo67qGfrmO5zaZMpJRUd3CgUo3b37Qrk2kjVXszdfKqooNnGr/kN1uJTiRPbDenTDkJ5msTEmmu63zIz6OE+4UnBh/0M6womghUa3rGPE7ANsan2KfcZgXPxgIla8zgr87OmWMA0OVHFi3g4PGjohJfjJKKis51f4hm9yKZsO6HZxxD/HikQ8ZJJ+9Tzazb30xbTMMlZrJWEQTc278ck41EnE+mxoasPn7sq3xKfY1VnMijfC6j8fG2VdlDIbI+VQjm4sMnB7U2pYBJVUtvD7YwaYj7rjXU6rzN9fkPpDDjTNfMxzmXFR+7w49n09z7etpVj+0hGWqyk1FK19hzeHG+ZCTUmmdZvC/XVr5Ayt4eON93Pz4OoE7f9lDy7hx5msuehRQlKT6QHNSVus9DP63Jyhz7dqlqF+HbE6m94Y4JYIgCMJdjoR+zRHl5eXs2L6dyclJDh16j+s3rmddx8Pleratux+AF7ZaEjopifCpRbxYaeB0d2giqHMPsv+y9vvwQHfwbbZOcfPO4DgYtcloprIyJRPdIf1wsDNsUn1piIOeQlof1MpbCz0R5brL3bw5FilveKCDjSeGoLKZUzu3p5fUPj4UtHXw3BCnVTU4QU/H9myPRTTBsWkPOzeKm3c6hxktLIxIuB8dCun6eGCYUYOBtDbbvjTOaUMhmwOOaX4RmwzjtF8KqzPWHXT+Qvoredmopjx/cftV9xyv/+yncX/2tljSGptwbn55A4cnMD53+Pr8NOg154Txm9wwLGdF4HIwLmeFYZob4+BTl2N9COxfhK2GjHuwe5azojBMgd0TlJ9Kn09dzgrr7QiZuq9vMPp16FylrVcQBEEQ7lJkRWUOyLaT4rmZus6MZDxYSBPjvHkJSOBPxIQLuYfiV0xDVqakrTugXzHStHkHu6OKTgPkG1mFm/aJSPtG3B6I8kV07kF2Hx30r7i0cMrYnTRxfNQdvfLiwTaR2NSZkNFYRPNgIU1x+q6FuhVSlg/47f3KHV3JqJWnWFzSKWO0jz/CC8X57B9wU1VcSMn4UMRKSMw4+fUHbUx2/uLp7H2fN3qT25Up4WFUoIVbAeiUaW7YV2B5IAfHl3fIfWA5y+1ebdXigWXcpyyFpkIeiJIXfuff9Nwm+uZIpA/jEpZxmxvuyCbTnttg8P9RmJ5eQRAEQbhbEUcly8zFSsrlawr1xbPbVvTytcy8By2X4hGaPMORoThVszJjbnWH5YJEokCxgZIM7dBd7mbjhIc/tVbysvFyVnMl0mUhz0OmaOFfRVScG/OHfV0mI6812fmbY3zqckp/sIIVHk9kGNVDoTpa+Ndylg1P+8O+poK2qeoUF+OGW8W3PaU+Qw7L07A7U72CIAiCcDchjkoWURTYsH5D1sO9bFfg5m0l6dfok3HztoLtSpyCCQ+jgTfq0W/M842sYpw3w/ITqoxGwBNfSTJZ8chP4jhkqjsd/QnKy4yGOJXD26VOsJ812R6LaBKNTfgqUza4NM7phko2PwibDOP8MWp1rcRojDQgfKWHDK8ftNCvN56O77E5Tv+edzoc6dtuXMIyprkYlsyea8gBwvb0Hr/JjYf1rCiEFYZpHOP+/nluM81ylmVyWlLpSyBzuSHskT0TvYIgCIJwFyE5KllEVeHwB4f5y6FDWc1J+eY2dNlm3r7LFv8bKjr3IH8cN7C7dV0wT8FnrOLl4OqNP+zHf/z1ysST+uSy3Ng8BnZXF2vH1SJ+05AqiD4N3WH5E3H1q0ZebtS+gRIsb6wO5nb4ihtCO4D59RyM+nhh1ZpKmojKtZgVcz8W0SQam72NFTA0lLVEdS38y8CmqkJKxsdj5RY18OvigH6t36N+/anOX1x9ve/zxltvx/3JyEkJkqNN+tF2AFv9UOR7HC38K4cVDy2H857gKobO48Vhz8G68T5WBG1fgmVtqg8sJtHnnuaGJwfrw4agDN8DK4I7gM1OryAIgiDcHciKSpaZnp5meno6dcUM+cdXCqsLYr9O/8D9S3lha+LE4a+uam0T0db5ETQ+xb6nd7AP/FvCDqBzD/LGUCEHAjkD7iFe7B7nQJKQo4SyFDfvHP+M0p2PcGpngxbi0z7Mqtb4jk9aui8NcbCqWdPl32Y3Rj8wOtjBfv+E8uNPT1L2ZLO2jS/AWDcvDho5EEj9mHDzVaHfxgAJw5FmxnyNRTRtnR8xUt3CgaixSXdns3T5eGCYF1oLOdgZG/Y1OtiNrWo7p9b5j491sylMf6rzN5foPF4unl9OlT/fQ3W7GfpimsqHIutd+3qa1Q/nYP8iMt/kxud2Lq61UvKvIadz6ksnDkWBOD5DKn065Q5fn3ZBk4mqf9UuUPXr6wx+mUO4n5pUryAIgiDc5ShNza3z9upt0n2DPOOK+VL3rWPZUpV/q4t1VhLx1VX4X70KN2/JpEWYH3wJtkqO910XIXNWrLVi8bgY/vLOQpsiCIIgCHOOhH7dRdy8pXDkCx1nvlS4eTux83HztsKZL7W64qQI84VPNbK3qpDRsbGU310RMsf3wApWW6dxDMeJ4xQEQRCEbyES+nWX4fNB96jCPy9BuRmK7wO9f3sg7zRcvg4XnAq35IWrMI9sa3xKy/eJCucSZk74V+kh2Q5fgiAIgvDtREK/BEEQBEEQBEFYdEjolyAIgiAIgiAIiw5xVARBEARBEARBWHSIoyIIgiAIgiAIwqJDHBVBEARBEARBEBYd4qgIgiAIgiAIgrDoEEdFEARBEARBEIRFh3xH5S5l6RIoN6vyHRVBEARBEAThW4k4KncZOh18b5XKulJYlhP7CZy6Yrh5G7ps8I+vFHy+BTBSEARBEARBEGaJhH5lGYvVQnlZ2ZzIXrZUZefDPjZ+V43rpATr5ahs/K5Wd9nSefuepyAIgiAIgiBkDXFUsoiiwA+2fZ8dO3ZQXl6eVdk6HfxbncqqgvTbrCrQ2ujkLAuCIAiCIAh3GUpTc+u8vXKfdN8gz7hivtQtCPetuI9du54nLy+Pox9+yIULF7Iit6FEWyWJR/eXHgZHp1CWKDTVGlllXhZRfuZLhe5RJSt2zJZtjU+xj8/Y1Dm20KbMmG2NT7GvKGo8x7rvqj75LDVsrcnF1tnFea+CoayBR0sNMfXcti7Ojnizrt9a9wSl3u6kstOpkwifpYZtteaIY6pnlLOfjuBR4t8LPlVPxfoG9KMn+acjVCeuLGc/x3udccvDy6JllxmUuLYkKp+w1rKt1oyjryPCpoT9Vi1seeUlzGfe5i+9sfVTlcfUr3uOX+ws4PS7v+OEI2CrJmOT2W/r4BF++V5fSlmCIAiCkCmSo5Jlrt+4zqFD77Fr1/Ps2L49K87Kd3JgXWn8sslpH322STZUG1mZv5T8vCUxddaVQs9l+Ob2rMxYEHzFDZyp8vDi8QGGE0wwF0R/mGPiU4v4zc5HOFjtZveAe3Zy5wGfqqeixISz/yTnvSHd0RNsn2pmbWsDT5a46G3vw74A458pgQl/KRf5+4mOCKfEZ6lh2+aWuJN+a90T1Psn3o44cuM5H0F9lsmgLm3M1rChbDLoYAVsMrm6OdYZ5nRFOSnxynWOftqoYWtJGQZ7YicLoP75V3m2SisfmEF5bN8sbNlYCbgij73yEk1Xj/LG/r7g3z9/HnFWBEEQhKwjQUFzQMBZmZycZMf27bMOAytdGT9xHsAzrW3vVVGciyk/h+/kxE5kluWolK6clQlCEnTKGAeGPJQUFVGh3g05QXno9S7s9uS1dIqTz9u7sXlN1NVb5se0WVJYr034j3faYib1Okc/bZ+Okluzjof0ofPks9RQZ3LRc6IfR5zzl6/PTahPp3g53xvSpVOcXBj1YjCZMfhl5ZdXUzp1LuHKUKpyvJN4kvZaW/l4pnKIv755hIE4fUhVHo/C1p00XR1iMPygdQ1VpiEOH+oFQKc4OHb4E5yV1dTfFde+IAiCcDchKypzRMBZ+dGPdrFj+3Y+OHIUm21kRrKK70/kpPi44taWSRzXb7FEp2BeEf+UFt+vMmSPnLjFC8OqqG7hQNF48E1/RXULB6qMWqHq5mB7O/vd/jfBxir+1FpBSWBC6B4KtvOpRvY+2Uzp4GfQ8AhNjPPmka4I/aE6J7FVNbPbqEToCA+xOvB0ZcQqRiK7EultS9WX4gbOrCuKKBup3p5Qf1zc7uDqSLKxmUm/Fgqd4mV41EVpjRmr6giuqkSHikWEQqlm1rauxusPKwPw6Ut5rDEPW9TKTLicVKFZMfVVTzB0DfwOR+5FzvZ4QIkMZ3M4neR6Rzk7YqNvdCUbyiyc99urc/Rz3AE+zFizMGYT3ikw4R8LPVaTHueoA4gXipW8PF10ve/zy17wUUvNDMpj7LI08+zGqxx+a4Canz0eKrCYMEdXtru4SiVmK/GXowRBEARhhoijMocUrCxg+fJcJicnuX7t2ozlGJbFP35+bIovzmtvYdu6rqFfruO5Taa0ZXw8Ns6+KiMVqhp0LjYXGTg9GOakFI3z4gftWnlxA2da1zHin/hXFRs41f4hu8MchAPr3RGT+VVVhZxq/5BX3QooCtvi2NbU0ICt/UM2BZyTxmpOHB+grfMjPo4TIpXMro8T6E3aJr+aPzUYOXjiqObsFFexFxLqj8ZnrOL1SjjYfpnAZDPZ2MykX20LGXblncTDSgwGsHs1Z2FDyRQ9J7qwK0owdOnJOuKGRyXCWLqOWlsXx9q9QRkb6r0JZRjKGthgusLfT3RpYVaWGrY21uLxOz+FFhMeVzcev5MSqDuBgYr1DeDoAxQmHFfw1OgxqI6kTlE4irmGLa3a74nCwAIUWkwwdU6TrTdj0ntxUcaGltUYFSXSwTKkKF8AfKqFLc88ztUjb/MFdZGOjcOFk3jPGBNmC+KoCIIgCFlFHJU5ory8nB3btzM5OcmhQ+9x/cb1rOt4uFyP9f7v0NZ1jRe2ziA059I4pxsq2Zw/wLAbyC9ik2GcP14CH0W8WAkH28Mm6JeGOFjVTOuD0HYZhge6GSYQ8uLmncFxdvsdn2C4yNhQyhWB0aHuYJ2PB4Z5odVAGTAcp65PTW7Xx5di9aZsMwHgZmQCUEB3eZD9qd5uFzVwameD9rt7iBePtEc4MsnGJp7Dk8rGtstxxqLuOd54uiqueY7Tv+edjgSzRoOexMFMcfB4mWKl304z5SVg6wytjOgUL8P9FzE1aqsu42mKVZ39wXCnkIzVPKR3xEzSQ3rDVlzso9hKGrBaYdyux5DrxTXiwacasJrA1q/V1eHFMwX6TPoc3v2Rbo6NhOxY27omoVNmKGugzuSit90RzEEBPaUlVzjbfjLkRPkdrPEU5XZF0cZfvxqrYQRP9vc1iOHhXVoOyi/jJdvbzzHoeolndtXR489JeXjXDqoVJa28F0EQBEHIBHFU5oBsOymem7O3KZ4MnTJG+/gjvFCcz/4BN1XFhZSMD2lv74sLaVKMNG3ewe6odqfDfo8IVQJwD0XU/crtn/0nIbaOkbJ8IF5e+oPp2RUhM1WbiTFOeZrZ9/QOWruO8urlNN5k+8O1Aon0Lz44wKtRzkSqsZlJv8LR9b7PG72pTQ3Hp5pZGycEKyl+x8YLYDVjZgq7h8hT5ndmDAZImVARbDIZfSDoEMVgNWNRDLC+heivFKV6ie9TNSfGG5jk6/MwTDnTXk0JR6c4+bzfzNaoUDjQEvI1JyV6bL1Bpwlg4sIANlMDpeUGxh3Jy+0jXn+uEKxtrcU6x5sa+Oqe45mCT9j/294wRyu8/w6O/fYo5p/t4PWf7QRg4IMjDFQ+jlNWUwRBEIQsI45KlpmLlZTL1xTqi2eXqHr5WvzJjRb+VUTFuTF/2FcofAl1LJjfEYkSnKA3eYYjQ5Xiv+DPLknsmkkbneJm/4mPeMdYxZ9at3OqYTxB3Vh0yhj/2V3ImYZ1bLuktZnx2MykXxmiU5x83qnnsdZaSHfSq8/D4L1Cn4eZL0tkAVV1Jth9TEGnePFM6bHq8TtKevR6NO/KWkKZwYBDDz6Pf8ezUS0MbEZ4J/GQF/wzuNPY1DmOdzjjTvBnQ3jOz5w6Kf5dvhRzFa/s2xhRVv0fr9Hk34ZYp/Txl1+FdvjyWZr5CVfpt5PNS1UQBEEQxFHJJooCG9ZvyHq4l+0K3LytJP0afTJu3lawXUlQGAj/epBg2BcKMOFhlMLEKxv5RlYxzpthORZVRiNpv06fKansmkUbnXuQ/3FkjL1PNvPCmnza0txqOBCiFWwzk7GZQb9mHPrl8TIVNtFOqkM1s7ZG28rYoygx+SpBDHpyAyst8dDnEf2VFoM+D/86jUai1RpIrDeMcYeLOosFncPJcP9FHmtsZkutgursp60PttW2sK2WtL9JkpCovhTW+52UeHkrHicu7+qQ0xTGlNcDHpKXo2hj673ChXjjkkV0ioMT+3/NibBjPrWWH//scZxh31GJprCmEvPQJ/TcBdtXC4IgCHcXsj1xFlFVOPzBYf5y6FBWc1K+uQ1dtpm377Il/oaKFv5lYFNVISXj48G3+Tr3IH8cN7C7dR3b/NuO+lQjLzdWhW3B6w/RIpBQHvvBwKxgMATDfdKzK6qPKdr4ihv4ddSKlRY6Fqs/rnx/DkpJZQMvGzMYm9n2q/d93njr7bg/CZ2UDPDpS3msdQ1m17ngxF7ntWFz6SltrMUatFNPRc1qGB31v/GfxOvVU1pm8Zdrzk40irmGf7GoEXU8QRlRfU2g96G60uA2wNhHseWu4V8sKjqvjbMdf+NY+0mO9zrROfo51n6SY+0nM3JSonX49KU8FmanT19KqcmLbST+eOsUL3aXF3NNyO788mpKucgFe+ry+cBnaWbva3vYbMn8RYiv7jle3ginT2YYgygIgiAIaSArKllmenqa6enprMv9x1cKqwtUVhVEHn/g/qVJE+m/uqq1TYaWwF7Iwc6wsC+0Xa9ofIp9T+9gn//Y6GAH+xUFnXuQN4YKORDIqXAP8WL3OAeyHfrlX63Y9/QO9vnzQpLZRYK5VtI2Ex5WtW7n1DoleHx3IE8ljv5kdu7271iWcmwy7dc8EL6zFQRCrU7GOA723r/hLWvg0c0t1PuPhX/BXqd4Gf70HPrWNWxprdHkdF4ktzFyFcdt68dboq16gH83rSRfobf3/g3qnqA+Su/58KT+T8+xtrWZJy2xKxzWugYMIzPYTSt3NY9uLgn+Gbsio6csXu6Mv55npJuzhMZLG9dQTkqq8sVEzFfp1UEOv/U7WU0RBEEQ5gSlqbl13r7SNem+QZ5xxXyp+9axbKnKv9XFOiuJ+Ooq/K9ehZu3kk8iFvrr78L8ouVUVEP/wm2BO9dEf+cFUm8rvFjxWWrYWjKZ8hszgiAIgvBtQ1ZU7iJu3lI48oXC91aprCtN/LX6m7cVumzaSorPl1ymTzWyt6qQ0bGT4qTcI2gfcZxia+M6WMDvdcwl4VsK3834LDVsqzXj6OsQJ0UQBEG455AVlbuUpUug3KxSfB/ol2vHvNNw+TpccCrcupNaRvAL6am+uC4IgiAIgiAI84w4KoIgCIIgCIIgLDpk1y9BEARBEARBEBYd4qgIgiAIgiAIgrDoEEdFEARBEARBEIRFhzgqgiAIgiAIgiAsOsRREQRBEARBEARh0SGOiiAIgiAIgiAIiw754ONdSja+oyIIgiAIgiAIixVxVO4ydDqSfpm+rhhu3ibtL9MLgiAIgiAIwmJEQr+yjMVqobysbE5kL1uqsvNhHxu/q8Z1UoL1clQ2fleru2zpvH3PUxAEQRAEQRCyhjgqWURR4Afbvs+OHTsouVlgUwAAIABJREFULy/PqmydDv6tTmVVQfptVhVobXRylgVBEARBEIS7DKWpuXXeXrlPum+QZ1wxX+oWhPtW3MeuXc+Tl5fH0Q8/5MKFC1mR21CirZLEo/tLD4OjUyhLFJpqjawyL4soP/OlQveokhU7ALY1PsW+wnHePNJFm5Ja7rbGp9hXFFnvdNdRXr2ssK3xKV5wn2T3gDvrdqUjO1P92xqfYh+fsalzbNb2LhTxzgdj3XdVn3yWGrbW5GLr7OK8V8FQ1sCjpYaYem5bF2dHvFnXb617glJvd1LZ6dRJhM9Sw7Zac8Qx1TPK2U9H8CS453yqnor1DehHT/JPR6hOXFnOfo73OuOWh5dFyy4zKBG2TFhrY2QHcPR18DlauaOvI8Km+PZb2PLKS2wy+3U4z7D/tx3Yo/obU2/wCL98ry/tckEQBOHuQXJUssz1G9c5dOg9du16nh3bt2fFWflODqwrjV82Oe2jzzbJhmojK/OXkp+3JKbOulLouQzf3J6VGUHaOj+iDbQlpDQZHeyIcgay5zgFmIldc42vuIEzVR5ePD7A8ALYlVB/mGPiU4v4zc5HOFjtTtthW8h++VQ9FSUmnP0nOe8N6Y6eYPtUM2tbG3iyxEVve1/MhHcxEnAISrnI3090RDglPksN2za3xJ30W+ueoN4/MXfEkRvP+Qjqs0wGdWljtoYNZZNBBytgk8nVzbHOMKdLUdA5+jkWpdBnqWFrySQX7KBT+mmjhq0lZRjsyZwszbmoGvwDb+wPE5jASWm6epQ39vcF//758/DL9/pSlguCIAh3FxIUNAcEnJXJyUl2bN8+6zCw0pXxE+cBPNPa9l4VxbmY8nP4Tk7sRGBZjkrpylmZIHyL0SljHBjyUFJURIV6N+Q05aHXu7Dbk9fSKU4+b+/G5jVRV2+ZH9NmSWG95hAc77TFTOp1jn7aPh0lt2YdD+lD58lnqaHO5KLnRD+OOOcvX5+bUJ9O8XK+N6RLpzi5MOrFYDJj8MvKL6+mdOpcWitDQSdyNMwp8U7iSdXv1p00XT3KOx3x3KwwrGuoMg1x+FCv314Hxw5/grOymnpVTV0uCIIg3FXIisocEXBWfvSjXezYvp0PjhzFZhuZkazi+xM5KT6uuLVlEsf1WyzRKZhXxD+lxferDNljnRgt9OkzThU9wm6jVn666yj/OVHNn1orKFEUUMciwrzCw6V8qpG9TzZTOngSW1WzJkN1c7C9nf3umb3Brqhu4UCVUfsjTFZFdQsHKt1BWwK6d7u1UKxEYVwR8txDKVcBEumPJlXfw0OsDjxdGbGKkUhHSOZn0PAITYRC2ZLZ5Stu4My6ooiykertCfXHxe0OjovPWBU6/1HjNpN+LRQ6xcvwqIvSGjNW1RFcVYkOFYsIhVLNrG1djdcfVgbg05fyWGMetqiVmXA5qUKzYuqrnmDoGvgdjtyLnO3xgBIZzuZwOsn1jnJ2xEbf6Eo2lFk477dX5+jnuAN8mLFmYcwmvFNgwj8WeqwmPc5RB2mtglpLKOUiZ+3pVdd0WKitMjF4pjd1I4uJmEAzu4urVGK2plGewg8SBEEQFhfiqMwhBSsLWL48l8nJSa5fuzZjOYZl8Y+fH5vii/PaW862rmvol+t4bpMpIxkAJZWVnGr/kE0BZ2DdDs64h3jxyIcMks/eJ5vZt76YtiST3KaGBmx+Gdsan2JfYzUnZhAWVFHdwoGicV78oJ1hRdEm4K3rGDnSxcfnujlY1MwLa/JpG3BTtaaB3Qzz4qeXE4Z7lVS18PpgB5uOhJyqA+vdCSfsyfQnysdJ1Pe2zo/4OE6IVNI++mWuqirkVPuHvOpWIOCkJGqTX82fGowcPHFUc3aKq9gLCfVH4zNW8XolHGy/TGCiWFVs4FT7h+wOc54C4zaTfqWTyzRneCfxsBKDAexezVnYUDJFz4ku7IoSDG16so644VGJMJauo9bWxbF2b1DGhnpvQhmGsgY2mK7w9xNdWpiVpYatjbV4/M5PocWEx9WNx++kBOpOYKBifQM4+gCFCccVPDV6DKojqVMUjmKuYUur9nuiMLAAhRYTTJ3TZOvNmPReXJSxoWU1RkWJcbCi2wb6kDbWNVSZXAzSwt7XHseiKKiqk9Pv/o4T0XktDhdO4j3jTJgt6ZSnb5YgCIKw8IijMkeUl5ezY/t2JicnOXToPa7fuJ51HQ+X67He/x3auq7xwtZZhLaMDwXfeg+eG+J05SMwqE1Adbh5Z3Cc3VVGKlQ14WR3dKg7KOPjgWFeaDVQBgz7y0uqWjhV5f8jaoUmgE8t4sVKONgeNqm+NMTBqmZaH4S2y27e6RxmU2sl286N0xpdNx5j3cEVFp0Sav+y8XLMm/7U+uOrSNX3THR8fClgd+icpGwzAeBmZAJQQHd5kP2p3kwXNXBqZ4P2u3uIF4+0R4zj8EA3wwTCgVJfAzMZO1/dc7zxdFVsAeA4/fvEYUAGPYmDmeLg8TLFSr+dZspLwNYZWhnRKV6G+y9iatRWXcbTFKs6+4PhUCEZq3lI74iZxIf0hq242EexlTRgtcK4XY8h14trxINPNWA1ga1fq6vDi2cK9Jn0Obz7I90cGwnZsbZ1TUKnzFDWQJ3JRW+7I8z511NacoWz7SdDTlSYgxXso76UUpMLm39FKGSAlyn9aqyGETwJo8dMNG0cYv9bb2NXFKwte3h5zw9xvvVf9ITLsp9j0PUSz+yqo8efc/Lwrh1UKwoD6ZQLgiAIdxXiqMwB2XZSPDdnb1MyGaPu6ARqD7aJzOR/5fbPkoMYKcsH/KJjkunjORcPFtKkGGnavOP/b+/un5s6z4SPf48SQmxJJAFLXtsB27S2jG1aNsKQBBNbCfF2OmBo0uTp7njyAxmWMPkDOtnUm6VJ2+kfsENJ+vBDh8lMk2YJSaZPxgN+CSazYDubLsZGcsEyie1aMi+xJBsK0Xl+OEeyJB+9WJbBDtdnhgnWOee+73MOhHPpvq770JKwqVv/ryng5g/jO2ndUwxjfdqMQwpzzm0qwFcUGe+cQf9G0p17Nn3EtZnumKkxTgUbaN3TjEtfTS0tPV0rUki/99ELvJYQTMSlcQEEPMnby+Lamfo/4GB/+qHGCqs2NhmkYKWkBzYhgEIbNmaYCBJ/y/RgxmKBtAUV0UOmEz+IBkRzFNqwKxbY0kjiW5bSfckfVrUgJhR5yDfnY5nxz2/WQmdS/Hw5YOPZhFQ40ArytSAl8dqGokETwNSlC3gLnJSttzARU7eyyr4Gy+TlOfdFqxWCTa4aCpPet0m6j82u8DXecZxux8vUuwo5FxOwmhQfJ373EbZfNPPGL3YDcOHD41yofBK/L/12IYQQy4sEKjm2GDMpo9cUNpYsrBB09NrSX/EISDrbEvtUORwIAlaDAOvO9H9X+khxjEkJcLj9Ew5ZHbzr2sUpZ+ZLR5uUMX7eV8Rp52aavo7U/mjBS31wKD6Ny3jyY2HnNU8mxc+XPWaecNVApsGKOR9L6Arng2Q/LZEDqupPsvqYgkkJEZwxU2hGD5TMmM1o0VVhKeUWCz4zhIORYnUtDSwroWmC5Ed/jK40NjPIyU5/Vqvmpaplia35ycXKayblPH/8VcxyxPYGXuUqA3pdTLrtQgghlg8JVHJIUWDrlq05T/fyXoGbt5WUb6NP5eZtBe+VnAxlcU0FGaEo+WwEkXqKAG+2j/OSy8n+0dTF2qVWa3xjjxZRT4COxEmQDPtfsGz6yPAYU8DNvxwf48Azs3U8GdFTtKLHrLKylnHejKk/cVitpJxqyOK8sk79CoaYiXnQTtmHamNTtbaUcVBR5tSrRFnM5EVmWoyY80l8S4vFnI8+T6NJNlsDyfuNMe6bpNZux+TzMzRwmSfqGthRo6D6B2g7D001jTTVkNE7SVJKOJeijXqQYlS3EvQzGVo3GzTFmAnFnKjFRoF5Eq9RMGAxkxe6wiWj6wJ6utaThjUkVyfTRxdF1ZXYPJ/Hp4jNY7sQQoilS5YnziFVhWMfHuOP772X05qUv9+GXm/2x/d6c/cOlcWkpXVZaHFtpklfSjSsWtlf56BCVbWi7roK8HhoC7g56IGWuqrUS+oWO/lNSaStYn7rLGLE4zGcbUjXf9Yslmi6TzZ9pL0uJbPnGKGljs3t37B9vQaltNLJfmukHT19jUhwOPdligs+r/4POPjWrw1/pV2mNgNhcxlPuDZgmxyMPtibQl68k2bK6moojI7TTEX1OhgZ0b/xnyYUMlNWbte3a8FOIsVWzQ/satw+wWgbCeeapN/v1ZZFlwFmYgRv3gZ+YFcxhbyc6fyMEx1dnOz3a+8r6ejiREfXvIKUxD7C5jKeiBmnVlcSwjtsfL1NSoiJyRC26tlxr1pfRRmXuRSzPPQq+xosoenEWCYjJsXHefckjt0/jS4hXOTaTT2f03lOmxE58Po+nrbP/XMUrn2e/dugu8s4hzDddiGEEEubzKjk2I0bN7hx40bO2/2frxTWrVZZuzr+8394ZEXKQvqvrmrHLhdtPZ9A3U5a9zTTqn824u7ksKLwo7oGbZWvwSlQlGjh/xsbxpK+qHDE3YfXsYtTm/VrMNbH9hQzDan6z4o+W9G6p5lWvS4kZR9J4qGUx0wFWeuaPccRdyctkToVg/5TjbNFX7HsoKeII5F6k4CHvX3jHHHM3T/j87oDYle2gkiqVdecwGGi/zNC5U4ef7qRjfpnsW+wNykhhs4OYnZtYIerWmun5zJ5dfGzOAHvAKFSbdYD9NW0UrxrZKL/M6h9io0J/V6MLeo/O8gmVwPP2OfOcBTWOrEMG6+2lVLeOh5/ujT649wZGTPlRrUz+n7B4T7OMHu9tOsavwyz2WwmOHkhq7oZgInOdzjMPl5pfZ3nAFV1c+ytDN5Kr7o59tbb0dmSdNuFEEIsL0p9g+uOvQVrOvAN+daH7lR33zkrV6j8uHZusJLMV1fhz/0KN2/JP9Liu0OrqaiCgSwe2peJxPe8QPplhZeqyJvq071jRgghhEgkgcoyYzLBP65V2VyW/G31N28r9Hq1mZRw+A4PUIg7IGyv5tnqvKTv8xBLQ9heTVONbeF1NUIIIe5JEqgsUyvug/U2lZKHwfyg9lnoBoxeh0t+hVvf3t3xCSGEEEIIsRBSo7JM3foW3H9TcP/tbo9ECCGEEEKI3JNVv4QQQgghhBBLjgQqQgghhBBCiCVHAhUhhBBCCCHEkiOBihBCCCGEEGLJkUBFCCGEEEIIseRIoCKEEEIIIYRYcmR54mVK3qMihBBCCCG+yyRQWWbSvZm+tgRu3kbeTC+EEEIIIZY1Sf3KMXuhnfXl5YvS9soVKrt/GGbb91XDICW63/0q276v7btyRfL9hBBCCCGEWKokUMkhRYEfNf0Tzc3NrF+/Pqdtm0zw41qVtaszP2btau0Yk9xlIYQQQgixzCj1Da479pX7dOAb8q0P3anu7oqHH3qYF198gfz8fD76+GMuXbqUk3adpdosiZG+vwZxj8yg3KdQX2NlrW1l3PbTf1XoG1FyMo6FaqrbSWtx/Fi6ez/itVGFprqdvBToouVCIDf9FI3z5vFe2pTM2p5v/011O2nlC7b3jC14vHeL0f1grG9ZnVPYXs2z1Xl4e3q5GFKwlDt5vMwyZ7+At5czw6Gc919Y+xRlob6UbWeyTzJhezVNNba4z9TgCGfODhNUjP9eh1UzFVucmEe6+F/f7D6GbfkHONnvN9weuy2x7XKLYjiWwtqn2Gibuy3Stu98Z9yYkp63amfHKy9jO/1r/tg/d/902+fsX/s8/7F7Nd3vvE273n+kje2R8bqP88v3z6dtSwghxJ0hNSo5dv2b67z33vu8+OILNO/alZNg5YH7YXOZ8bbpG2HOe6fZWmVlzaoVrMq/b84+m8vg3Cj8/faChpEzI+7OhGAg90FUW88ntIE2zbVEhEucnHYE2XvyAkN3YVxJ+48JTMJqMb/d/RhHqwIZB2x387zCqpmK0gL8A11cDM32nfiAHVZtbHI5eaZ0kv6O80wsoT8XyUQCgjIu89/tnXFBSdheTdPTjYYP/bGBgs+gXaPgI9qffTral3bNNrC1fDoaYEXGVDDZx4memKBLH5ul3EltwSTn2rVrXFj7FFs3hjjZ78fkG6CNap4tLccykTzIAtj4wms859C2X8hi+9xzs7NjWyUwGf/ZKy9Tf/UjDh4+H/35319AghUhhFgiJCloEUSClenpaZp37VpwGljZGuPCeYDgDW15r4qSPApW3c8D98/9x3/l/SplaxY0BHGPMCljHPEEKS0upkJdDvVN+ZjNk0xMpN7LpPj5sqMPb6iA2o32OzO0BSraqAUEJ3u8cx7qTb4B2s6OkFe9me+ZZ+9T2F6tBwoD+Azu3ypzXtL+TEqIi/2zfZkUP5dGQlgKbFj0tlatr6JsZtBwZiismiksMOMfmA0Ex4cvEyywURgZS2iaYJrzDtc+z08qPfzXm8e5YHAO6bYbKXLtpv6qB3fsh4UbcBR4OPZev36+Pk4c+xx/ZRUbl8WffSGE+O6TGZVFEglWfvazF2netYsPj3+E1zucVVsljyQLUsJcCWjTJL7rt7jPpGB7yPiWljyi4pmYG8Ro6U5fcKr4MVqs2vbu3o/4+VQV77oqKFUUUMeiKVQAYatjdhtAwBP9Nr2iqpEjlYHo/mHVyoFnGmgJZJciVVHVyBGHVftBDXC0o4PDgfT9JEvjimsvZtzz7T9RpP8ydxdeR4N2LWP2j02xOrKnMm4WI1kfs21+Ac7HqGc2lS3VuMIlTk5vLo7bNly1K2n/hgKB6HVJdb+zOa+7xaSEGBqZpKzaRqHqiz5MJ6aKxaVCqTY2udYR0tPKAMLmMp6oy8ebMDMT20661Kw5+6vBaOoa6AFH3mXOnAuCEp/O5vP7yQuNcGbYy/mRNWwtt3NRH6/JN8BJH4SxUZiDazYVmoEC9GuhByIjPhZjFjTC1P8Bv+yHMDVUZ7E9UdjewHPbrnLsrQtU/+LJ2Q32AmyJO09McpVKbIUYT0cJIYS4oyRQWUSr16zmwQfzmJ6e5vq1a1m3Y1lp/PnFsRn+clH7ZrOt9xrmB008v71gXm0AlFZWcqrjY7ZHAoDNzZwOeNh7/GPcrOLAMw20bimhTX8AdZRYONXxMS0xD9NHtgTY3jOGe7CPo8UNvLRhFW0XAjg2OGlhiL1nR+edhlVR1ciR4nH2ftjBkKJoD+CuzQwf7+XTLPopdTTyhruT7ccDc8Y93/7bkvRR73Ti1a9lU91OWuuqaD95gbaeT/jUIEUq5Tnqba51FHGq42NeCygQCVKSHbOqinedVo62f6QFOyUODkDS/hOFrQ7eqISjHaNEHkZT3e9szivZtbsjQtMEWYPFAhMhLVjYWjrDufZeJhQlmtr0TC2G6VHJWMs2U+Pt5URHKNpGJOXJiKXcydaCK/x3e2+0fuPZuhqCevBTZC8gONlHUA9SIvtOYaFiixN85wGFKd8VgtVmLKovZVAUS7FVs8Ol/T5ZGlhEkb0AZga1ts02CswhJilna+M6rIoSF2BFAsFnq2sonNDPo3wdlsnBu5ZqF1bt7PjJk1w9/mv+Qm18YOObxI/R/y8LsNmRQEUIIZYACVQWyfr162netYvp6Wnee+99rn9zPed9/HC9mcJHHqCt9xovPbuAdJZxT/Sbbvegh+7Kx8CtPXSaCHDIPU6Lw0qFqjKkKAxd6GOISHpI4vYAh3qG2O6qpGlwHFclHO2IfzAudTRyyqH/kDBbExFWi9mbeOzXHo46GnA9Cm2j6fuZY6wvOsNiihnnfuvonG/60/dv3MWIpy/a1qcXhnjJZaEcGDLYN10fn34dGffs/Ul7zBRAgOEpQAHTqJvD6b79LnZyardT+33Aw97jHXHXMfX9Nppdmv+1C9c+z8E9jrkbAF/37znUmeSp0WImeTKTgWCIGdbo47SxvhS8PbMzIyYlxNDAZQrqtFmX8QybVf0D0XSo2TbW8T2zL652Jr7fmBmXiRG8pU4KC2F8wowlL8TkcJCwaqGwALwD2r4mQgRnwDyfc449/eE+TgzPjmOTa0PSoCxSb9Lf4YsJ/s2UlV7hTEfXbBAVE2CZfAOcMTt5/OlGNmIQCAVDzJjXUWgZJpj7dQ3m+OGLWg3KL42K7ScGcU++zE9erOWcXpPywxebqVKUjOpehBBCLD4JVBZBroOU4M2FjylVGyOBxKLpIN6p1O3FpfUABDzR35oCbv4wvpPWPcUw1qfNBMT2l1hMbxRcPFpEvWKl/ulmWhI2dWfYT6I55zkV4CuKjHfOoH8jXwX0CCHKSvkqwKguPcM+4tpMd8zUGKeCDbTuacalr6aWlp6uFSmk3/voBV5LCCZS3e9szyuWqf8DDvanH2qssGpjk0EKVkp6YBMCKLRhY4aJIPG3TA9mLBZIW1ARPWQ68YNoQDRHoQ27YoEtjSS+cSndl/hhVQtiQpGHfHM+lhl/xrMpsUyKny8HbDybkAoHWkG+FqQkXttQNGgCmLp0AW+Bk7L1FsYvoRX/zwxyokMLTizlTp5ptEXb0WqFYJOrhsJFXtQgXPs8P1n9OYd/12/4/xiT4uPE7z7C9otm3vjFbgAufHicC5VP4pfZFCGEWBIkUMmxxZhJGb2msLFkYcWdo9dy80AQeZitDw7Fp/UkfBk+HAgCVoMgaB6SzLbEPlXmpJ8F9H9X+khxjEkJcLj9Ew5ZHbzr2sUp53iSfecyKWP8vK+I087NNH0dqf3J7H7n5LzmyaT4+bLHzBOuGsj0odecjyV0hfNBsp+WyAFV9SdZfUxLoQrOmCk0owdKZsxmtOiqsJRyiwWfGcJBfcWzES0NLCuhaYLkR3+MrjQ2M8jJTv/80jULSykzT9J/dnYGJjaQmRgOxdX8LGqQoq/ypdgcvNK6LW5b1b++Tr2+DLFJOc8ffzW7wlfY3sCrXGVggsUswxFCCJEhCVRySFFg65atOU/38l6Bm7eVlG+jT+XmbQXvlZwMBVZZWcs4b8bUIzisVmK/etbqHAK82T7OSy4n+0ezKKKeCjJCUfLZiCz6KbVa4xt7tIh6AnQkToJk2P+CZdNHhseYAm7+5fgYB56ZrePJiJ6iFT0mg/udi/PKOvUrGGIm5kE7ZR+qjU3V2lLGQUWZU68SZTGTF5lpMWLOJ/EtLRZzPvo8jSbZbA0k7zfGuG+SWrsdk8/P0MBlnqhrYEeNguofoO08NNU00lRDxu8kSSrhXIo26kGKUd1K0M9kaN1s0BRjJpTh1JPFTF7oCpeMrksOmRQf7Yd/Q3vMZ2G1hn/+xZP4Y96jkqiouhKb53POLYPlq4UQ4l4gyxPnkKrCsQ+P8cf33stpTcrfb0OvN/vje725foeKns5EJFiYfdQJq1YO1FWAx0NbwM1BD7TUVc17qVstrctCi2szTfqxYdXK/joHFaqaXT/FTn5TEmmrmN86ixjxeAxnG9L1nzWLJZruk00faa9Lyew5RmipY3P7N2xfr0EprXSy3xppJ/n9ztl59X/Awbd+bfgraZAyD2FzGU+4NmCbHIw+2JtCXryTZsrqaqLL54ZVMxXV62BkRP/Gf5pQyExZuV3frgU7iRRbNT+wq3H7BKNtJJxrkn6/V1sWXQaYiRG8eRv4gV3FFPJypvMzTnR0Rd9HcqKjixMdXfMKUhL7CJvLeCJmnGFzGWUFIbzDxtfbpISYmAxhq54d96r1VZRxmUsTwIQfP/HLP69aX0WZOcSkL8NAZoHC9gYOvL6Pp+3z/zsarn2e/dugu2ueOYhCCCEWjcyo5NiNGze4ceNGztv9n68U1q1WWbs6/vN/eGRFykL6r65qx+aKKeDmoKeII5H6g4CHvX3jHNG/DP/RlgZt9a3BKVCUaHH+GxvG5v3G+baeT6BuJ617mmnVPxtxd3JYUfhR3fz7GXH34XXs4tRm/XqM9bE9xZhS9Z8VfbaidU8zrXpdSMo+kjxrpTxmKsha1+w5jrg7aYnUqRj0n2qcLfqKZanud1bndQfErmwFkVSrrjmBw0T/Z4TKZ4u/If4N9iYlxNDZQcyuDexwVWvt9Fwmry5+FifgHSBUqs16gF5EnuIt9BP9n0HtU2xM6PdibFH/2UE2uRp4xj53hqOw1olluHdOoX5aeet4/OnS6I9zZ2TMlBvVzuj7BYf7OENMsbzqp78jUugfqT/RrhXMXXZ5KZnzVnrVzbG33pbZFCGEWEKU+gbXHXuz1XTgG/KtD92p7r5zVq5Q+XHt3GAlma+uwp/7FW7ekn94xXeTVlNRBQNL82E4FxLf8wLplxVeqsL2ap4tnU77jhkhhBACJFBZdkwm+Me1KpvLkr+t/uZthV6vNpMSDt/hAQpxh4Xt1Txbnbdkv7kXmrC9mqYa28LraoQQQtwzJFBZplbcB+ttKiUPg/lB7bPQDRi9Dpf8Cre+vbvjE0IIIYQQYiGkRmWZuvUtuP+m4P7b3R6JEEIIIYQQuSerfgkhhBBCCCGWHAlUhBBCCCGEEEuOBCpCCCGEEEKIJUcCFSGEEEIIIcSSI4GKEEIIIYQQYsmRQEUIIYQQQgix5MjyxMuUvEdFCCGEEEJ8l0mgssykezN9bQncvI28mV4IIYQQQixrkvqVY/ZCO+vLyxel7ZUrVHb/MMy276uGQUp0v/tVtn1f23fliuT7CSGEEEIIsVRJoJJDigI/avonmpubWb9+fU7bNpngx7Uqa1dnfsza1doxJrnLQgghhBBimVHqG1x37Cv36cA35FsfulPd3RUPP/QwL774Avn5+Xz08cdcunQpJ+06S7VZEiN9fw3iHplBuU+hvsbKWtvKuO2n/6rQN6LkZBwL1VS3k9bi+LF0937Ea6MKTXU7eSnQRcuFQG76KRrnzeO9tCmZtT3f/pvqdtLKF2zvGVvweO8Wo/vBWN+yOqewvZpnq/Pw9vRyMaRgKXfyeJklbp+At5czw6Gc911Y+xRCao6cAAAWWklEQVRlob5FaTudsL2aphpb3GdqcIQzZ4cJKsZ/38OqmYotTswjXfyvb3Yfw7b8A5zs9xtuj91mNK7Y+xHbb7lFSdq273xn3JiMFDbu45V6G6rq5thbf+JckvOM2PjCa9T7/y+HOn0p9xNCCLE0SY1Kjl3/5jrvvfc+L774As27duUkWHngfthcZrxt+kaY895ptlZZWbNqBavy75uzz+YyODcKf7+9oGHkzIi7MyEYyH0Q1dbzCW2gTXMtEeESJ6cdQfaevMDQXRhX0v5jApOwWsxvdz/G0apAxgHb3TyvsGqmorQA/0BX9KEYEh6EzWU8UefkB6GutA/Cy0Hkob+My/x3e2dcUBK2V9P0dKPhQ39h7VNstGmfGT22Jws+wqqZCvt0tK+wamOTawNby6fnBGiR+wGh+M+2OCmbGeREjz/68zO1cLLfj8k3QBvVPFtajmUiRZBlb+C5bXDq7V/R7lOW1N9tIYQQi0OSghZBJFiZnp6medeuBaeBla0xLpwHCN7QlveqKMmjYNX9PHD/3H+8V96vUrZmQUMQ9wiTMsYRT5DS4mIq1OVQ35SP2TzJxETyPUwhL95JsNntd25Yi6hoo5OCyT5O9njnPNSbfAO0nR0hr3oz3zPP3r+wvZragknOtQ/gM7ivq8x5SfszKSEu9s/2ZVL8XBoJYSmwYUloa9X6KspmJokLdyw2CsyT9J/zRdsbGrhMsMBGYeT40DTBjM7+Kv4U91oIIcR3i8yoLJJIsPKzn71I865dfHj8I7ze4azaKnkkWZAS5kpAmybxXb/FfSYF20PGt7TkERXPRPxDjfbteSXejg4OB/QUDauDd10W/qCnTIVLnJzeXKwdoAY4GrNvRVUjRxxWw22pjpuPZH1UVDVypDIQTe0Kq1YOPNNAS0BLxUqWxhXXXsCTdhYg1TnGivRf5u7C62igxarE7R+bYnVkT2XcLEayPmbb/AKcj1HPbCrbfK/9cNWupP0bCgSi10X7M1FBaeQ6xVy3bM7rbgmGpuN+TkwRM5pRyGSfRLHHqGowPgXKXMYTdeuw6tcyNlVrNi2rj1CpliY153h7NbV5lzlzLghKfJqbz+8nLzTCmWEv50fWsLXczkV9rCbfACd9EMZG4byv3FxToRkoiP8sbC6jpnSG/g4/ha51sxvM+cQn4gHBEDOswWKBiQyy5iIpXwDPtb7OT9zH+eX75wnbG3h135PYI9fTf5rDv+tkItmsTO3zHNzj0PZV/XS/87Y2O5PQR+I2IYQQd4cEKoto9ZrVPPhgHtPT01y/di3rdiwrjT+/ODbDXy5q/8q39V7D/KCJ57cXGO6brI1UwlYH7zqtHG3/SHtwLnFwQN9WUdXIkeJx9n7YwVAkoHFtZvh4L5+uqkp63Hyk7GOwj6PFDby0YRVtFwI4NjhpYYi9Z0eTpoSUOhp5w93J9uOBaBBwZEsg6QN7qv7bkvRR73Ti7fiY7ZHgpK6K9pMXaOv5hE8NUqRSnqPe5lpHEac6Pua1gJbuks21T9Z/orDVwRuVcLRjlEhKnqPEwqmOj2mJCZ4i1y2b80p27RZLZDahX3+4By2Y2Fo6w7n2XiZigoRIOlKm+ySylDvZWnCF/27v1YIPezXP1tUQ7DjPhKKwyp7PZE8XZ0Kz7W3dGIprz1ZdRainixMhhcLap6itLmdCD2aK7AUEJ/sI6kFKpK8pLFRscYLvPKAw5btCsNqMRfUlTaVKpNiq2eHSfp8uICuyF8DMYLTtsGqmonodMwNdjGOPD4ZC0wTJN2jFjNlMbJZYUhOd7/DGQAOv7iugO6Y2pai6APc7v+aQTyGs2tnxysvsf3GSX75/fk4bYXsDr+5eHU0dC9c2sEPfVti4j/0OD797823tXtc+z3/s+yn+DOpghBBCLB4JVBbJ+vXrad61i+npad57732uf3M95338cL2ZwkceoK33Gi89u1hpLQGGpwAFTKNuDqMQVovZWwlHO2IeeL/2cNTRgOtR+HTK+LiIUkcjpxz6D+pYdJYgVro+2kYDHOoZYrurkqbBcVyJ+xoZ64vOsJiU2eP3W0fnfNOfvn/jLkY8fdG2Pr0wxEsuC+XAkMG+aa/j15Fxe2ZnSxZ47Q0VOzm126n9PuBh7/GOuOs4dKGPISJpPwEOucdpcVipUFXD653NtYv9pjuRr/v3yYuhLWaMkpZiH7oBfOdnv2UPqzbWl4K353z0s0g6UkGdjULVxzj2tPskfms/225MncXECN5SJ4WFMOGD4PAAQWLaG5mkrFQLKKb0doIjF6IzKOPDlymry8cMTKlmLHkhJoeDhFULhQXgHdD6MhEiOANm46uUVnC4jxPDs+exybUhaUBmKXdqgV+HLxr4FW3UalBOGs1ABP1MhpzUbrQzobdXtHEDdkWZrZUJhpgxr6PQMkxwHusSTHR+wET0evo4cdpD/bYCClU1yayKnjqmgKm/i3YUwmoNjdug+52YmZhzp+je9jLVG+Fcf+bjEUIIkVsSqCyCXAcpwZsLH1NWbUyNcSrYQOueZlz6ylwAPFpEvWKl/ulmWhIO6U51nG5OMb3RA0W6PgBTwM0fxnfSuqcYxvq0GYcURgIJxeFTAb6iyHjnDPo38lVAjxCirJSvAozq0jPsI67NBV57Q3q6VqSQfu+jF3gtIZiIS+MCCHiSt5fFtTP1f8DBeT4QhlUbm+ry8Xacn/NQGldMr5qp2NLAM/ZB7bNCGzZmmAgSf6ti0pEwp99nTspSoQ27YoEtjSS+SSk2zJqTThYcidt3JpTYaZ42phRFHGE9iAlFxmTOxzLjz3g2JZZJ8fPlgI1nq+cGZIW1T+lByuw1j6ajnfUZ/l02KSGGzg5idm1gh6saAN/5AXwF66LjNSl+vuyATa4aCg3uZyqxKVsAqn/SeMeJQdyTL/Nc6+tUf/gr/tiv97GxiirFRtW/vs72hEMuZDwKIYQQi0EClRxbjJmU0WsKG0sWVtg8ei2bB5YAh9s/4ZDVwbuuXZxyajUSn0LSmRBQkh4375SfFH1EDAeCgHVuEJILGfR/V/pYpGtvUsb4eV8Rp52bafo6UvujBS/1waH4NC7jyY+Fndc8mRQ/X/aYecJVAykebmdnQtbxPbPPcHYrV1TVH/cQP2t2tSxb6HJ8alhpZm2blBDBGTOFZvSgJSZ1qrCUcosFnxnCQX0ltBEtDSwrCelasSt3nez0RwOSyCpfikXh8acTTmRLI2V6wGhS/Pxv5+zsTNhcxhMxgaB2bdYR6unNOEgJqzX88y+acUx+Hp+ytc14f5Pio/3wbzhhb+DVff/Gv+/2cOytP/EXSLHcsaR9CSHE3SSBSg4pCmzdsjXn6V7eK3DztpLybfSp3Lyt4L2S4c6rLCQ+N5kCbv7l+BgHntFqQj4dDTJCUfKZgiTHtc3n/ShT6fvQ6ikCvNk+zksuJ/tHUxdrl1qt8Y09WkQ9AToSJ0Ey7H/Bsukjw2OyvvZ6ilb0mFVW1jLOmzH1Jw6rlZRf72dxXlmnfgVDzBjWPxiZIRgEmCZoNCtiMZMXeXjOZJ/EPzOhJMfEHTtJf8x7TrTVtqYNdjY27puk1m7H5PMzNHCZJ+oa2FGjoPoHaDsPTTWNNNWQ0TtJUkoogI+mdiWkgpmUEBd7PuNizGexQUfsktGxVtnXYJm8PBuUWMzkha5wyei6JlNYwGo8HIspni8qWA0kmVGJjNnXxX++NciOV16m3lXIXwYm8VOJrRDjdZuFEELcNbI8cQ6pKhz78Bh/fO+9nNak/P029HqzP77Xm+wdKgG8QQstVSWAvgqYczYVKlzi5DcJMzlfBab0lCsLLa7NNOnLi4ZVK/vrHFSoatLj5iNtH6qVA3UV4PHQFnBz0AMtdVWpl9Qtnh1X5FxHPB7D2YZ0/WfNYommBWXTx4KvfUz/hu3rNSillU72WyPt6OlrRILDOWs4Lfy8+j/g4Fu/Nvy10Jf1RQq9LZN+JhRFX67YTFldTXR53Mg+jIxkvM+cc0hyzPdqy2KW8dXTuIiskjXPqpKJEbx5G/iBXcUU8nKm8zNOdHRF30dyoqOLEx3ze19M4hjD5jKeqC4gqJ9n2FxGWUEI73BunuLD9mq2lpKj9lZrAQaR96wYLyYCWjD8f2rj//xdnZzA5Oui21NA/b6fsjF63+w8/ULD7PLJQggh7gqZUcmxGzducOPGjZy3+z9fKaxbrbJ2dfzn//DIipSF9F9d1Y41YlICHDr5BWW7H9OKqdUx3uwYYq1Lf5KaCrLWtYtTm7XjR9ydtOg1D209n0DdTlr3NNOqtzfi7uSwoqQ8bj5S9fGjugZtla/BKVAU3IMeuisf440NY0lfVDji7sPrmB0XY31sTzHTkPIcs6HPVrTuaaZVrwtJ2UeSZ6Ssr71B/6nG2aKvWHbQU8SRSL1JwMPevnGOOObun/F53QGJxfSJq1hN9H9GqNzJ4083slH/LPHt9Znsk2ii/zOofYqNCcdc1IOf8yNreFyvYVGDI5wZmGRrhqlfMFvvsckVU3MTo7DWiWU4+UxGUnnr4lK35s7ImCk3qr3JYOZmzlvpVT/9HZmneCVj8nXxX6creUWvLVH9pzl83MP+JKlf+CZZve/feGOP1q+v+/cc0utUzr3/G3jhNZ5rfZ3nIrt3/552WfFLCCHuKqW+wXXHvjKaDnxDvvWhO9Xdd87KFSo/rp0brCTz1VX4c7/CzVvyj634btIegqtgIIuH82UusSgfMnvPy1Kk1epMR98pI4QQQoAEKsuOyQT/uFZlc1nyt9XfvK3Q69VmUsLhOzxAIe6wsL2aZ6vz4l6MKJaPsL2aphrbwutqhBBCfOdIoLJMrbgP1ttUSh4G84PaZ6EbMHodLvkVbn17d8cnhBBCCCHEQkiNyjJ161tw/03B/be7PRIhhBBCCCFyT1b9EkIIIYQQQiw5EqgIIYQQQgghlhwJVIQQQgghhBBLjgQqQgghhBBCiCVHAhUhhBBCCCHEkiOBihBCCCGEEGLJkUBFCCGEEEIIseTcm+9RWV2I8khRVoeq18bh6kSOBySEEEIIIYSIdU8GKsojRSjf/2F2B/8VVAlUhBBCCCGEWFSS+iWEEEIIIYRYcu7JGZXF0lS3k9aicd483kuboqTerzhmuxrgaEcHhwPJj8lERVUjRxxWUMd483gvbNmV0XiyHVOm57sQ0XOKleH1uhPjy0Rh4z5eqbehqm6OvfUnzqUZy8YXXqPe/3851Om7QyMUQgghhFh6JFAB1G9v8+03k6jAiocLwDR7Wb4NTRH++wwrHrZDmgfMtp5PaIO0+wGMuDtpuRAA9IdxlwsWEKyErQ7eqISj7R9pbSgKzGM82YxpPue7IGN9bO8ZS/gwfZ+Zji9c4uS0I8jekxcYyvG5hO0NPLcNTr39K9p9yuJfKyGEEEKI74h7PvUrPD3FN5//mW/OtjN1tp3rpz8lfCMEwPXP/x/XT33C1JmToH67aGNwD/ZxNGhhe8mqBbYUYHgqJ0PK4ZgEXMUvZU1CCCGEEPNyz8+ohAb6UG/d4uH6HxP+9luCve1MD36B5R+3k1dWxS3/GDfHRzJqq6luJy8FuqKzEuESJ6c3F2sbM0xXCqtWDjzTQJn7C3A+Rj2zqUtxaVAx7cV+3rqnmVZ9BiJ2PBVVjRypDETbivTTEvjCYLYiszGxZVfc+Wr9fcGp4sdosWrn2d37ET+fquJdVwWlihJNS4tNxUp2XumkO6dM7sdw1a5oytuRPZVJZm+yE0n5Aniu9XV+4j7OL98/T9jewKv7nsSuXwPVf5rDv+tkIslsS7j2eQ7ucWj7qn6633lbm51J6CNxmxBCCCHEcnZvByrqt9y6+jceXFvJfZaHuQ944B/WcXPMC6rKyuJybXZlfP5Nh60O3nVao6lY4RIHB9Ic81VgCtBmMNY6ijjV8TGv6WlcFVWNHCkeZ++HHQwpivbQ7drM8PFe2i50sm3UwbsuC39IUo/hHuzjaHEDL21YRduFAI4NTloYYu/Z0ZTpSKnG1GSwf2llJac6PmZ7JIDa3MzpgIe9xz/GzSoOPNNA65YS2vRgIOV5pUmTms85JbsfbT2f8OkipX5NdL7DGwMNvLqvgO6Y2pSi6gLc7/yaQz6FsGpnxysvs//FSX75/vk5bYTtDby6e3U0dSxc28AOfVth4z72Ozz87s23mVAUwrXP8x/7foo/gzoYIYQQQoil7p4OVMK3/o4aVlFWrox+pjzwIGr4Wy3VS1no5dFTsRQwjbo5nKSu4kdbGmixjPPm1zEfjnmiswphtZi9lXC0I+ZB+msPRx0NuB6FttH0IzEpAQ71DLHdVUnT4DiuxPbmOaakxmf3cQ966K58DNxaPyYCHHKP0+KwUqGquCnJ7LyKnZza7ZztI+DRg4r5nVOm98NI7KxGIl/37+dV+D7R+QETet8mxceJ0x7qtxVQqKpJZlX01DEFTP1dtKMQVmto3Abd78TMxJw7Rfe2l6neCOf6Mx6OEEIIIcSSdE8HKqYH8lBWrODWFR9567XPbl/zc1++Ja6gPitTY5wKNtC6pxlX70e8Nhr/AFrqaORU5Lk34GHvcf0BW9U+0mYy9GMeLaJesVL/dDMtCd10z2NIpoCbP4zvpHVPMYz1aTMj2Y4piZFAIOGTIN5kdTOZnpdROpb+cJ7unKLS3I90TP0fcDCHD/+xKVsAqn/SeMeJQdyTL/Nc6+tUf/gr/tivj3tjFVWKjap/fZ3tCYdcyN0whRBCCCHumns6UAHIW1/LtPt/CHzRhYrKras+LBsfX3C7JiXA4fZPOGR18K5rF6ec8cvkxq6wBaRfDcqgtkM/cF7jGg4EAatBQJHFmHIhB+eV6pwi0t2POyWs1vDPv2jGMfl5fMrWtmTj9tF++DecsDfw6r5/4993ezj21p/4C6RY7ljSvoQQQgix/EmgUr4B5T4TN8dHUBQTlh88zsri9dHtpgfNrFhtB1N2C6SZAm7+5fgYB56ZraWYt6kgIxRRvgrI4vAIbQnjAG+2j/OSy8n+0YW/u2VBcnBe8z2nbO9HzlK/CgtYjYdjMcXzRQWrgSQzKpFx+7r4z7cG2fHKy9S7CvnLwCR+KrEVAvK6FSGEEEJ8B93zgQrAg+scPLjO+CF0ZXE5K4vL591muMTJb+mNSzHKJHXKiJbeVEFrTJF5WLVyYEsx7WczKwAPq1YO1FWAp4u2QIBhTxFH6qpoX4R3h2Rqoec1n3NKez8sFsqBoWRjzWnq1+pogKG9Z6UAJj2Ge4Zrn+ef+dNsyhdwdXICk89Ht+dJfhJTPB9W7ex4cQPn30u+gpgQQgghxHIhgcpimQqy1rWLU5tjUr3mWRcRq63nE6jbqS0/rH824u7kcIYPpD/a0qCtiDU4BYoSLXR/Y8NYfLrXHZbReSUW06Mte9xRPI9zSnU/9AL+2KWdF4vJ18V/na7kFb22RPWf5vBxD/uTpH7hm2T1vn/jjT3aWH3dv+eQHrSce/838MJrPNf6Os9Fdu/+Pe0SpAghhBDiO0Cpb3Cpd6qz6cA35FsfulPdJaV8bxPK93+Y1bHqX/+CevHLHI9ICCGEEEIIEeuenFFRr43DXxdwrBBCCCGEEGJR3ZOBClcnUK9O3O1RCCGEEEIIIZLIbikrIYQQQgghhFhE/x+ETyd4Nve2wgAAAABJRU5ErkJggg==;fillColor=#f8cecc;strokeColor=#b85450;fontSize=16;fontColor=#000000;fontStyle=1" parent="1" vertex="1">
          <mxGeometry x="-750" y="200" width="810" height="199" as="geometry" />
        </mxCell>
        <mxCell id="GO8eKCC_LW2oJfEmmLwh-2" value="&lt;font style=&quot;font-size: 16px;&quot;&gt;Retornar lista sem alteração de precificação&lt;/font&gt;" style="rounded=1;whiteSpace=wrap;html=1;absoluteArcSize=1;arcSize=14;strokeWidth=2;fillColor=#f8cecc;strokeColor=#b85450;fontSize=16;fontColor=#000000;fontStyle=1" vertex="1" parent="1">
          <mxGeometry x="980" y="1130" width="330" height="100" as="geometry" />
        </mxCell>
        <mxCell id="GO8eKCC_LW2oJfEmmLwh-3" value="" style="endArrow=classic;html=1;rounded=0;fontSize=16;exitX=0.5;exitY=1;exitDx=0;exitDy=0;fillColor=#f8cecc;strokeColor=#b85450;fontColor=#000000;fontStyle=1" edge="1" parent="1" source="GO8eKCC_LW2oJfEmmLwh-2" target="y_w_9SjiZQBzQXQu_Xhb-33">
          <mxGeometry width="50" height="50" relative="1" as="geometry">
            <mxPoint x="740" y="1450" as="sourcePoint" />
            <mxPoint x="790" y="1400" as="targetPoint" />
          </mxGeometry>
        </mxCell>
        <mxCell id="GO8eKCC_LW2oJfEmmLwh-4" value="Retornar lista com alteração de precificação" style="rounded=1;whiteSpace=wrap;html=1;absoluteArcSize=1;arcSize=14;strokeWidth=2;fontSize=16;fillColor=#f8cecc;strokeColor=#b85450;fontColor=#000000;fontStyle=1" vertex="1" parent="1">
          <mxGeometry x="205" y="1340" width="260" height="100" as="geometry" />
        </mxCell>
        <mxCell id="GO8eKCC_LW2oJfEmmLwh-6" value="" style="endArrow=classic;html=1;rounded=0;fontSize=16;exitX=0.465;exitY=0.999;exitDx=0;exitDy=0;exitPerimeter=0;entryX=0.5;entryY=0;entryDx=0;entryDy=0;fillColor=#f8cecc;strokeColor=#b85450;fontColor=#000000;fontStyle=1" edge="1" parent="1" source="GO8eKCC_LW2oJfEmmLwh-4" target="y_w_9SjiZQBzQXQu_Xhb-90">
          <mxGeometry width="50" height="50" relative="1" as="geometry">
            <mxPoint x="220" y="1780" as="sourcePoint" />
            <mxPoint x="270" y="1730" as="targetPoint" />
          </mxGeometry>
        </mxCell>
      </root>
    </mxGraphModel>
  </diagram>
</mxfile>
